<?xml version="1.0" encoding="UTF-8"?>
<!-- Created with Inkscape (http://www.inkscape.org/) -->
<svg width="141.55mm" height="150.81mm" version="1.1" viewBox="0 0 141.55 150.81" xmlns="http://www.w3.org/2000/svg">
 <path d="m0.20981 0.59273v16.012h67.42v-16.012h-67.42zm45.563 0.62735c1.08 0 2.0611 0.20408 2.9435 0.61237 0.88242 0.39511 1.6067 0.97503 2.173 1.7389 0.56632 0.75071 0.92224 1.6656 1.0671 2.7456h-2.9833c-0.1317-0.77705-0.4871-1.3828-1.0666-1.8175-0.56633-0.44779-1.2577-0.67128-2.0743-0.67128-1.1195 0-2.0284 0.41463-2.7264 1.2444-0.68486 0.82973-1.0273 2.0085-1.0273 3.5362 0 1.5541 0.34247 2.7328 1.0273 3.5362 0.69803 0.80339 1.6005 1.2051 2.7068 1.2051 0.81656 0 1.5144-0.21702 2.0939-0.65164s0.9349-1.0474 1.0666-1.8376h2.9833c-0.10536 0.89559-0.42145 1.7318-0.94826 2.5089-0.51365 0.77705-1.2115 1.4092-2.0939 1.8965-0.88241 0.47414-1.9297 0.71158-3.1414 0.71158-1.2775 0-2.4234-0.2897-3.4375-0.8692-1.0009-0.5795-1.7909-1.4163-2.3704-2.5094-0.5795-1.1063-0.8692-2.4364-0.8692-3.9905 0-1.5673 0.2897-2.8973 0.8692-3.9905 0.59267-1.1063 1.3891-1.9495 2.39-2.529 1.0141-0.5795 2.1535-0.8692 3.4179-0.8692zm-44.45 0.17777h5.6896c1.5804 0 2.7656 0.34945 3.5559 1.0475 0.80339 0.69803 1.2051 1.5801 1.2051 2.6469 0 0.85608-0.24987 1.5475-0.75034 2.0743-0.4873 0.51364-1.1001 0.85611-1.8376 1.0273v0.13849c0.53998 0.026342 1.0472 0.18413 1.5214 0.47387 0.4873 0.27658 0.87556 0.67181 1.1653 1.1855 0.30292 0.51364 0.45475 1.1194 0.45475 1.8175 0 0.76388-0.19115 1.4488-0.57309 2.0547-0.36877 0.59267-0.92179 1.0601-1.6593 1.4025-0.72437 0.34243-1.6268 0.51366-2.7068 0.51366h-6.0647v-14.382zm13.078 0h2.9435v11.933h6.2032v2.4495h-9.1467v-14.382zm15.232 0h3.8721l5.0374 14.382h-3.2794l-1.1064-3.3383h-5.0968l-1.0868 3.3383h-3.2396l4.8994-14.382zm24.477 0h2.9435v3.9315l-0.059428 3.2794c0.31609-0.50048 0.65209-0.99426 1.0077-1.4816 0.3556-0.4873 0.77024-1.0209 1.2444-1.6004l3.5166-4.1289h3.6153l-5.3733 6.2234 5.5118 8.1587h-3.4768l-4.07-6.2032-1.9162 2.0944v4.1088h-2.9435v-14.382zm-22.561 2.3115c-0.23707 0.98778-0.46754 1.9096-0.69143 2.7657-0.2239 0.85608-0.44143 1.6465-0.65216 2.3709l-0.41444 1.2842h3.5951l-0.4346-1.2842c-0.2239-0.73754-0.45436-1.5345-0.69143-2.3906-0.2239-0.85608-0.46083-1.7715-0.71107-2.7461zm-27.283 0.098702v3.6354h2.3311c0.61901 0 1.1392-0.16477 1.5606-0.49403 0.42145-0.34243 0.63252-0.80336 0.63252-1.3829 0-0.51364-0.18468-0.93526-0.55345-1.2645-0.36877-0.32926-0.90187-0.49403-1.5999-0.49403h-2.3709zm0 5.6503v3.8918h2.5487c0.86924 0 1.5014-0.16477 1.8965-0.49403 0.39511-0.32926 0.59273-0.77028 0.59273-1.3234 0-0.59267-0.21753-1.0865-0.65216-1.4816-0.43462-0.39511-1.0205-0.59273-1.758-0.59273h-2.6277z" fill="#fff" vector-effect="non-scaling-stroke" style="-inkscape-stroke:hairline;paint-order:stroke fill markers"/>
 <path d="m5.2118 38.365h131.13c2.1544 0 3.8889 1.7344 3.8889 3.8889v84.826c0 2.1544-1.7344 3.8889-3.8889 3.8889h-131.13c-2.1544 0-3.8889-1.7344-3.8889-3.8889v-84.826c0-2.1544 1.7344-3.8889 3.8889-3.8889z" fill="#7f7f7f" stroke-linecap="round" stroke-width="7.1624" style="paint-order:stroke fill markers"/>
 <g stroke-width=".26458">
  <path d="m31.089 84.603q-5.842 0-9.1017-4.1487-3.2173-4.191-3.2173-11.642 0-7.493 3.2597-11.642 3.2597-4.191 9.0593-4.191 5.842 0 9.0593 4.191 3.2597 4.1487 3.2597 11.642 0 7.4507-3.2597 11.642-3.2173 4.1487-9.0593 4.1487zm0-5.2493q2.8363 0 4.3603-2.7517 1.5663-2.7517 1.5663-7.7893 0-5.08-1.5663-7.8317-1.524-2.794-4.3603-2.794t-4.3603 2.794q-1.524 2.7517-1.524 7.8317 0 5.0377 1.524 7.7893 1.524 2.7517 4.3603 2.7517z" fill="#fff" style="white-space:pre" aria-label="0"/>
  <path d="m76.821 109.69v2.8702h-12.09v-2.8702z" fill="#ff2a2a" style="white-space:pre" aria-label="_"/>
  <path d="m6.3803 34.311h-5.0574v-14.382h5.0969q2.1731 0 3.714 0.86924 1.5607 0.86925 2.3904 2.4694 0.84949 1.6002 0.84949 3.8523t-0.84949 3.8721q-0.82973 1.6002-2.4102 2.4694-1.5607 0.84949-3.7338 0.84949zm-2.1138-2.5287h1.9558q2.0743 0 3.1411-1.1261 1.0866-1.1261 1.0866-3.5362 0-2.4102-1.0668-3.5165-1.0668-1.1261-3.1411-1.1261h-1.9756zm11.32 2.5287v-14.382h9.621v2.4497h-6.6774v3.477h6.1637v2.3904h-6.1637v3.6153h6.6971v2.4497zm11.992 0v-14.382h2.9436v11.932h6.2032v2.4497zm11.162 0v-14.382h9.621v2.4497h-6.6774v3.477h6.1637v2.3904h-6.1637v3.6153h6.6971v2.4497zm11.419-11.932v-2.4497h11.735v2.4497h-4.3857v11.932h-2.9633v-11.932zm13.75 11.932v-14.382h9.621v2.4497h-6.6774v3.477h6.1637v2.3904h-6.1637v3.6153h6.6971v2.4497z" fill="#fff" style="white-space:pre" aria-label="DELETE"/>
  <path d="m1.3229 149.39v-14.382h9.4432v2.4497h-6.4996v4.0104h5.8674v2.4102h-5.8674v5.5118zm17.899 0.19756q-1.8965 0-3.4177-0.86925-1.5212-0.86924-2.4102-2.509-0.86924-1.6595-0.86924-3.9906 0-2.3509 0.86924-3.9906 0.889-1.6595 2.4102-2.5287 1.5212-0.86925 3.4177-0.86925 1.9163 0 3.4177 0.86925 1.5212 0.86924 2.4102 2.5287 0.889 1.6397 0.889 3.9906 0 2.3312-0.889 3.9906-0.889 1.6397-2.4102 2.509-1.5014 0.86925-3.4177 0.86925zm0-2.6275q1.6792 0 2.6868-1.2051 1.0273-1.2248 1.0273-3.5362 0-2.3312-1.0273-3.556-1.0075-1.2248-2.6868-1.2248-1.6595 0-2.6868 1.2446-1.0273 1.2248-1.0273 3.5362 0 2.2916 1.0273 3.5165 1.0273 1.2248 2.6868 1.2248zm8.9295 2.4299v-14.382h5.6106q2.4497 0 3.7931 1.2841t1.3434 3.398q0 1.4817-0.67169 2.5287-0.65194 1.047-1.8768 1.5607l3.0621 5.6106h-3.2597l-2.746-5.1364h-2.3114v5.1364zm2.9436-7.5071h2.1138q2.6472 0 2.6472-2.1929 0-1.0866-0.65193-1.6595-0.65193-0.57291-1.9953-0.57291h-2.1138zm10.036 7.5071v-14.382h4.5043l2.3509 6.5984q0.13829 0.45438 0.31609 1.2051 0.1778 0.73096 0.37536 1.5804 0.19756 0.82974 0.37536 1.62 0.15804-0.77047 0.3556-1.62 0.19756-0.84948 0.37536-1.5804t0.33584-1.2051l2.2916-6.5984h4.524v14.382h-2.9633v-6.7762q0-0.55315 0.01976-1.3829 0.03951-0.84949 0.05927-1.7978 0.01976-0.96802 0.03951-1.8768-0.25682 0.96802-0.51365 1.936-0.25682 0.96803-0.51364 1.7978-0.23707 0.80998-0.41487 1.3236l-2.3707 6.7762h-2.4892l-2.4102-6.7762q-0.1778-0.49389-0.41487-1.2841-0.21731-0.79022-0.49389-1.7385-0.27658-0.94826-0.5334-1.9163 0.01976 0.86925 0.03951 1.8175 0.03951 0.92852 0.05927 1.7582 0.01976 0.80998 0.01976 1.3631v6.7762zm17.582 0 4.8994-14.382h3.8721l5.0377 14.382h-3.2794l-1.1063-3.3387h-5.0969l-1.0866 3.3387zm5.0574-5.6501h3.5955l-0.43462-1.2841q-0.33585-1.1063-0.69145-2.3904-0.33584-1.2841-0.7112-2.746-0.3556 1.4817-0.69144 2.7658-0.33585 1.2841-0.65193 2.3707zm8.1985-6.2823v-2.4497h11.735v2.4497h-4.3857v11.932h-2.9633v-11.932z" fill="#ff2a2a" style="white-space:pre" aria-label="FORMAT"/>
 </g>
</svg>
