<?xml version="1.0" encoding="UTF-8"?>
<!-- Created with Inkscape (http://www.inkscape.org/) -->
<svg width="141.55mm" height="150.81mm" version="1.1" viewBox="0 0 141.55 150.81" xmlns="http://www.w3.org/2000/svg">
 <path d="m5.2118 38.365h131.13c2.1544 0 3.8889 1.7344 3.8889 3.8889v84.826c0 2.1544-1.7344 3.8889-3.8889 3.8889h-131.13c-2.1544 0-3.8889-1.7344-3.8889-3.8889v-84.826c0-2.1544 1.7344-3.8889 3.8889-3.8889z" fill="#7f7f7f" stroke-linecap="round" stroke-width="7.1624" style="paint-order:stroke fill markers"/>
 <path transform="matrix(.26458 0 0 .26458 -26.035 -21.131)" d="m241.58 281.63v116.48h-23.84v-95.36h-0.8l-26.72 18.72v-21.76l25.76-18.08z" fill="#fff" style="white-space:pre" aria-label="1"/>
 <path transform="matrix(.26458 0 0 .26458 1.6329 28.482)" d="m254.75 324.78-1.056-47.808h15.168l-1.056 47.808zm6.528 22.944q-3.648 0-5.952-2.208t-2.304-5.664q0-3.552 2.304-5.76t5.952-2.208 5.952 2.208q2.4 2.208 2.4 5.76 0 3.456-2.4 5.664-2.304 2.208-5.952 2.208z" fill="#ff2a2a" style="white-space:pre" aria-label="!"/>
 <path transform="matrix(.26458 0 0 .26458 -41.937 -52.944)" d="m163.5 329.78v-54.357h36.363v9.2587h-25.237v13.141h23.296v9.0347h-23.296v13.664h25.312v9.2587zm64.437 0h-19.115v-54.357h19.264q8.2133 0 14.037 3.2853 5.8987 3.2853 9.0347 9.3333 3.2107 6.048 3.2107 14.56t-3.2107 14.635q-3.136 6.048-9.1093 9.3333-5.8987 3.2107-14.112 3.2107zm-7.9893-9.5573h7.392q7.84 0 11.872-4.256 4.1067-4.256 4.1067-13.365t-4.032-13.291q-4.032-4.256-11.872-4.256h-7.4667zm53.909-44.8v54.357h-11.125v-54.357zm7.6907 9.2587v-9.2587h44.352v9.2587h-16.576v45.099h-11.2v-45.099z" fill="#fff" vector-effect="non-scaling-stroke" style="-inkscape-stroke:hairline;white-space:pre" aria-label="EDIT"/>
 <path transform="matrix(.26458 0 0 .26458 -42.615 62.15)" d="m185.18 329.78h-19.115v-54.357h19.264q8.2133 0 14.037 3.2853 5.8987 3.2853 9.0347 9.3333 3.2107 6.048 3.2107 14.56t-3.2107 14.635q-3.136 6.048-9.1093 9.3333-5.8987 3.2107-14.112 3.2107zm-7.9893-9.5573h7.392q7.84 0 11.872-4.256 4.1067-4.256 4.1067-13.365t-4.032-13.291q-4.032-4.256-11.872-4.256h-7.4667zm42.784 9.5573v-54.357h36.363v9.2587h-25.237v13.141h23.296v9.0347h-23.296v13.664h25.312v9.2587zm45.323 0v-54.357h35.691v9.2587h-24.565v15.157h22.176v9.1093h-22.176v20.832zm61.525 0v-54.357h35.691v9.2587h-24.565v15.157h22.176v9.1093h-22.176v20.832zm43.829 0v-54.357h12.395l17.173 27.552q1.568 2.6133 3.2853 5.824t3.5093 7.4667q-0.29866-4.032-0.52266-8.064-0.14934-4.032-0.14934-6.6453v-26.133h11.349v54.357h-12.395l-15.605-24.939q-1.4933-2.464-2.7627-4.704-1.2693-2.3147-2.6133-4.928t-3.0613-5.9733q0.29867 4.8533 0.52267 9.0347 0.224 4.1067 0.224 6.5707v24.939z" fill="#ff2a2a" style="white-space:pre" aria-label="DEF FN"/>
 <path transform="matrix(.26458 0 0 .26458 -39.082 -71.564)" d="m152.71 329.78v-54.357h21.504q8.96 0 13.44 3.9573 4.5547 3.9573 4.5547 10.005 0 4.8533-2.8373 7.84-2.7627 2.912-6.944 3.8827v0.52266q3.0613 0.14934 5.7493 1.792 2.7627 1.568 4.4053 4.48 1.7173 2.912 1.7173 6.8693 0 4.3307-2.1653 7.7653-2.0907 3.36-6.272 5.3013-4.1067 1.9413-10.229 1.9413zm11.125-9.184h9.632q4.928 0 7.168-1.8667t2.24-5.0027q0-3.36-2.464-5.6t-6.6453-2.24h-9.9307zm0-22.325h8.8107q3.5093 0 5.8987-1.8667 2.3893-1.9413 2.3893-5.2267 0-2.912-2.0907-4.7787t-6.048-1.8667h-8.96zm38.304 31.509v-54.357h11.125v45.099h23.445v9.2587zm64.587 0.74667q-6.7947 0-11.797-2.464-5.0027-2.464-7.84-6.944-2.7627-4.48-2.7627-10.379v-35.317h11.125v34.347q0 4.7787 3.0613 7.84t8.2133 3.0613 8.2133-3.0613q3.0613-3.0613 3.0613-7.84v-34.347h11.2v35.317q0 5.8987-2.8373 10.379-2.8373 4.48-7.9147 6.944-5.0027 2.464-11.723 2.464zm32.256-0.74667v-54.357h36.363v9.2587h-25.237v13.141h23.296v9.0347h-23.296v13.664h25.312v9.2587z" fill="#22f" style="white-space:pre" aria-label="BLUE"/>
 <g transform="translate(-29.766 -27.781)" stroke="#fff" stroke-linecap="round" stroke-width=".26458" vector-effect="non-scaling-stroke" style="-inkscape-stroke:hairline">
  <g fill="#fff">
   <path d="m114.43 84.667h11.906v11.906h-11.906z" vector-effect="non-scaling-stroke" style="paint-order:stroke fill markers"/>
   <path d="m114.43 96.573h11.906v11.906h-11.906z" vector-effect="non-scaling-stroke" style="paint-order:stroke fill markers"/>
   <path d="m126.34 96.573h11.906v11.906h-11.906z" vector-effect="non-scaling-stroke" style="paint-order:stroke fill markers"/>
  </g>
  <path d="m126.34 84.667h11.906v11.906h-11.906z" fill="none" vector-effect="non-scaling-stroke" style="paint-order:stroke fill markers"/>
 </g>
</svg>
