<?xml version="1.0" encoding="UTF-8"?>
<!-- Created with Inkscape (http://www.inkscape.org/) -->
<svg width="141.55mm" height="150.81mm" version="1.1" viewBox="0 0 141.55 150.81" xmlns="http://www.w3.org/2000/svg">
 <path d="m5.2118 38.365h131.13c2.1544 0 3.8889 1.7344 3.8889 3.8889v84.826c0 2.1544-1.7344 3.8889-3.8889 3.8889h-131.13c-2.1544 0-3.8889-1.7344-3.8889-3.8889v-84.826c0-2.1544 1.7344-3.8889 3.8889-3.8889z" fill="#7f7f7f" stroke-linecap="round" stroke-width="7.1624" style="paint-order:stroke fill markers"/>
 <path transform="matrix(.26458 0 0 .26458 -26.437 -20.941)" d="m176.86 398.11v-17.12l41.12-38.72q8-7.68 12.16-13.44 4.32-5.76 4.32-12.8 0-7.84-5.12-12.32t-12.96-4.48q-8.16 0-13.12 4.8-4.8 4.8-4.8 13.44h-22.72q0-11.36 5.12-19.68 5.28-8.48 14.4-12.96 9.28-4.64 21.28-4.64 12.32 0 21.44 4.48 9.28 4.32 14.4 12.16 5.12 7.68 5.12 17.76 0 6.4-2.56 12.8-2.4 6.24-8.96 14.08t-18.56 18.88l-17.44 17.28v0.8h49.12v19.68z" fill="#fff" style="white-space:pre" aria-label="2"/>
 <path transform="matrix(.26458 0 0 .26458 1.6457 25.866)" d="m262.34 366.93q-14.4 0-24.576-5.184-10.08-5.184-15.456-15.072t-5.376-24q0-13.44 5.184-23.616t15.168-15.84q10.08-5.664 24.672-5.664 10.176 0 18.24 3.072 8.064 2.976 13.728 8.448 5.664 5.376 8.64 12.768 3.072 7.296 3.072 15.936 0 7.776-1.92 14.112t-6.24 10.08q-4.224 3.648-11.232 3.648-4.608 0-8.256-1.824-3.648-1.92-4.32-6.048h-0.384q-1.248 3.552-4.992 5.76-3.648 2.112-9.216 2.112-6.432 0-10.944-2.88-4.416-2.976-6.816-8.256t-2.4-12.288q0-6.912 2.592-12.096 2.592-5.28 7.2-8.256t10.656-2.976q4.608 0 7.872 1.632 3.36 1.632 4.704 4.224h0.576v-4.8h9.6v31.584q0 2.304 0.96 3.648 1.056 1.248 3.264 1.248 4.416 0 6.144-4.224 1.824-4.32 1.824-13.44 0-9.216-3.552-16.032-3.552-6.912-10.56-10.656-6.912-3.84-17.472-3.84-16.512 0-25.248 9.12-8.736 9.024-8.736 25.056 0 16.416 8.832 25.056 8.928 8.736 25.824 8.736 5.76 0 10.656-1.248 4.992-1.152 7.968-2.4l3.648 9.792q-3.456 1.632-9.792 3.072-6.336 1.536-13.536 1.536zm-1.92-31.296q11.424 0 11.424-13.632 0-6.72-2.88-9.6-2.88-2.976-8.448-2.976-5.28 0-8.256 3.552-2.88 3.456-2.88 9.024 0 5.856 2.688 9.792 2.688 3.84 8.352 3.84z" fill="#ff2a2a" style="white-space:pre" aria-label="@"/>
 <path transform="matrix(.26458 0 0 .26458 -47.988 -52.964)" d="m211.61 330.53q-7.2427 0-12.992-3.2853-5.6747-3.2853-8.96-9.4827-3.2853-6.272-3.2853-15.083 0-8.8853 3.2853-15.083 3.36-6.272 9.0347-9.5573 5.7493-3.2853 12.917-3.2853 6.1227 0 11.125 2.3147 5.0027 2.24 8.2133 6.5707 3.2107 4.256 4.032 10.379h-11.275q-0.74666-4.4053-4.032-6.8693-3.2107-2.5387-7.84-2.5387-6.3467 0-10.304 4.704-3.8827 4.704-3.8827 13.365 0 8.8107 3.8827 13.365 3.9573 4.5547 10.229 4.5547 4.6293 0 7.9147-2.464 3.2853-2.464 4.032-6.944h11.275q-0.59734 5.0773-3.584 9.4827-2.912 4.4053-7.9147 7.168-5.0027 2.688-11.872 2.688zm26.357-0.74667 18.517-54.357h14.635l19.04 54.357h-12.395l-4.1813-12.619h-19.264l-4.1067 12.619zm19.115-21.355h13.589l-1.6427-4.8533q-1.2693-4.1813-2.6133-9.0347-1.2693-4.8533-2.688-10.379-1.344 5.6-2.6133 10.453-1.2693 4.8533-2.464 8.96zm39.797 21.355v-54.357h21.205q6.1973 0 10.528 2.3893 4.3307 2.3147 6.5707 6.496 2.3147 4.1067 2.3147 9.4827t-2.3147 9.4827q-2.3147 4.1067-6.72 6.4213-4.4053 2.3147-10.677 2.3147h-9.7813v17.771zm11.125-26.731h7.9893q5.152 0 7.5413-2.5387 2.464-2.6133 2.464-6.72t-2.464-6.5707q-2.3893-2.5387-7.5413-2.5387h-7.9893zm57.195 27.552q-9.856 0-15.755-4.48-5.824-4.5547-5.9733-13.216h10.827q0.224 4.1813 3.2107 6.272 3.0613 2.016 7.5413 2.016t7.168-1.9413q2.688-1.9413 2.688-5.0027 0-2.8373-2.464-4.3307-2.464-1.4933-6.8693-2.5387l-5.9733-1.4933q-6.8693-1.7173-10.827-5.3013-3.8827-3.584-3.8827-9.4827 0-4.928 2.6133-8.5867 2.688-3.7333 7.2427-5.7493 4.6293-2.016 10.528-2.016 6.048 0 10.528 2.0907 4.48 2.016 7.0187 5.6747t2.6133 8.4373h-10.827q-0.224-3.2853-2.7627-5.0773-2.464-1.792-6.6453-1.792-4.256 0-6.5707 1.792t-2.3147 4.48q0 3.0613 2.6133 4.5547 2.6133 1.4933 6.048 2.3147l4.928 1.1947q4.5547 1.0453 8.2133 3.0613 3.7333 1.9413 5.824 5.152 2.1653 3.136 2.1653 7.6907 0 7.392-5.5253 11.872-5.5253 4.4053-15.381 4.4053zm46.667-0.82133v-54.357h11.125v45.099h23.445v9.2587zm63.915 0.74667q-7.168 0-12.917-3.2853-5.7493-3.2853-9.1093-9.4827-3.2853-6.272-3.2853-15.083 0-8.8853 3.2853-15.083 3.36-6.272 9.1093-9.5573t12.917-3.2853q7.2427 0 12.917 3.2853 5.7493 3.2853 9.1093 9.5573 3.36 6.1973 3.36 15.083 0 8.8107-3.36 15.083-3.36 6.1973-9.1093 9.4827-5.6747 3.2853-12.917 3.2853zm0-9.9307q6.3467 0 10.155-4.5547 3.8827-4.6293 3.8827-13.365 0-8.8107-3.8827-13.44-3.808-4.6293-10.155-4.6293-6.272 0-10.155 4.704-3.8827 4.6293-3.8827 13.365 0 8.6613 3.8827 13.291 3.8827 4.6293 10.155 4.6293zm57.493 9.9307q-7.2427 0-12.992-3.2853-5.6747-3.2853-8.96-9.4827-3.2853-6.272-3.2853-15.083 0-8.8853 3.2853-15.083 3.36-6.272 9.0347-9.5573 5.7493-3.2853 12.917-3.2853 6.1227 0 11.125 2.3147 5.0027 2.24 8.2133 6.5707 3.2107 4.256 4.032 10.379h-11.275q-0.74667-4.4053-4.032-6.8693-3.2107-2.5387-7.84-2.5387-6.3467 0-10.304 4.704-3.8827 4.704-3.8827 13.365 0 8.8107 3.8827 13.365 3.9573 4.5547 10.229 4.5547 4.6293 0 7.9147-2.464 3.2853-2.464 4.032-6.944h11.275q-0.59733 5.0773-3.584 9.4827-2.912 4.4053-7.9147 7.168-5.0027 2.688-11.872 2.688zm31.509-0.74667v-54.357h11.125v14.859l-0.224 12.395q1.792-2.8373 3.808-5.6t4.704-6.048l13.291-15.605h13.664l-20.309 23.52 20.832 30.837h-13.141l-15.381-23.445-7.2427 7.9147v15.531z" fill="#fff" style="white-space:pre" aria-label="CAPS LOCK"/>
 <path transform="matrix(.26458 0 0 .26458 -51.104 62.15)" d="m198.15 329.78v-54.357h35.691v9.2587h-24.565v15.157h22.176v9.1093h-22.176v20.832zm43.829 0v-54.357h12.395l17.173 27.552q1.568 2.6133 3.2853 5.824t3.5093 7.4667q-0.29867-4.032-0.52267-8.064-0.14933-4.032-0.14933-6.6453v-26.133h11.349v54.357h-12.395l-15.605-24.939q-1.4933-2.464-2.7627-4.704-1.2693-2.3147-2.6133-4.928t-3.0613-5.9733q0.29866 4.8533 0.52266 9.0347 0.224 4.1067 0.224 6.5707v24.939z" fill="#ff2a2a" style="white-space:pre" aria-label="FN"/>
 <path transform="matrix(.26458 0 0 .26458 -44.811 -71.465)" d="m174.37 329.78v-54.357h21.205q9.2587 0 14.336 4.8533t5.0773 12.843q0 5.6-2.5387 9.5573-2.464 3.9573-7.0933 5.8987l11.573 21.205h-12.32l-10.379-19.413h-8.736v19.413zm11.125-28.373h7.9893q10.005 0 10.005-8.288 0-4.1067-2.464-6.272t-7.5413-2.1653h-7.9893zm37.931 28.373v-54.357h36.363v9.2587h-25.237v13.141h23.296v9.0347h-23.296v13.664h25.312v9.2587zm64.437 0h-19.115v-54.357h19.264q8.2133 0 14.037 3.2853 5.8987 3.2853 9.0347 9.3333 3.2107 6.048 3.2107 14.56t-3.2107 14.635q-3.136 6.048-9.1093 9.3333-5.8987 3.2107-14.112 3.2107zm-7.9893-9.5573h7.392q7.84 0 11.872-4.256 4.1067-4.256 4.1067-13.365t-4.032-13.291q-4.032-4.256-11.872-4.256h-7.4667z" fill="#ff2a2a" style="white-space:pre" aria-label="RED"/>
 <g transform="translate(-29.766 -27.781)" stroke="#fff" stroke-linecap="round" stroke-width=".26458">
  <path d="m114.43 84.667h11.906v11.906h-11.906z" fill="none" vector-effect="non-scaling-stroke" style="-inkscape-stroke:hairline;paint-order:stroke fill markers"/>
  <g fill="#fff">
   <path d="m114.43 96.573h11.906v11.906h-11.906z" vector-effect="non-scaling-stroke" style="-inkscape-stroke:hairline;paint-order:stroke fill markers"/>
   <path d="m126.34 96.573h11.906v11.906h-11.906z" vector-effect="non-scaling-stroke" style="-inkscape-stroke:hairline;paint-order:stroke fill markers"/>
   <path d="m126.34 84.667h11.906v11.906h-11.906z" vector-effect="non-scaling-stroke" style="-inkscape-stroke:hairline;paint-order:stroke fill markers"/>
  </g>
 </g>
</svg>
