<?xml version="1.0" encoding="UTF-8"?>
<!-- Created with Inkscape (http://www.inkscape.org/) -->
<svg width="141.55mm" height="150.81mm" version="1.1" viewBox="0 0 141.55 150.81" xmlns="http://www.w3.org/2000/svg">
 <g transform="translate(-26.458 -27.781)">
  <path d="m31.67 66.146h131.13c2.1544 0 3.8889 1.7344 3.8889 3.8889v84.826c0 2.1544-1.7344 3.8889-3.8889 3.8889h-131.13c-2.1544 0-3.8889-1.7344-3.8889-3.8889v-84.826c0-2.1544 1.7344-3.8889 3.8889-3.8889z" fill="#7f7f7f" stroke-linecap="round" stroke-width="7.1624" style="paint-order:stroke fill markers"/>
  <path transform="matrix(.26458 0 0 .26458 -.042348 6.6289)" d="m217.34 399.71q-12.64 0-22.56-4.32-9.76-4.32-15.52-12-5.6-7.84-5.76-17.92h24q0.32 6.56 5.92 10.56 5.76 3.84 13.92 3.84 8.64 0 14.08-4.32 5.44-4.48 5.44-11.52 0-7.2-5.76-11.68-5.76-4.64-15.84-4.64h-10.88v-17.76h10.88q8.48 0 13.76-4.32 5.44-4.32 5.44-11.36 0-6.72-4.64-10.88t-12.32-4.16q-7.52 0-13.12 4-5.44 4-5.6 10.72h-22.88q0-9.92 5.6-17.6t14.88-11.84q9.44-4.32 21.28-4.32 12 0 20.96 4.32t13.92 11.84q4.96 7.36 4.96 16.48 0 9.76-6.08 16.32-5.92 6.56-15.68 8.48v0.8q12.8 1.6 19.36 8.96 6.72 7.36 6.72 18.08 0 9.92-5.76 17.76-5.76 7.68-15.84 12.16-9.92 4.32-22.88 4.32z" fill="#fff" style="white-space:pre" aria-label="3"/>
  <path transform="matrix(.26458 0 0 .26458 28.104 56.378)" d="m262.48 346.86 2.88-17.472h-13.92l-2.88 17.472h-10.56l2.784-17.472h-9.6l1.824-10.56h9.504l2.304-13.728h-9.6l1.728-10.56h9.6l2.88-17.568h10.656l-2.88 17.568h13.92l2.88-17.568h10.56l-2.784 17.568h9.6l-1.824 10.56h-9.6l-2.208 13.728h9.6l-1.824 10.56h-9.504l-2.88 17.472zm-9.312-28.032h13.92l2.208-13.728h-13.824z" fill="#ff2a2a" style="white-space:pre" aria-label="#"/>
  <path transform="matrix(.26458 0 0 .26458 -21.127 -25.173)" d="m184.85 284.68v-9.2587h44.352v9.2587h-16.576v45.099h-11.2v-45.099zm51.968 45.099v-54.357h21.205q9.2587 0 14.336 4.8533t5.0773 12.843q0 5.6-2.5387 9.5573-2.464 3.9573-7.0933 5.8987l11.573 21.205h-12.32l-10.379-19.413h-8.736v19.413zm11.125-28.373h7.9893q10.005 0 10.005-8.288 0-4.1067-2.464-6.272t-7.5413-2.1653h-7.9893zm60.331 29.12q-6.7947 0-11.797-2.464-5.0027-2.464-7.84-6.944-2.7627-4.48-2.7627-10.379v-35.317h11.125v34.347q0 4.7787 3.0613 7.84t8.2133 3.0613 8.2133-3.0613 3.0613-7.84v-34.347h11.2v35.317q0 5.8987-2.8373 10.379-2.8373 4.48-7.9147 6.944-5.0027 2.464-11.723 2.464zm32.256-0.74667v-54.357h36.363v9.2587h-25.237v13.141h23.296v9.0347h-23.296v13.664h25.312v9.2587zm78.923 0-19.04-54.357h12.32l8.736 26.283q1.2693 4.032 2.5387 8.8107 1.344 4.7787 2.7627 10.304 1.4187-5.5253 2.6133-10.229 1.2693-4.7787 2.5387-8.8853l8.3627-26.283h12.32l-18.592 54.357zm50.997-54.357v54.357h-11.125v-54.357zm28.971 54.357h-19.115v-54.357h19.264q8.2133 0 14.037 3.2853 5.8987 3.2853 9.0347 9.3333 3.2107 6.048 3.2107 14.56t-3.2107 14.635q-3.136 6.048-9.1093 9.3333-5.8987 3.2107-14.112 3.2107zm-7.9893-9.5573h7.392q7.84 0 11.872-4.256 4.1067-4.256 4.1067-13.365t-4.032-13.291q-4.032-4.256-11.872-4.256h-7.4667zm42.784 9.5573v-54.357h36.363v9.2587h-25.237v13.141h23.296v9.0347h-23.296v13.664h25.312v9.2587zm69.141 0.74667q-7.168 0-12.917-3.2853-5.7493-3.2853-9.1093-9.4827-3.2853-6.272-3.2853-15.083 0-8.8853 3.2853-15.083 3.36-6.272 9.1093-9.5573t12.917-3.2853q7.2427 0 12.917 3.2853 5.7493 3.2853 9.1093 9.5573 3.36 6.1973 3.36 15.083 0 8.8107-3.36 15.083-3.36 6.1973-9.1093 9.4827-5.6747 3.2853-12.917 3.2853zm0-9.9307q6.3467 0 10.155-4.5547 3.8827-4.6293 3.8827-13.365 0-8.8107-3.8827-13.44-3.808-4.6293-10.155-4.6293-6.272 0-10.155 4.704-3.8827 4.6293-3.8827 13.365 0 8.6613 3.8827 13.291 3.8827 4.6293 10.155 4.6293z" fill="#fff" style="white-space:pre" aria-label="TRUE VIDEO"/>
  <path transform="matrix(.26458 0 0 .26458 -16.091 89.931)" d="m165.82 329.78v-54.357h11.125v45.099h23.445v9.2587zm53.312-54.357v54.357h-11.125v-54.357zm9.856 54.357v-54.357h12.395l17.173 27.552q1.568 2.6133 3.2853 5.824t3.5093 7.4667q-0.29867-4.032-0.52267-8.064-0.14933-4.032-0.14933-6.6453v-26.133h11.349v54.357h-12.395l-15.605-24.939q-1.4933-2.464-2.7627-4.704-1.2693-2.3147-2.6133-4.928t-3.0613-5.9733q0.29866 4.8533 0.52266 9.0347 0.224 4.1067 0.224 6.5707v24.939zm56.896 0v-54.357h36.363v9.2587h-25.237v13.141h23.296v9.0347h-23.296v13.664h25.312v9.2587z" fill="#ff2a2a" style="white-space:pre" aria-label="LINE"/>
  <path transform="matrix(.26458 0 0 .26458 -10.045 -43.694)" d="m142.97 329.78v-54.357h17.024l8.8853 24.939q0.52267 1.7173 1.1947 4.5547 0.672 2.7627 1.4187 5.9733 0.74666 3.136 1.4187 6.1227 0.59734-2.912 1.344-6.1227t1.4187-5.9733 1.2693-4.5547l8.6613-24.939h17.099v54.357h-11.2v-25.611q0-2.0907 0.0747-5.2267 0.14933-3.2107 0.224-6.7947 0.0747-3.6587 0.14933-7.0933-0.97066 3.6587-1.9413 7.3173t-1.9413 6.7947q-0.896 3.0613-1.568 5.0027l-8.96 25.611h-9.408l-9.1093-25.611q-0.672-1.8667-1.568-4.8533-0.82134-2.9867-1.8667-6.5707-1.0453-3.584-2.016-7.2427 0.0747 3.2853 0.14933 6.8693 0.14934 3.5093 0.224 6.6453 0.0747 3.0613 0.0747 5.152v25.611zm66.453 0 18.517-54.357h14.635l19.04 54.357h-12.395l-4.1813-12.619h-19.264l-4.1067 12.619zm19.115-21.355h13.589l-1.6427-4.8533q-1.2693-4.1813-2.6133-9.0347-1.2693-4.8533-2.688-10.379-1.344 5.6-2.6133 10.453-1.2693 4.8533-2.464 8.96zm59.509 22.101q-6.8693 0-12.395-3.36-5.5253-3.4347-8.736-9.632-3.2107-6.272-3.2107-14.859 0-8.736 3.2853-15.008 3.36-6.272 9.1093-9.5573 5.7493-3.36 12.917-3.36 6.1227 0 11.051 2.3147 5.0027 2.3147 8.1387 6.4213 3.2107 4.1067 3.9573 9.4827h-11.349q-1.12-3.8827-4.1067-6.1227t-7.5413-2.24q-6.272 0-10.229 4.704-3.9573 4.6293-3.9573 13.291 0 8.5867 3.8827 13.291 3.9573 4.704 10.603 4.704 5.6 0 8.8853-2.9867 3.2853-3.0613 3.584-8.288h-11.872v-8.512h22.624v28.971h-7.392l-1.344-11.947q-0.672 3.584-2.5387 6.496-1.8667 2.8373-5.152 4.5547-3.2853 1.6427-8.2133 1.6427zm33.899-0.74667v-54.357h36.363v9.2587h-25.237v13.141h23.296v9.0347h-23.296v13.664h25.312v9.2587zm45.323 0v-54.357h12.395l17.173 27.552q1.568 2.6133 3.2853 5.824t3.5093 7.4667q-0.29866-4.032-0.52266-8.064-0.14934-4.032-0.14934-6.6453v-26.133h11.349v54.357h-12.395l-15.605-24.939q-1.4933-2.464-2.7627-4.704-1.2693-2.3147-2.6133-4.928t-3.0613-5.9733q0.29867 4.8533 0.52267 9.0347 0.224 4.1067 0.224 6.5707v24.939zm54.731-45.099v-9.2587h44.352v9.2587h-16.576v45.099h-11.2v-45.099zm42.187 45.099 18.517-54.357h14.635l19.04 54.357h-12.395l-4.1813-12.619h-19.264l-4.1067 12.619zm19.115-21.355h13.589l-1.6427-4.8533q-1.2693-4.1813-2.6133-9.0347-1.2693-4.8533-2.688-10.379-1.344 5.6-2.6133 10.453-1.2693 4.8533-2.464 8.96z" fill="#ea00ea" style="white-space:pre" aria-label="MAGENTA"/>
  <g transform="translate(-3.3073)" stroke="#fff" stroke-linecap="round" stroke-width=".26458">
   <path d="m114.43 84.667v11.906h23.812v-11.906h-11.906z" fill="none" vector-effect="non-scaling-stroke" style="-inkscape-stroke:hairline;paint-order:stroke fill markers"/>
   <path d="m114.43 96.573h11.906v11.906h-11.906z" fill="#fff" vector-effect="non-scaling-stroke" style="-inkscape-stroke:hairline;paint-order:stroke fill markers"/>
   <path d="m126.34 96.573h11.906v11.906h-11.906z" fill="#fff" vector-effect="non-scaling-stroke" style="-inkscape-stroke:hairline;paint-order:stroke fill markers"/>
  </g>
 </g>
</svg>
