<?xml version="1.0" encoding="UTF-8"?>
<!-- Created with Inkscape (http://www.inkscape.org/) -->
<svg width="141.55mm" height="150.81mm" version="1.1" viewBox="0 0 141.55 150.81" xmlns="http://www.w3.org/2000/svg">
 <g transform="translate(-26.458 -27.781)">
  <path d="m31.67 66.146h131.13c2.1544 0 3.8889 1.7344 3.8889 3.8889v84.826c0 2.1544-1.7344 3.8889-3.8889 3.8889h-131.13c-2.1544 0-3.8889-1.7344-3.8889-3.8889v-84.826c0-2.1544 1.7344-3.8889 3.8889-3.8889z" fill="#7f7f7f" stroke-linecap="round" stroke-width="7.1624" style="paint-order:stroke fill markers"/>
  <path transform="matrix(.26458 0 0 .26458 -.084658 6.6501)" d="m171.26 377.47v-18.88l48.8-76.96h29.92v76.48h14.4v19.36h-14.4v20.64h-23.04v-20.64zm56.16-19.36v-50.08h-0.8l-31.2 49.28v0.8z" fill="#fff" style="white-space:pre" aria-label="4"/>
  <path transform="matrix(.26458 0 0 .26458 28.104 56.378)" d="m258.93 356.27v-8.448q-11.328-0.672-18.144-6.336-6.72-5.76-6.912-16.32h13.92q0.288 4.704 3.264 7.296 3.072 2.592 7.872 3.168v-18.432l-4.32-1.056q-8.832-2.208-13.92-6.816-4.992-4.608-4.992-12.192 0-5.952 2.976-10.368 2.976-4.512 8.16-7.2 5.28-2.784 12.096-3.36v-8.64h5.568v8.64q7.104 0.384 12.192 3.168 5.184 2.784 8.064 7.296 2.976 4.416 3.072 10.272h-13.92q-0.288-3.648-2.784-5.856-2.4-2.208-6.624-2.784v17.472l3.36 0.768q5.856 1.344 10.56 3.936 4.8 2.496 7.488 6.624 2.784 4.032 2.784 9.888 0 9.024-6.336 14.592t-17.856 6.24v8.448zm5.568-20.64q4.512-0.672 7.104-2.976 2.688-2.304 2.688-5.76 0-3.264-2.592-5.088-2.496-1.824-7.2-3.168zm-5.568-31.296v-16.032q-4.128 0.576-6.336 2.784-2.208 2.112-2.208 5.088 0 3.36 2.496 5.184t6.048 2.976z" fill="#ff2a2a" style="white-space:pre" aria-label="$"/>
  <path transform="matrix(.26458 0 0 .26458 -13.746 -25.173)" d="m168.08 275.43v54.357h-11.125v-54.357zm9.856 54.357v-54.357h12.395l17.173 27.552q1.568 2.6133 3.2853 5.824t3.5093 7.4667q-0.29867-4.032-0.52267-8.064-0.14933-4.032-0.14933-6.6453v-26.133h11.349v54.357h-12.395l-15.605-24.939q-1.4933-2.464-2.7627-4.704-1.2693-2.3147-2.6133-4.928t-3.0613-5.9733q0.29866 4.8533 0.52266 9.0347 0.224 4.1067 0.224 6.5707v24.939zm72.8 0-19.04-54.357h12.32l8.736 26.283q1.2693 4.032 2.5387 8.8107 1.344 4.7787 2.7627 10.304 1.4187-5.5253 2.6133-10.229 1.2693-4.7787 2.5387-8.8853l8.3627-26.283h12.32l-18.592 54.357zm40.245 0.672q-2.688 0-4.48-1.792t-1.792-4.48q0-2.6133 1.792-4.4053 1.792-1.8667 4.48-1.8667t4.48 1.8667q1.792 1.792 1.792 4.4053 0 2.688-1.792 4.48t-4.48 1.792zm48.683-0.672-19.04-54.357h12.32l8.736 26.283q1.2693 4.032 2.5387 8.8107 1.344 4.7787 2.7627 10.304 1.4187-5.5253 2.6133-10.229 1.2693-4.7787 2.5387-8.8853l8.3627-26.283h12.32l-18.592 54.357zm50.997-54.357v54.357h-11.125v-54.357zm28.971 54.357h-19.115v-54.357h19.264q8.2133 0 14.037 3.2853 5.8987 3.2853 9.0347 9.3333 3.2107 6.048 3.2107 14.56t-3.2107 14.635q-3.136 6.048-9.1093 9.3333-5.8987 3.2107-14.112 3.2107zm-7.9893-9.5573h7.392q7.84 0 11.872-4.256 4.1067-4.256 4.1067-13.365t-4.032-13.291q-4.032-4.256-11.872-4.256h-7.4667zm42.784 9.5573v-54.357h36.363v9.2587h-25.237v13.141h23.296v9.0347h-23.296v13.664h25.312v9.2587zm69.141 0.74667q-7.168 0-12.917-3.2853-5.7493-3.2853-9.1093-9.4827-3.2853-6.272-3.2853-15.083 0-8.8853 3.2853-15.083 3.36-6.272 9.1093-9.5573t12.917-3.2853q7.2427 0 12.917 3.2853 5.7493 3.2853 9.1093 9.5573 3.36 6.1973 3.36 15.083 0 8.8107-3.36 15.083-3.36 6.1973-9.1093 9.4827-5.6747 3.2853-12.917 3.2853zm0-9.9307q6.3467 0 10.155-4.5547 3.8827-4.6293 3.8827-13.365 0-8.8107-3.8827-13.44-3.808-4.6293-10.155-4.6293-6.272 0-10.155 4.704-3.8827 4.6293-3.8827 13.365 0 8.6613 3.8827 13.291 3.8827 4.6293 10.155 4.6293z" fill="#fff" style="white-space:pre" aria-label="INV. VIDEO"/>
  <path transform="matrix(.26458 0 0 .26458 -27.361 89.921)" d="m233.72 330.53q-7.168 0-12.917-3.2853-5.7493-3.2853-9.1093-9.4827-3.2853-6.272-3.2853-15.083 0-8.8853 3.2853-15.083 3.36-6.272 9.1093-9.5573t12.917-3.2853q7.2427 0 12.917 3.2853 5.7493 3.2853 9.1093 9.5573 3.36 6.1973 3.36 15.083 0 8.8107-3.36 15.083-3.36 6.1973-9.1093 9.4827-5.6747 3.2853-12.917 3.2853zm0-9.9307q6.3467 0 10.155-4.5547 3.8827-4.6293 3.8827-13.365 0-8.8107-3.8827-13.44-3.808-4.6293-10.155-4.6293-6.272 0-10.155 4.704-3.8827 4.6293-3.8827 13.365 0 8.6613 3.8827 13.291 3.8827 4.6293 10.155 4.6293zm33.749 9.184v-54.357h21.205q6.1973 0 10.528 2.3893 4.3307 2.3147 6.5707 6.496 2.3147 4.1067 2.3147 9.4827t-2.3147 9.4827-6.72 6.4213q-4.4053 2.3147-10.677 2.3147h-9.7813v17.771zm11.125-26.731h7.9893q5.152 0 7.5413-2.5387 2.464-2.6133 2.464-6.72t-2.464-6.5707q-2.3893-2.5387-7.5413-2.5387h-7.9893zm37.259 26.731v-54.357h36.363v9.2587h-25.237v13.141h23.296v9.0347h-23.296v13.664h25.312v9.2587zm45.323 0v-54.357h12.395l17.173 27.552q1.568 2.6133 3.2853 5.824t3.5093 7.4667q-0.29867-4.032-0.52267-8.064-0.14933-4.032-0.14933-6.6453v-26.133h11.349v54.357h-12.395l-15.605-24.939q-1.4933-2.464-2.7627-4.704-1.2693-2.3147-2.6133-4.928t-3.0613-5.9733q0.29866 4.8533 0.52266 9.0347 0.224 4.1067 0.224 6.5707v24.939zm77.131 0 2.24-13.589h-10.827l-2.24 13.589h-8.2133l2.1653-13.589h-7.4667l1.4187-8.2133h7.392l1.792-10.677h-7.4667l1.344-8.2133h7.4667l2.24-13.664h8.288l-2.24 13.664h10.827l2.24-13.664h8.2133l-2.1653 13.664h7.4667l-1.4187 8.2133h-7.4667l-1.7173 10.677h7.4667l-1.4187 8.2133h-7.392l-2.24 13.589zm-7.2427-21.803h10.827l1.7173-10.677h-10.752z" fill="#ff2a2a" style="white-space:pre" aria-label="OPEN#"/>
  <path transform="matrix(.26458 0 0 .26458 -13.102 -43.694)" d="m178.86 330.53q-6.8693 0-12.395-3.36-5.5253-3.4347-8.736-9.632-3.2107-6.272-3.2107-14.859 0-8.736 3.2853-15.008 3.36-6.272 9.1093-9.5573 5.7493-3.36 12.917-3.36 6.1227 0 11.051 2.3147 5.0027 2.3147 8.1387 6.4213 3.2107 4.1067 3.9573 9.4827h-11.349q-1.12-3.8827-4.1067-6.1227t-7.5413-2.24q-6.272 0-10.229 4.704-3.9573 4.6293-3.9573 13.291 0 8.5867 3.8827 13.291 3.9573 4.704 10.603 4.704 5.6 0 8.8853-2.9867 3.2853-3.0613 3.584-8.288h-11.872v-8.512h22.624v28.971h-7.392l-1.344-11.947q-0.672 3.584-2.5387 6.496-1.8667 2.8373-5.152 4.5547-3.2853 1.6427-8.2133 1.6427zm33.899-0.74667v-54.357h21.205q9.2587 0 14.336 4.8533t5.0773 12.843q0 5.6-2.5387 9.5573-2.464 3.9573-7.0933 5.8987l11.573 21.205h-12.32l-10.379-19.413h-8.736v19.413zm11.125-28.373h7.9893q10.005 0 10.005-8.288 0-4.1067-2.464-6.272t-7.5413-2.1653h-7.9893zm37.931 28.373v-54.357h36.363v9.2587h-25.237v13.141h23.296v9.0347h-23.296v13.664h25.312v9.2587zm45.323 0v-54.357h36.363v9.2587h-25.237v13.141h23.296v9.0347h-23.296v13.664h25.312v9.2587zm45.323 0v-54.357h12.395l17.173 27.552q1.568 2.6133 3.2853 5.824t3.5093 7.4667q-0.29867-4.032-0.52267-8.064-0.14933-4.032-0.14933-6.6453v-26.133h11.349v54.357h-12.395l-15.605-24.939q-1.4933-2.464-2.7627-4.704-1.2693-2.3147-2.6133-4.928t-3.0613-5.9733q0.29866 4.8533 0.52267 9.0347 0.224 4.1067 0.224 6.5707v24.939z" fill="#0f0" style="white-space:pre" aria-label="GREEN"/>
  <g transform="translate(-3.3073)" stroke="#fff" stroke-linecap="round" stroke-width=".26458">
   <path d="m114.43 84.667h11.906v11.906h-11.906z" fill="#fff" vector-effect="non-scaling-stroke" style="-inkscape-stroke:hairline;paint-order:stroke fill markers"/>
   <path d="m114.43 96.573h11.906v11.906h-11.906z" fill="#fff" vector-effect="non-scaling-stroke" style="-inkscape-stroke:hairline;paint-order:stroke fill markers"/>
   <path d="m126.34 96.573h11.906v11.906h-11.906z" fill="none" vector-effect="non-scaling-stroke" style="-inkscape-stroke:hairline;paint-order:stroke fill markers"/>
   <path d="m126.34 84.667h11.906v11.906h-11.906z" fill="#fff" vector-effect="non-scaling-stroke" style="-inkscape-stroke:hairline;paint-order:stroke fill markers"/>
  </g>
 </g>
</svg>
