<?xml version="1.0" encoding="UTF-8"?>
<!-- Created with Inkscape (http://www.inkscape.org/) -->
<svg width="141.55mm" height="150.81mm" version="1.1" viewBox="0 0 141.55 150.81" xmlns="http://www.w3.org/2000/svg">
 <g transform="translate(-26.458 -27.781)">
  <path d="m31.67 66.146h131.13c2.1544 0 3.8889 1.7344 3.8889 3.8889v84.826c0 2.1544-1.7344 3.8889-3.8889 3.8889h-131.13c-2.1544 0-3.8889-1.7344-3.8889-3.8889v-84.826c0-2.1544 1.7344-3.8889 3.8889-3.8889z" fill="#7f7f7f" stroke-linecap="round" stroke-width="7.1624" style="paint-order:stroke fill markers"/>
  <path transform="matrix(.26458 0 0 .26458 .021158 6.4384)" d="m216.86 399.71q-12 0-21.44-4.32-9.28-4.48-14.72-12.16-5.44-7.84-5.76-17.76h23.36q0.32 6.72 5.6 11.04 5.44 4.32 12.96 4.32 8.64 0 14.24-5.76 5.76-5.92 5.76-15.04 0-9.28-5.76-15.2t-14.72-5.92q-5.28 0-10.08 2.08t-7.36 5.6l-21.44-3.84 5.6-61.12h70.4v19.84h-50.72l-2.88 29.44h0.64q3.04-4.32 9.12-7.04 6.24-2.72 13.76-2.72 10.56 0 18.72 4.96 8.32 4.96 12.96 13.6 4.8 8.48 4.8 19.68 0 11.84-5.44 20.96-5.44 8.96-15.2 14.24-9.6 5.12-22.4 5.12z" fill="#fff" style="white-space:pre" aria-label="5"/>
  <path transform="matrix(.26458 0 0 .26458 28.104 56.352)" d="m286.05 348.11q-4.992 0-8.352-2.112t-5.184-5.568q-1.728-3.552-1.728-7.68v-3.744q0-4.128 1.824-7.584 1.824-3.552 5.184-5.664t8.256-2.112q4.992 0 8.352 2.112 3.456 2.112 5.184 5.664 1.728 3.456 1.728 7.584v3.744q0 4.128-1.824 7.68-1.728 3.456-5.184 5.568-3.36 2.112-8.256 2.112zm-49.536-37.728q-4.992 0-8.448-2.112-3.36-2.112-5.088-5.568-1.728-3.552-1.728-7.776v-3.648q0-4.224 1.728-7.68 1.824-3.456 5.184-5.568 3.456-2.112 8.352-2.112t8.256 2.112q3.456 2.112 5.184 5.664 1.728 3.456 1.728 7.584v3.648q0 4.224-1.728 7.776-1.728 3.456-5.184 5.568-3.36 2.112-8.256 2.112zm-4.32 36.48 48-69.888h9.696l-48 69.888zm4.32-45.12q3.072 0 4.224-2.112t1.152-4.704v-3.648q0-2.496-1.152-4.608-1.056-2.208-4.224-2.208t-4.416 2.208q-1.152 2.208-1.152 4.608v3.648q0 2.592 1.152 4.704 1.248 2.112 4.416 2.112zm49.536 37.728q3.168 0 4.32-2.112t1.152-4.608v-3.744q0-2.496-1.152-4.608-1.056-2.208-4.32-2.208-3.072 0-4.32 2.208-1.152 2.208-1.152 4.608v3.744q0 2.496 1.152 4.608 1.248 2.112 4.32 2.112z" fill="#ff2a2a" style="white-space:pre" aria-label="%"/>
  <path transform="matrix(.26458 0 0 .26458 -29.199 -26.072)" d="m241.79 332.47-26.432-26.432 26.432-26.432 6.048 5.9733-8.5867 8.4373q-2.0907 2.1653-5.0027 4.48t-5.4507 4.1813q2.0907-0.37334 4.4053-0.672 2.3893-0.29867 4.3307-0.29867h32.331v8.6613h-32.331q-1.9413 0-4.3307-0.29867-2.3147-0.37333-4.4053-0.672 2.5387 1.8667 5.5253 4.256 2.9867 2.3147 4.928 4.3307l8.512 8.512z" fill="#fff" style="white-space:pre" aria-label="←"/>
  <path transform="matrix(.26458 0 0 .26458 -26.403 89.911)" d="m230.03 330.53q-7.2427 0-12.992-3.2853-5.6747-3.2853-8.96-9.4827-3.2853-6.272-3.2853-15.083 0-8.8853 3.2853-15.083 3.36-6.272 9.0347-9.5573 5.7493-3.2853 12.917-3.2853 6.1227 0 11.125 2.3147 5.0027 2.24 8.2133 6.5707 3.2107 4.256 4.032 10.379h-11.275q-0.74667-4.4053-4.032-6.8693-3.2107-2.5387-7.84-2.5387-6.3467 0-10.304 4.704-3.8827 4.704-3.8827 13.365 0 8.8107 3.8827 13.365 3.9573 4.5547 10.229 4.5547 4.6293 0 7.9147-2.464 3.2853-2.464 4.032-6.944h11.275q-0.59733 5.0773-3.584 9.4827-2.912 4.4053-7.9147 7.168-5.0027 2.688-11.872 2.688zm31.509-0.74667v-54.357h11.125v45.099h23.445v9.2587zm63.915 0.74667q-7.168 0-12.917-3.2853-5.7493-3.2853-9.1093-9.4827-3.2853-6.272-3.2853-15.083 0-8.8853 3.2853-15.083 3.36-6.272 9.1093-9.5573t12.917-3.2853q7.2427 0 12.917 3.2853 5.7493 3.2853 9.1093 9.5573 3.36 6.1973 3.36 15.083 0 8.8107-3.36 15.083-3.36 6.1973-9.1093 9.4827-5.6747 3.2853-12.917 3.2853zm0-9.9307q6.3467 0 10.155-4.5547 3.8827-4.6293 3.8827-13.365 0-8.8107-3.8827-13.44-3.808-4.6293-10.155-4.6293-6.272 0-10.155 4.704-3.8827 4.6293-3.8827 13.365 0 8.6613 3.8827 13.291 3.8827 4.6293 10.155 4.6293zm53.685 10.005q-9.856 0-15.755-4.48-5.824-4.5547-5.9733-13.216h10.827q0.224 4.1813 3.2107 6.272 3.0613 2.016 7.5413 2.016t7.168-1.9413 2.688-5.0027q0-2.8373-2.464-4.3307-2.464-1.4933-6.8693-2.5387l-5.9733-1.4933q-6.8693-1.7173-10.827-5.3013-3.8827-3.584-3.8827-9.4827 0-4.928 2.6133-8.5867 2.688-3.7333 7.2427-5.7493 4.6293-2.016 10.528-2.016 6.048 0 10.528 2.0907 4.48 2.016 7.0187 5.6747t2.6133 8.4373h-10.827q-0.224-3.2853-2.7627-5.0773-2.464-1.792-6.6453-1.792-4.256 0-6.5707 1.792t-2.3147 4.48q0 3.0613 2.6133 4.5547 2.6133 1.4933 6.048 2.3147l4.928 1.1947q4.5547 1.0453 8.2133 3.0613 3.7333 1.9413 5.824 5.152 2.1653 3.136 2.1653 7.6907 0 7.392-5.5253 11.872-5.5253 4.4053-15.381 4.4053zm28.971-0.82133v-54.357h36.363v9.2587h-25.237v13.141h23.296v9.0347h-23.296v13.664h25.312v9.2587zm65.557 0 2.24-13.589h-10.827l-2.24 13.589h-8.2133l2.1653-13.589h-7.4667l1.4187-8.2133h7.392l1.792-10.677h-7.4667l1.344-8.2133h7.4667l2.24-13.664h8.288l-2.24 13.664h10.827l2.24-13.664h8.2133l-2.1653 13.664h7.4667l-1.4187 8.2133h-7.4667l-1.7173 10.677h7.4667l-1.4187 8.2133h-7.392l-2.24 13.589zm-7.2427-21.803h10.827l1.7173-10.677h-10.752z" fill="#ff2a2a" style="white-space:pre" aria-label="CLOSE#"/>
  <path transform="matrix(.26458 0 0 .26458 -8.9198 -43.694)" d="m163.95 330.53q-7.2427 0-12.992-3.2853-5.6747-3.2853-8.96-9.4827-3.2853-6.272-3.2853-15.083 0-8.8853 3.2853-15.083 3.36-6.272 9.0347-9.5573 5.7493-3.2853 12.917-3.2853 6.1227 0 11.125 2.3147 5.0027 2.24 8.2133 6.5707 3.2107 4.256 4.032 10.379h-11.275q-0.74666-4.4053-4.032-6.8693-3.2107-2.5387-7.84-2.5387-6.3467 0-10.304 4.704-3.8827 4.704-3.8827 13.365 0 8.8107 3.8827 13.365 3.9573 4.5547 10.229 4.5547 4.6293 0 7.9147-2.464 3.2853-2.464 4.032-6.944h11.275q-0.59734 5.0773-3.584 9.4827-2.912 4.4053-7.9147 7.168-5.0027 2.688-11.872 2.688zm48.459-0.74667v-20.384l-20.085-33.973h12.992l9.184 16.949q1.0453 1.8667 1.8667 3.6587 0.896 1.792 1.7173 3.9573 0.74667-2.1653 1.568-3.9573 0.82133-1.8667 1.792-3.6587l8.8853-16.949h12.992l-19.787 33.973v20.384zm28.597 0 18.517-54.357h14.635l19.04 54.357h-12.395l-4.1813-12.619h-19.264l-4.1067 12.619zm19.115-21.355h13.589l-1.6427-4.8533q-1.2693-4.1813-2.6133-9.0347-1.2693-4.8533-2.688-10.379-1.344 5.6-2.6133 10.453-1.2693 4.8533-2.464 8.96zm39.797 21.355v-54.357h12.395l17.173 27.552q1.568 2.6133 3.2853 5.824t3.5093 7.4667q-0.29867-4.032-0.52267-8.064-0.14933-4.032-0.14933-6.6453v-26.133h11.349v54.357h-12.395l-15.605-24.939q-1.4933-2.464-2.7627-4.704-1.2693-2.3147-2.6133-4.928t-3.0613-5.9733q0.29866 4.8533 0.52266 9.0347 0.224 4.1067 0.224 6.5707v24.939z" fill="#54b9ed" style="white-space:pre" aria-label="CYAN"/>
  <g transform="translate(-3.3073)" stroke="#fff" stroke-linecap="round" stroke-width=".26458">
   <path d="m114.43 84.667h11.906v11.906h-11.906z" fill="#fff" vector-effect="non-scaling-stroke" style="-inkscape-stroke:hairline;paint-order:stroke fill markers"/>
   <path d="m114.43 96.573h11.906v11.906h-11.906z" fill="#fff" vector-effect="non-scaling-stroke" style="-inkscape-stroke:hairline;paint-order:stroke fill markers"/>
   <path d="m126.34 84.667v23.812h11.906v-23.812z" fill="none" vector-effect="non-scaling-stroke" style="-inkscape-stroke:hairline;paint-order:stroke fill markers"/>
  </g>
 </g>
</svg>
