<?xml version="1.0" encoding="UTF-8"?>
<!-- Created with Inkscape (http://www.inkscape.org/) -->
<svg width="141.55mm" height="150.81mm" version="1.1" viewBox="0 0 141.55 150.81" xmlns="http://www.w3.org/2000/svg">
 <g transform="translate(-26.458 -27.781)">
  <path d="m31.67 66.146h131.13c2.1544 0 3.8889 1.7344 3.8889 3.8889v84.826c0 2.1544-1.7344 3.8889-3.8889 3.8889h-131.13c-2.1544 0-3.8889-1.7344-3.8889-3.8889v-84.826c0-2.1544 1.7344-3.8889 3.8889-3.8889z" fill="#7f7f7f" stroke-linecap="round" stroke-width="7.1624" style="paint-order:stroke fill markers"/>
  <path transform="matrix(.26458 0 0 .26458 -.021152 6.6289)" d="m219.02 399.71q-8.96 0-17.28-2.88-8.16-3.04-14.72-9.6-6.4-6.72-10.24-17.6-3.84-11.04-3.84-27.04 0-19.52 5.76-33.44 5.76-14.08 16.32-21.44 10.56-7.52 24.8-7.52 11.52 0 20.32 4.48 8.8 4.32 14.24 12.16 5.44 7.68 6.56 17.12h-23.36q-1.6-6.08-6.24-9.6-4.64-3.68-11.52-3.68-11.36 0-17.44 10.08-6.08 9.92-6.08 27.2h0.8q4-7.68 11.84-12t17.44-4.32q10.24 0 18.24 4.96 8.16 4.8 12.8 13.28 4.8 8.32 4.8 19.36 0 11.84-5.44 20.96t-15.2 14.4q-9.76 5.12-22.56 5.12zm-0.16-18.88q8.64 0 14.4-6.08t5.76-14.88-5.76-14.72q-5.6-6.08-14.24-6.08-5.76 0-10.4 2.88-4.48 2.88-7.2 7.68-2.56 4.64-2.56 10.24 0 5.76 2.56 10.56 2.56 4.64 7.04 7.52 4.64 2.88 10.4 2.88z" fill="#fff" style="white-space:pre" aria-label="6"/>
  <path transform="matrix(.26458 0 0 .26458 27.659 56.339)" d="m256.19 347.92q-7.296 0-12.576-2.592-5.184-2.592-7.968-7.008-2.784-4.512-2.784-9.888 0-6.24 3.456-10.368 3.552-4.128 9.312-8.064-2.784-3.552-4.704-7.488t-1.92-8.64q0-4.992 2.304-9.024t6.528-6.336q4.32-2.304 9.984-2.304 5.568 0 9.6 2.208t6.24 5.952 2.208 8.256q0 4.896-2.496 8.928-2.496 3.936-6.72 7.008l-4.224 2.976 11.808 13.536q1.344-2.496 2.112-5.568t0.768-6.528h11.808q0 7.2-1.728 12.672-1.728 5.376-4.512 9.216l10.368 12h-14.784l-4.224-4.704q-3.84 2.88-8.64 4.32-4.704 1.44-9.216 1.44zm10.272-14.304-13.536-15.168-0.576 0.384q-2.88 2.112-4.32 4.224-1.44 2.016-1.44 4.8 0 4.032 2.688 6.432 2.784 2.304 7.296 2.304 5.088 0 9.888-2.976zm-10.944-30.144 3.744-2.496q2.208-1.44 3.648-3.36 1.536-1.92 1.536-4.32t-1.728-4.032q-1.632-1.728-4.8-1.728-3.072 0-4.992 1.824-1.824 1.728-1.824 4.608 0 2.4 1.152 4.704 1.248 2.208 3.264 4.8z" fill="#ff2a2a" style="white-space:pre" aria-label="&amp;"/>
  <path transform="matrix(.26458 0 0 .26458 -29.683 -25.301)" d="m270.05 304.4-26.507 26.432-26.357-26.432 5.9733-6.048 8.4373 8.512q2.0907 2.0907 4.4053 5.0027 2.3147 2.912 4.256 5.4507-0.37334-2.016-0.74667-4.3307-0.29867-2.3893-0.29867-4.3307v-33.227h8.736v33.227q0 1.9413-0.37334 4.3307-0.29866 2.3147-0.672 4.4053 1.9413-2.6133 4.256-5.6 2.3893-2.9867 4.4053-4.928l8.4373-8.512z" fill="#fff" style="white-space:pre" aria-label="↓"/>
  <path transform="matrix(.26458 0 0 .26458 -8.1691 89.921)" d="m135.88 329.78v-54.357h17.024l8.8853 24.939q0.52267 1.7173 1.1947 4.5547 0.672 2.7627 1.4187 5.9733 0.74666 3.136 1.4187 6.1227 0.59734-2.912 1.344-6.1227t1.4187-5.9733 1.2693-4.5547l8.6613-24.939h17.099v54.357h-11.2v-25.611q0-2.0907 0.0747-5.2267 0.14933-3.2107 0.224-6.7947 0.0747-3.6587 0.14933-7.0933-0.97066 3.6587-1.9413 7.3173t-1.9413 6.7947q-0.89601 3.0613-1.568 5.0027l-8.96 25.611h-9.408l-9.1093-25.611q-0.672-1.8667-1.568-4.8533-0.82134-2.9867-1.8667-6.5707-1.0453-3.584-2.016-7.2427 0.0747 3.2853 0.14933 6.8693 0.14934 3.5093 0.224 6.6453 0.0747 3.0613 0.0747 5.152v25.611zm93.408 0.74667q-7.168 0-12.917-3.2853-5.7493-3.2853-9.1093-9.4827-3.2853-6.272-3.2853-15.083 0-8.8853 3.2853-15.083 3.36-6.272 9.1093-9.5573t12.917-3.2853q7.2427 0 12.917 3.2853 5.7493 3.2853 9.1093 9.5573 3.36 6.1973 3.36 15.083 0 8.8107-3.36 15.083-3.36 6.1973-9.1093 9.4827-5.6747 3.2853-12.917 3.2853zm0-9.9307q6.3467 0 10.155-4.5547 3.8827-4.6293 3.8827-13.365 0-8.8107-3.8827-13.44-3.808-4.6293-10.155-4.6293-6.272 0-10.155 4.704-3.8827 4.6293-3.8827 13.365 0 8.6613 3.8827 13.291 3.8827 4.6293 10.155 4.6293zm46.667 9.184-19.04-54.357h12.32l8.736 26.283q1.2693 4.032 2.5387 8.8107 1.344 4.7787 2.7627 10.304 1.4187-5.5253 2.6133-10.229 1.2693-4.7787 2.5387-8.8853l8.3627-26.283h12.32l-18.592 54.357zm39.872 0v-54.357h36.363v9.2587h-25.237v13.141h23.296v9.0347h-23.296v13.664h25.312v9.2587z" fill="#ff2a2a" style="white-space:pre" aria-label="MOVE"/>
  <path transform="matrix(.26458 0 0 .26458 -20.297 -43.694)" d="m201.8 329.78v-20.384l-20.085-33.973h12.992l9.184 16.949q1.0453 1.8667 1.8667 3.6587 0.896 1.792 1.7173 3.9573 0.74667-2.1653 1.568-3.9573 0.82133-1.8667 1.792-3.6587l8.8853-16.949h12.992l-19.787 33.973v20.384zm37.632 0v-54.357h36.363v9.2587h-25.237v13.141h23.296v9.0347h-23.296v13.664h25.312v9.2587zm45.323 0v-54.357h11.125v45.099h23.445v9.2587zm42.187 0v-54.357h11.125v45.099h23.445v9.2587zm63.915 0.74667q-7.168 0-12.917-3.2853-5.7493-3.2853-9.1093-9.4827-3.2853-6.272-3.2853-15.083 0-8.8853 3.2853-15.083 3.36-6.272 9.1093-9.5573t12.917-3.2853q7.2427 0 12.917 3.2853 5.7493 3.2853 9.1093 9.5573 3.36 6.1973 3.36 15.083 0 8.8107-3.36 15.083-3.36 6.1973-9.1093 9.4827-5.6747 3.2853-12.917 3.2853zm0-9.9307q6.3467 0 10.155-4.5547 3.8827-4.6293 3.8827-13.365 0-8.8107-3.8827-13.44-3.808-4.6293-10.155-4.6293-6.272 0-10.155 4.704-3.8827 4.6293-3.8827 13.365 0 8.6613 3.8827 13.291 3.8827 4.6293 10.155 4.6293zm43.381 9.184-14.56-54.357h12.171l6.272 26.731q0.82134 3.808 1.4933 8.064 0.74667 4.256 1.4187 8.4373 0.74666-4.1813 1.4933-8.4373 0.74667-4.256 1.7173-8.064l6.5707-26.731h11.573l6.6453 26.731q0.896 3.7333 1.6427 7.9893 0.74666 4.1813 1.4933 8.3627 0.672-4.1813 1.344-8.3627 0.74667-4.256 1.568-7.9893l6.3467-26.731h12.171l-14.635 54.357h-12.693l-7.2427-27.776q-0.672-2.9867-1.2693-6.1973-0.59734-3.2853-1.1947-6.7947-0.52267 3.4347-1.0453 6.72-0.52267 3.2107-1.344 6.272l-7.168 27.776z" fill="#eedc0e" style="white-space:pre" aria-label="YELLOW"/>
  <g transform="translate(-3.3073)" stroke="#fff" stroke-linecap="round" stroke-width=".26458">
   <path d="m114.43 84.667h11.906v11.906h-11.906z" fill="none" vector-effect="non-scaling-stroke" style="-inkscape-stroke:hairline;paint-order:stroke fill markers"/>
   <path d="m114.43 96.573h11.906v11.906h-11.906z" fill="#fff" vector-effect="non-scaling-stroke" style="-inkscape-stroke:hairline;paint-order:stroke fill markers"/>
   <path d="m126.34 96.573h11.906v11.906h-11.906z" fill="none" vector-effect="non-scaling-stroke" style="-inkscape-stroke:hairline;paint-order:stroke fill markers"/>
   <path d="m126.34 84.667h11.906v11.906h-11.906z" fill="#fff" vector-effect="non-scaling-stroke" style="-inkscape-stroke:hairline;paint-order:stroke fill markers"/>
  </g>
 </g>
</svg>
