<?xml version="1.0" encoding="UTF-8"?>
<!-- Created with Inkscape (http://www.inkscape.org/) -->
<svg width="141.55mm" height="150.81mm" version="1.1" viewBox="0 0 141.55 150.81" xmlns="http://www.w3.org/2000/svg">
 <g transform="translate(-26.458 -27.781)">
  <path d="m31.67 66.146h131.13c2.1544 0 3.8889 1.7344 3.8889 3.8889v84.826c0 2.1544-1.7344 3.8889-3.8889 3.8889h-131.13c-2.1544 0-3.8889-1.7344-3.8889-3.8889v-84.826c0-2.1544 1.7344-3.8889 3.8889-3.8889z" fill="#7f7f7f" stroke-linecap="round" stroke-width="7.1624" style="paint-order:stroke fill markers"/>
  <path transform="matrix(.26458 0 0 .26458 2.6323e-6 6.6501)" d="m184.7 398.11 48.48-96v-0.64h-56.32v-19.84h81.28v20l-48.64 96.48z" fill="#fff" style="white-space:pre" aria-label="7"/>
  <path transform="matrix(.26458 0 0 .26458 28.104 61.775)" d="m256.72 271.92v10.656l2.592 12.864h3.84l2.592-12.864v-10.656z" fill="#ff2a2a" style="white-space:pre" aria-label="'"/>
  <path transform="matrix(.26458 0 0 .26458 -29.683 -25.035)" d="m217.19 300.89 26.432-26.432 26.432 26.432-5.9733 5.9733-8.512-8.4373q-2.0907-2.1653-4.48-5.0773-2.3147-2.912-4.1813-5.4507 0.37334 2.0907 0.672 4.48 0.37334 2.3147 0.37334 4.256v33.152h-8.736v-33.152q0-1.9413 0.29867-4.3307 0.37333-2.3893 0.74667-4.48-1.9413 2.688-4.3307 5.6747-2.3147 2.912-4.3307 4.928l-8.4373 8.4373z" fill="#fff" style="white-space:pre" aria-label="↑"/>
  <path transform="matrix(.26458 0 0 .26458 -36.144 89.911)" d="m241.61 329.78v-54.357h36.363v9.2587h-25.237v13.141h23.296v9.0347h-23.296v13.664h25.312v9.2587zm45.323 0v-54.357h21.205q9.2587 0 14.336 4.8533t5.0773 12.843q0 5.6-2.5387 9.5573-2.464 3.9573-7.0933 5.8987l11.573 21.205h-12.32l-10.379-19.413h-8.736v19.413zm11.125-28.373h7.9893q10.005 0 10.005-8.288 0-4.1067-2.464-6.272t-7.5413-2.1653h-7.9893zm34.795 28.373 18.517-54.357h14.635l19.04 54.357h-12.395l-4.1813-12.619h-19.264l-4.1067 12.619zm19.115-21.355h13.589l-1.6427-4.8533q-1.2693-4.1813-2.6133-9.0347-1.2693-4.8533-2.688-10.379-1.344 5.6-2.6133 10.453-1.2693 4.8533-2.464 8.96zm58.613 22.176q-9.856 0-15.755-4.48-5.824-4.5547-5.9733-13.216h10.827q0.224 4.1813 3.2107 6.272 3.0613 2.016 7.5413 2.016t7.168-1.9413q2.688-1.9413 2.688-5.0027 0-2.8373-2.464-4.3307-2.464-1.4933-6.8693-2.5387l-5.9733-1.4933q-6.8693-1.7173-10.827-5.3013-3.8827-3.584-3.8827-9.4827 0-4.928 2.6133-8.5867 2.688-3.7333 7.2427-5.7493 4.6293-2.016 10.528-2.016 6.048 0 10.528 2.0907 4.48 2.016 7.0187 5.6747t2.6133 8.4373h-10.827q-0.224-3.2853-2.7627-5.0773-2.464-1.792-6.6453-1.792-4.256 0-6.5707 1.792t-2.3147 4.48q0 3.0613 2.6133 4.5547 2.6133 1.4933 6.048 2.3147l4.928 1.1947q4.5547 1.0453 8.2133 3.0613 3.7333 1.9413 5.824 5.152 2.1653 3.136 2.1653 7.6907 0 7.392-5.5253 11.872-5.5253 4.4053-15.381 4.4053zm28.971-0.82133v-54.357h36.363v9.2587h-25.237v13.141h23.296v9.0347h-23.296v13.664h25.312v9.2587z" fill="#ff2a2a" style="white-space:pre" aria-label="ERASE"/>
  <path transform="matrix(.26458 0 0 .26458 -27.561 -43.684)" d="m223.73 329.78-14.56-54.357h12.171l6.272 26.731q0.82134 3.808 1.4933 8.064 0.74666 4.256 1.4187 8.4373 0.74666-4.1813 1.4933-8.4373 0.74667-4.256 1.7173-8.064l6.5707-26.731h11.573l6.6453 26.731q0.896 3.7333 1.6427 7.9893 0.74666 4.1813 1.4933 8.3627 0.672-4.1813 1.344-8.3627 0.74667-4.256 1.568-7.9893l6.3467-26.731h12.171l-14.635 54.357h-12.693l-7.2427-27.776q-0.672-2.9867-1.2693-6.1973-0.59734-3.2853-1.1947-6.7947-0.52267 3.4347-1.0453 6.72-0.52267 3.2107-1.344 6.272l-7.168 27.776zm66.08 0v-54.357h11.125v21.952h23.669v-21.952h11.125v54.357h-11.125v-23.147h-23.669v23.147zm66.901-54.357v54.357h-11.125v-54.357zm7.6907 9.2587v-9.2587h44.352v9.2587h-16.576v45.099h-11.2v-45.099zm51.968 45.099v-54.357h36.363v9.2587h-25.237v13.141h23.296v9.0347h-23.296v13.664h25.312v9.2587z" fill="#fff" style="white-space:pre" aria-label="WHITE"/>
  <g transform="translate(-3.3073)" stroke="#fff" stroke-linecap="round" stroke-width=".26458">
   <path d="m114.43 84.667v11.906h11.906v11.906h11.906v-23.812h-11.906z" fill="none" vector-effect="non-scaling-stroke" style="-inkscape-stroke:hairline;paint-order:stroke fill markers"/>
   <path d="m114.43 96.573h11.906v11.906h-11.906z" fill="#fff" vector-effect="non-scaling-stroke" style="-inkscape-stroke:hairline;paint-order:stroke fill markers"/>
  </g>
 </g>
</svg>
