<?xml version="1.0" encoding="UTF-8"?>
<!-- Created with Inkscape (http://www.inkscape.org/) -->
<svg width="141.55mm" height="150.81mm" version="1.1" viewBox="0 0 141.55 150.81" xmlns="http://www.w3.org/2000/svg">
 <g transform="translate(-26.458 -27.781)">
  <path d="m31.67 66.146h131.13c2.1544 0 3.8889 1.7344 3.8889 3.8889v84.826c0 2.1544-1.7344 3.8889-3.8889 3.8889h-131.13c-2.1544 0-3.8889-1.7344-3.8889-3.8889v-84.826c0-2.1544 1.7344-3.8889 3.8889-3.8889z" fill="#7f7f7f" stroke-linecap="round" stroke-width="7.1624" style="paint-order:stroke fill markers"/>
  <path transform="matrix(.26458 0 0 .26458 4.3005e-5 6.6289)" d="m217.42 399.71q-12.96 0-23.04-4.16-10.08-4.32-15.84-11.68-5.76-7.52-5.76-16.96 0-7.36 3.2-13.44 3.36-6.08 8.96-10.24 5.76-4.16 12.96-5.28v-0.64q-9.28-2.08-15.2-9.12-5.76-7.2-5.76-16.8 0-8.96 5.28-16 5.28-7.2 14.4-11.2t20.8-4 20.8 4q9.28 4 14.56 11.2 5.28 7.04 5.28 16 0 9.6-5.92 16.8-5.92 7.04-14.88 9.12v0.64q6.88 1.12 12.48 5.28 5.76 4.16 9.12 10.24t3.36 13.44q0 9.44-5.76 16.96-5.76 7.36-15.84 11.68-10.08 4.16-23.2 4.16zm0-17.76q8.96 0 14.4-4.64 5.6-4.8 5.6-12.32 0-7.68-5.76-12.64-5.6-4.96-14.24-4.96t-14.24 4.96-5.6 12.64q0 7.52 5.44 12.32 5.44 4.64 14.4 4.64zm0-52.16q7.52 0 12.32-4.32 4.96-4.48 4.96-11.52 0-6.88-4.8-11.2-4.8-4.48-12.48-4.48-7.52 0-12.32 4.32t-4.8 11.36 4.8 11.52q4.8 4.32 12.32 4.32z" fill="#fff" style="white-space:pre" aria-label="8"/>
  <path transform="matrix(.26458 0 0 .26458 27.456 55.209)" d="m251.15 318.45q0-7.776 1.536-16.128 1.536-8.448 4.224-16.128 2.784-7.776 6.24-13.44h13.152q-3.456 7.296-5.856 15.168t-3.744 15.648q-1.248 7.776-1.248 14.88 0 6.144 1.056 12.384 1.152 6.144 3.552 13.248t6.24 15.84h-13.152q-5.952-9.792-9.024-20.352-2.976-10.656-2.976-21.12z" fill="#ff2a2a" style="white-space:pre" aria-label="("/>
  <path transform="matrix(.26458 0 0 .26458 -29.713 -26.072)" d="m245.37 332.47-5.9733-5.9733 8.512-8.512q1.9413-2.016 4.928-4.3307 2.9867-2.3893 5.5253-4.256-2.0907 0.29867-4.48 0.672-2.3147 0.29867-4.1813 0.29867h-32.405v-8.6613h32.405q1.8667 0 4.1813 0.29867 2.3893 0.29866 4.48 0.672-2.5387-1.8667-5.4507-4.1813t-5.0027-4.48l-8.5867-8.4373 6.048-5.9733 26.432 26.432z" fill="#fff" style="white-space:pre" aria-label="→"/>
  <path transform="matrix(.26458 0 0 .26458 -26.7 89.921)" d="m205.91 329.78v-54.357h21.205q6.1973 0 10.528 2.3893 4.3307 2.3147 6.5707 6.496 2.3147 4.1067 2.3147 9.4827t-2.3147 9.4827-6.72 6.4213q-4.4053 2.3147-10.677 2.3147h-9.7813v17.771zm11.125-26.731h7.9893q5.152 0 7.5413-2.5387 2.464-2.6133 2.464-6.72t-2.464-6.5707q-2.3893-2.5387-7.5413-2.5387h-7.9893zm61.077 27.477q-7.168 0-12.917-3.2853-5.7493-3.2853-9.1093-9.4827-3.2853-6.272-3.2853-15.083 0-8.8853 3.2853-15.083 3.36-6.272 9.1093-9.5573t12.917-3.2853q7.2427 0 12.917 3.2853 5.7493 3.2853 9.1093 9.5573 3.36 6.1973 3.36 15.083 0 8.8107-3.36 15.083-3.36 6.1973-9.1093 9.4827-5.6747 3.2853-12.917 3.2853zm0-9.9307q6.3467 0 10.155-4.5547 3.8827-4.6293 3.8827-13.365 0-8.8107-3.8827-13.44-3.808-4.6293-10.155-4.6293-6.272 0-10.155 4.704-3.8827 4.6293-3.8827 13.365 0 8.6613 3.8827 13.291 3.8827 4.6293 10.155 4.6293zm44.875-45.173v54.357h-11.125v-54.357zm9.856 54.357v-54.357h12.395l17.173 27.552q1.568 2.6133 3.2853 5.824t3.5093 7.4667q-0.29866-4.032-0.52266-8.064-0.14934-4.032-0.14934-6.6453v-26.133h11.349v54.357h-12.395l-15.605-24.939q-1.4933-2.464-2.7627-4.704-1.2693-2.3147-2.6133-4.928t-3.0613-5.9733q0.29867 4.8533 0.52267 9.0347 0.224 4.1067 0.224 6.5707v24.939zm54.731-45.099v-9.2587h44.352v9.2587h-16.576v45.099h-11.2v-45.099z" fill="#ff2a2a" style="white-space:pre" aria-label="POINT"/>
  <path d="m111.12 84.667v23.813h23.812v-23.813h-11.906z" fill="#fff" stroke="#fff" stroke-linecap="round" stroke-width=".26458" vector-effect="non-scaling-stroke" style="-inkscape-stroke:hairline;paint-order:stroke fill markers"/>
 </g>
</svg>
