<?xml version="1.0" encoding="UTF-8"?>
<!-- Created with Inkscape (http://www.inkscape.org/) -->
<svg width="141.55mm" height="150.81mm" version="1.1" viewBox="0 0 141.55 150.81" xmlns="http://www.w3.org/2000/svg">
 <g transform="translate(-26.458 -27.781)">
  <path d="m31.67 66.146h131.13c2.1544 0 3.8889 1.7344 3.8889 3.8889v84.826c0 2.1544-1.7344 3.8889-3.8889 3.8889h-131.13c-2.1544 0-3.8889-1.7344-3.8889-3.8889v-84.826c0-2.1544 1.7344-3.8889 3.8889-3.8889z" fill="#7f7f7f" stroke-linecap="round" stroke-width="7.1624" style="paint-order:stroke fill markers"/>
  <path transform="matrix(.26458 0 0 .26458 2.6323e-6 6.6501)" d="m161.58 398.11 39.68-116.48h31.36l40.8 116.48h-26.56l-8.96-27.04h-41.28l-8.8 27.04zm40.96-45.76h29.12l-3.52-10.4q-2.72-8.96-5.6-19.36-2.72-10.4-5.76-22.24-2.88 12-5.6 22.4t-5.28 19.2z" fill="#fff" style="white-space:pre" aria-label="A"/>
  <path transform="matrix(.26458 0 0 .26458 27.571 56.378)" d="m152.08 346.86v-69.888h15.936l22.08 35.424q2.016 3.36 4.224 7.488t4.512 9.6q-0.384-5.184-0.672-10.368-0.192-5.184-0.192-8.544v-33.6h14.592v69.888h-15.936l-20.064-32.064q-1.92-3.168-3.552-6.048-1.632-2.976-3.36-6.336t-3.936-7.68q0.384 6.24 0.672 11.616 0.288 5.28 0.288 8.448v32.064zm73.152 0v-69.888h46.752v11.904h-32.448v16.896h29.952v11.616h-29.952v17.568h32.544v11.904zm72.96 0-18.72-69.888h15.648l8.064 34.368q1.056 4.896 1.92 10.368 0.96 5.472 1.824 10.848 0.96-5.376 1.92-10.848t2.208-10.368l8.448-34.368h14.88l8.544 34.368q1.152 4.8 2.112 10.272 0.96 5.376 1.92 10.752 0.864-5.376 1.728-10.752 0.96-5.472 2.016-10.272l8.16-34.368h15.648l-18.816 69.888h-16.32l-9.312-35.712q-0.864-3.84-1.632-7.968-0.768-4.224-1.536-8.736-0.672 4.416-1.344 8.64-0.672 4.128-1.728 8.064l-9.216 35.712z" fill="#fff" style="white-space:pre" aria-label="NEW"/>
  <path transform="matrix(.26458 0 0 .26458 58.544 16.489)" d="m167.57 330.6q-9.856 0-15.755-4.48-5.824-4.5547-5.9733-13.216h10.827q0.224 4.1813 3.2107 6.272 3.0613 2.016 7.5413 2.016t7.168-1.9413 2.688-5.0027q0-2.8373-2.464-4.3307-2.464-1.4933-6.8693-2.5387l-5.9733-1.4933q-6.8693-1.7173-10.827-5.3013-3.8827-3.584-3.8827-9.4827 0-4.928 2.6133-8.5867 2.688-3.7333 7.2427-5.7493 4.6293-2.016 10.528-2.016 6.048 0 10.528 2.0907 4.48 2.016 7.0187 5.6747t2.6133 8.4373h-10.827q-0.224-3.2853-2.7627-5.0773-2.464-1.792-6.6453-1.792-4.256 0-6.5707 1.792t-2.3147 4.48q0 3.0613 2.6133 4.5547 2.6133 1.4933 6.048 2.3147l4.928 1.1947q4.5547 1.0453 8.2133 3.0613 3.7333 1.9413 5.824 5.152 2.1653 3.136 2.1653 7.6907 0 7.392-5.5253 11.872-5.5253 4.4053-15.381 4.4053zm26.283-45.92v-9.2587h44.352v9.2587h-16.576v45.099h-11.2v-45.099zm73.397 45.845q-7.168 0-12.917-3.2853-5.7493-3.2853-9.1093-9.4827-3.2853-6.272-3.2853-15.083 0-8.8853 3.2853-15.083 3.36-6.272 9.1093-9.5573t12.917-3.2853q7.2427 0 12.917 3.2853 5.7493 3.2853 9.1093 9.5573 3.36 6.1973 3.36 15.083 0 8.8107-3.36 15.083-3.36 6.1973-9.1093 9.4827-5.6747 3.2853-12.917 3.2853zm0-9.9307q6.3467 0 10.155-4.5547 3.8827-4.6293 3.8827-13.365 0-8.8107-3.8827-13.44-3.808-4.6293-10.155-4.6293-6.272 0-10.155 4.704-3.8827 4.6293-3.8827 13.365 0 8.6613 3.8827 13.291 3.8827 4.6293 10.155 4.6293zm33.749 9.184v-54.357h21.205q6.1973 0 10.528 2.3893 4.3307 2.3147 6.5707 6.496 2.3147 4.1067 2.3147 9.4827t-2.3147 9.4827-6.72 6.4213q-4.4053 2.3147-10.677 2.3147h-9.7813v17.771zm11.125-26.731h7.9893q5.152 0 7.5413-2.5387 2.464-2.6133 2.464-6.72t-2.464-6.5707q-2.3893-2.5387-7.5413-2.5387h-7.9893z" fill="#ff2a2a" style="white-space:pre" aria-label="STOP"/>
  <path transform="matrix(.26458 0 0 .26458 -10.974 -25.163)" d="m146.48 329.78v-54.357h21.205q9.2587 0 14.336 4.8533t5.0773 12.843q0 5.6-2.5387 9.5573-2.464 3.9573-7.0933 5.8987l11.573 21.205h-12.32l-10.379-19.413h-8.736v19.413zm11.125-28.373h7.9893q10.005 0 10.005-8.288 0-4.1067-2.464-6.272t-7.5413-2.1653h-7.9893zm37.931 28.373v-54.357h36.363v9.2587h-25.237v13.141h23.296v9.0347h-23.296v13.664h25.312v9.2587zm42.187 0 18.517-54.357h14.635l19.04 54.357h-12.395l-4.1813-12.619h-19.264l-4.1067 12.619zm19.115-21.355h13.589l-1.6427-4.8533q-1.2693-4.1813-2.6133-9.0347-1.2693-4.8533-2.688-10.379-1.344 5.6-2.6133 10.453-1.2693 4.8533-2.464 8.96zm58.912 21.355h-19.115v-54.357h19.264q8.2133 0 14.037 3.2853 5.8987 3.2853 9.0347 9.3333 3.2107 6.048 3.2107 14.56t-3.2107 14.635q-3.136 6.048-9.1093 9.3333-5.8987 3.2107-14.112 3.2107zm-7.9893-9.5573h7.392q7.84 0 11.872-4.256 4.1067-4.256 4.1067-13.365t-4.032-13.291q-4.032-4.256-11.872-4.256h-7.4667z" fill="#0f0" style="white-space:pre" aria-label="READ"/>
  <path transform="matrix(.26458 0 0 .26458 -31.421 88.508)" d="m223.98 315q-0.224-7.4667 2.912-11.349 3.2107-3.9573 8.4373-3.9573 2.5387 0 4.7787 1.0453 2.3147 1.0453 5.2267 3.584 1.568 1.344 2.6133 2.0907 1.0453 0.672 2.464 0.672 1.9413 0 3.136-1.4933t1.12-4.6293h8.512q0.224 7.4667-3.0613 11.424-3.2107 3.8827-8.3627 3.8827-2.6133 0-4.928-1.0453-2.3147-1.12-5.0773-3.584-1.7173-1.4933-2.688-2.0907-0.97066-0.672-2.3147-0.672-1.8667 0-3.136 1.4187t-1.1947 4.704z" fill="#ff2a2a" style="white-space:pre" aria-label="~"/>
 </g>
</svg>
