<?xml version="1.0" encoding="UTF-8"?>
<!-- Created with Inkscape (http://www.inkscape.org/) -->
<svg width="141.55mm" height="150.81mm" version="1.1" viewBox="0 0 141.55 150.81" xmlns="http://www.w3.org/2000/svg">
 <g transform="translate(-26.458 -27.781)">
  <path d="m31.67 66.146h131.13c2.1544 0 3.8889 1.7344 3.8889 3.8889v84.826c0 2.1544-1.7344 3.8889-3.8889 3.8889h-131.13c-2.1544 0-3.8889-1.7344-3.8889-3.8889v-84.826c0-2.1544 1.7344-3.8889 3.8889-3.8889z" fill="#7f7f7f" stroke-linecap="round" stroke-width="7.1624" style="paint-order:stroke fill markers"/>
  <path transform="matrix(.26458 0 0 .26458 -.57147 6.6501)" d="m175.1 398.11v-116.48h46.08q19.2 0 28.8 8.48 9.76 8.48 9.76 21.44 0 10.4-6.08 16.8-5.92 6.24-14.88 8.32v1.12q6.56 0.32 12.32 3.84 5.92 3.36 9.44 9.6 3.68 6.24 3.68 14.72 0 9.28-4.64 16.64-4.48 7.2-13.44 11.36-8.8 4.16-21.92 4.16zm23.84-19.68h20.64q10.56 0 15.36-4t4.8-10.72q0-7.2-5.28-12t-14.24-4.8h-21.28zm0-47.84h18.88q7.52 0 12.64-4 5.12-4.16 5.12-11.2 0-6.24-4.48-10.24t-12.96-4h-19.2z" fill="#fff" style="white-space:pre" aria-label="B"/>
  <path transform="matrix(.26458 0 0 .26458 -3.1711 56.365)" d="m188.01 346.86v-69.888h27.648q11.52 0 17.28 5.088 5.856 5.088 5.856 12.864 0 6.24-3.648 10.08-3.552 3.744-8.928 4.992v0.672q3.936 0.192 7.392 2.304 3.552 2.016 5.664 5.76 2.208 3.744 2.208 8.832 0 5.568-2.784 9.984-2.688 4.32-8.064 6.816-5.28 2.496-13.152 2.496zm14.304-11.808h12.384q6.336 0 9.216-2.4t2.88-6.432q0-4.32-3.168-7.2t-8.544-2.88h-12.768zm0-28.704h11.328q4.512 0 7.584-2.4 3.072-2.496 3.072-6.72 0-3.744-2.688-6.144t-7.776-2.4h-11.52zm79.872 41.472q-9.216 0-16.608-4.224t-11.712-12.192q-4.224-8.064-4.224-19.392 0-11.424 4.224-19.392 4.32-8.064 11.712-12.288t16.608-4.224q9.312 0 16.608 4.224 7.392 4.224 11.712 12.288 4.32 7.968 4.32 19.392 0 11.328-4.32 19.392-4.32 7.968-11.712 12.192-7.296 4.224-16.608 4.224zm0-12.768q8.16 0 13.056-5.856 4.992-5.952 4.992-17.184 0-11.328-4.992-17.28-4.896-5.952-13.056-5.952-8.064 0-13.056 6.048-4.992 5.952-4.992 17.184 0 11.136 4.992 17.088t13.056 5.952zm43.392 11.808v-69.888h27.264q11.904 0 18.432 6.24t6.528 16.512q0 7.2-3.264 12.288-3.168 5.088-9.12 7.584l14.88 27.264h-15.84l-13.344-24.96h-11.232v24.96zm14.304-36.48h10.272q12.864 0 12.864-10.656 0-5.28-3.168-8.064t-9.696-2.784h-10.272zm73.344 36.48h-24.576v-69.888h24.768q10.56 0 18.048 4.224 7.584 4.224 11.616 12 4.128 7.776 4.128 18.72t-4.128 18.816q-4.032 7.776-11.712 12-7.584 4.128-18.144 4.128zm-10.272-12.288h9.504q10.08 0 15.264-5.472 5.28-5.472 5.28-17.184t-5.184-17.088q-5.184-5.472-15.264-5.472h-9.6zm55.008 12.288v-69.888h46.752v11.904h-32.448v16.896h29.952v11.616h-29.952v17.568h32.544v11.904zm58.272 0v-69.888h27.264q11.904 0 18.432 6.24t6.528 16.512q0 7.2-3.264 12.288-3.168 5.088-9.12 7.584l14.88 27.264h-15.84l-13.344-24.96h-11.232v24.96zm14.304-36.48h10.272q12.864 0 12.864-10.656 0-5.28-3.168-8.064t-9.696-2.784h-10.272z" fill="#fff" style="white-space:pre" aria-label="BORDER"/>
  <path transform="matrix(.26458 0 0 .26458 58.593 19.65)" d="m240.04 306.04 0.74667-10.379-8.736 5.824-3.5093-6.1227 9.408-4.5547-9.408-4.5547 3.5093-6.272 8.736 5.824-0.74667-10.379h7.0187l-0.672 10.379 8.736-5.824 3.4347 6.272-9.3333 4.5547 9.3333 4.5547-3.4347 6.1227-8.736-5.824 0.672 10.379z" fill="#ff2a2a" style="white-space:pre" aria-label="*"/>
  <path transform="matrix(.26458 0 0 .26458 -21.129 -25.163)" d="m184.86 329.78v-54.357h21.504q8.96 0 13.44 3.9573 4.5547 3.9573 4.5547 10.005 0 4.8533-2.8373 7.84-2.7627 2.912-6.944 3.8827v0.52266q3.0613 0.14934 5.7493 1.792 2.7627 1.568 4.4053 4.48 1.7173 2.912 1.7173 6.8693 0 4.3307-2.1653 7.7653-2.0907 3.36-6.272 5.3013-4.1067 1.9413-10.229 1.9413zm11.125-9.184h9.632q4.928 0 7.168-1.8667t2.24-5.0027q0-3.36-2.464-5.6t-6.6453-2.24h-9.9307zm0-22.325h8.8107q3.5093 0 5.8987-1.8667 2.3893-1.9413 2.3893-5.2267 0-2.912-2.0907-4.7787t-6.048-1.8667h-8.96zm49.429-22.848v54.357h-11.125v-54.357zm9.856 54.357v-54.357h12.395l17.173 27.552q1.568 2.6133 3.2853 5.824t3.5093 7.4667q-0.29867-4.032-0.52267-8.064-0.14933-4.032-0.14933-6.6453v-26.133h11.349v54.357h-12.395l-15.605-24.939q-1.4933-2.464-2.7627-4.704-1.2693-2.3147-2.6133-4.928t-3.0613-5.9733q0.29867 4.8533 0.52267 9.0347 0.224 4.1067 0.224 6.5707v24.939z" fill="#0f0" style="white-space:pre" aria-label="BIN"/>
  <path transform="matrix(.26458 0 0 .26458 -47.85 89.921)" d="m285.85 329.78v-54.357h21.504q8.96 0 13.44 3.9573 4.5547 3.9573 4.5547 10.005 0 4.8533-2.8373 7.84-2.7627 2.912-6.944 3.8827v0.52266q3.0613 0.14934 5.7493 1.792 2.7627 1.568 4.4053 4.48 1.7173 2.912 1.7173 6.8693 0 4.3307-2.1653 7.7653-2.0907 3.36-6.272 5.3013-4.1067 1.9413-10.229 1.9413zm11.125-9.184h9.632q4.928 0 7.168-1.8667t2.24-5.0027q0-3.36-2.464-5.6t-6.6453-2.24h-9.9307zm0-22.325h8.8107q3.5093 0 5.8987-1.8667 2.3893-1.9413 2.3893-5.2267 0-2.912-2.0907-4.7787t-6.048-1.8667h-8.96zm38.304 31.509v-54.357h21.205q9.2587 0 14.336 4.8533t5.0773 12.843q0 5.6-2.5387 9.5573-2.464 3.9573-7.0933 5.8987l11.573 21.205h-12.32l-10.379-19.413h-8.736v19.413zm11.125-28.373h7.9893q10.005 0 10.005-8.288 0-4.1067-2.464-6.272t-7.5413-2.1653h-7.9893zm49.056-25.984v54.357h-11.125v-54.357zm32.704 55.104q-6.8693 0-12.395-3.36-5.5253-3.4347-8.736-9.632-3.2107-6.272-3.2107-14.859 0-8.736 3.2853-15.008 3.36-6.272 9.1093-9.5573 5.7493-3.36 12.917-3.36 6.1227 0 11.051 2.3147 5.0027 2.3147 8.1387 6.4213 3.2107 4.1067 3.9573 9.4827h-11.349q-1.12-3.8827-4.1067-6.1227t-7.5413-2.24q-6.272 0-10.229 4.704-3.9573 4.6293-3.9573 13.291 0 8.5867 3.8827 13.291 3.9573 4.704 10.603 4.704 5.6 0 8.8853-2.9867 3.2853-3.0613 3.584-8.288h-11.872v-8.512h22.624v28.971h-7.392l-1.344-11.947q-0.672 3.584-2.5387 6.496-1.8667 2.8373-5.152 4.5547-3.2853 1.6427-8.2133 1.6427zm33.899-0.74667v-54.357h11.125v21.952h23.669v-21.952h11.125v54.357h-11.125v-23.147h-23.669v23.147zm53.611-45.099v-9.2587h44.352v9.2587h-16.576v45.099h-11.2v-45.099z" fill="#ff2a2a" style="white-space:pre" aria-label="BRIGHT"/>
 </g>
</svg>
