<?xml version="1.0" encoding="UTF-8"?>
<!-- Created with Inkscape (http://www.inkscape.org/) -->
<svg width="141.55mm" height="150.81mm" version="1.1" viewBox="0 0 141.55 150.81" xmlns="http://www.w3.org/2000/svg">
 <g transform="translate(-26.458 -27.781)">
  <path d="m31.67 66.146h131.13c2.1544 0 3.8889 1.7344 3.8889 3.8889v84.826c0 2.1544-1.7344 3.8889-3.8889 3.8889h-131.13c-2.1544 0-3.8889-1.7344-3.8889-3.8889v-84.826c0-2.1544 1.7344-3.8889 3.8889-3.8889z" fill="#7f7f7f" stroke-linecap="round" stroke-width="7.1624" style="paint-order:stroke fill markers"/>
  <g transform="matrix(.26458 0 0 .26458 -8.7187 12.969)" fill="#f9f9f9" style="white-space:pre" aria-label="BREAK SPACE">
   <path d="m274.44 346.86h24.491c6.272 0 10.453-1.1947 13.739-3.9573 3.2853-2.7627 5.376-7.3173 5.376-11.723 0-5.376-2.8373-9.632-9.0347-13.216 5.376-3.4347 7.4667-6.5707 7.4667-11.2 0-3.808-1.8667-7.6907-4.928-10.379-3.2107-2.7627-7.0187-3.9573-12.843-3.9573h-24.267zm11.2-45.099h12.171c5.2267 0 7.9147 2.0907 7.9147 6.1227 0 4.1067-2.688 6.1973-7.9147 6.1973h-12.171zm0 21.653h13.365c5.4507 0 8.288 2.3893 8.288 7.0933 0 4.6293-2.8373 7.0187-8.288 7.0187h-13.365zm53.76 1.8667h12.843c4.8533 0 6.944 1.9413 6.944 6.4213v2.24c-0.0747 1.4187-0.0747 2.7627-0.0747 3.584 0 5.152 0.29866 6.72 1.6427 9.3333h12.021v-2.016c-1.7173-0.97066-2.3893-2.0907-2.3893-4.48-0.29867-16.053-0.59734-16.8-7.5413-19.787 6.1227-2.3893 9.184-6.7947 9.184-13.44 0-4.3307-1.4933-8.288-4.1067-10.976-2.464-2.5387-5.8987-3.7333-10.528-3.7333h-29.195v54.432h11.2zm0-9.3333v-14.187h13.515c3.2107 0 4.48 0.29866 5.8987 1.4187 1.344 1.12 2.016 2.9867 2.016 5.5253 0 2.6133-0.672 4.704-2.016 5.824-1.2693 1.0453-2.688 1.4187-5.8987 1.4187zm53.611 7.4667h26.059v-9.3333h-26.059v-12.32h28.149v-9.3333h-39.349v54.432h40.693v-9.3333h-29.493zm70.336 12.469 3.584 10.976h11.499l-18.816-54.432h-12.395l-19.339 54.432h11.424l3.6587-10.976zm-3.0613-9.3333h-14.187l7.0933-21.28zm36.288 2.0907 5.6-5.824 17.845 24.043h13.365l-24.043-30.987 21.728-23.445h-13.216l-21.28 23.893v-23.893h-11.2v54.432h11.2z"/>
   <path d="m287.71 396.56c-0.10667-16.107-10.88-24.96-30.507-24.96-18.667 0-29.44 8.7467-29.44 23.893 0 12.053 6.08 17.92 21.867 20.907l10.88 2.1333c10.667 2.0267 14.613 5.0134 14.613 11.307 0 6.5067-5.9734 10.453-15.68 10.453-10.88 0-16.96-4.5867-17.493-12.907h-15.573c0.96001 16.64 12.373 25.707 32.213 25.707 20.053 0 31.893-9.28 31.893-25.173 0-12.267-6.1867-18.667-20.587-21.44l-12.16-2.3467c-11.413-2.24-14.72-4.48-14.72-10.133 0-5.8667 5.12-9.6 13.44-9.6 10.133 0 15.787 4.2667 16.32 12.16zm30.507 26.347h19.947c14.293 0 23.467-10.133 23.467-25.92 0-15.573-8.8534-24.107-25.067-24.107h-34.347v77.76h16zm0-13.333v-23.36h14.933c8.5334 0 12.48 3.7334 12.48 11.627 0 8-3.9467 11.733-12.48 11.733zm93.12 25.387 5.12 15.68h16.427l-26.88-77.76h-17.707l-27.627 77.76h16.32l5.2267-15.68zm-4.3733-13.333h-20.267l10.133-30.4zm96.747-22.4c-0.53333-6.72-1.92-10.987-5.2267-15.36-5.9734-7.8934-15.573-12.267-27.2-12.267-21.973 0-35.627 15.68-35.627 40.853 0 25.067 13.547 40.64 35.2 40.64 19.413 0 32.213-11.2 33.173-29.013h-15.573c-1.0667 9.92-7.2534 15.573-17.173 15.573-12.373 0-19.627-10.027-19.627-26.987 0-17.173 7.5734-27.413 20.16-27.413 9.28 0 14.507 4.48 16.64 13.973zm28.693 17.92h37.227v-13.333h-37.227v-17.6h40.213v-13.333h-56.214v77.76h58.134v-13.333h-42.133z"/>
  </g>
 </g>
</svg>
