<?xml version="1.0" encoding="UTF-8"?>
<!-- Created with Inkscape (http://www.inkscape.org/) -->
<svg width="141.55mm" height="150.81mm" version="1.1" viewBox="0 0 141.55 150.81" xmlns="http://www.w3.org/2000/svg">
 <g transform="translate(-26.458 -27.781)">
  <path d="m31.67 66.146h131.13c2.1544 0 3.8889 1.7344 3.8889 3.8889v84.826c0 2.1544-1.7344 3.8889-3.8889 3.8889h-131.13c-2.1544 0-3.8889-1.7344-3.8889-3.8889v-84.826c0-2.1544 1.7344-3.8889 3.8889-3.8889z" fill="#7f7f7f" stroke-linecap="round" stroke-width="7.1624" style="paint-order:stroke fill markers"/>
  <path transform="matrix(.26458 0 0 .26458 -.063503 6.6289)" d="m219.74 399.71q-15.52 0-27.84-7.04-12.16-7.04-19.2-20.32-7.04-13.44-7.04-32.32 0-19.04 7.04-32.32 7.2-13.44 19.36-20.48 12.32-7.04 27.68-7.04 13.12 0 23.84 4.96 10.72 4.8 17.6 14.08 6.88 9.12 8.64 22.24h-24.16q-1.6-9.44-8.64-14.72-6.88-5.44-16.8-5.44-13.6 0-22.08 10.08-8.32 10.08-8.32 28.64 0 18.88 8.32 28.64 8.48 9.76 21.92 9.76 9.92 0 16.96-5.28t8.64-14.88h24.16q-1.28 10.88-7.68 20.32-6.24 9.44-16.96 15.36-10.72 5.76-25.44 5.76z" fill="#fff" style="white-space:pre" aria-label="C"/>
  <path transform="matrix(.26458 0 0 .26458 21.652 56.365)" d="m180.93 347.82q-9.312 0-16.704-4.224-7.296-4.224-11.52-12.192-4.224-8.064-4.224-19.392 0-11.424 4.224-19.392 4.32-8.064 11.616-12.288 7.392-4.224 16.608-4.224 7.872 0 14.304 2.976 6.432 2.88 10.56 8.448 4.128 5.472 5.184 13.344h-14.496q-0.96-5.664-5.184-8.832-4.128-3.264-10.08-3.264-8.16 0-13.248 6.048-4.992 6.048-4.992 17.184 0 11.328 4.992 17.184 5.088 5.856 13.152 5.856 5.952 0 10.176-3.168t5.184-8.928h14.496q-0.768 6.528-4.608 12.192-3.744 5.664-10.176 9.216-6.432 3.456-15.264 3.456zm71.136 0q-9.216 0-16.608-4.224t-11.712-12.192q-4.224-8.064-4.224-19.392 0-11.424 4.224-19.392 4.32-8.064 11.712-12.288t16.608-4.224q9.312 0 16.608 4.224 7.392 4.224 11.712 12.288 4.32 7.968 4.32 19.392 0 11.328-4.32 19.392-4.32 7.968-11.712 12.192-7.296 4.224-16.608 4.224zm0-12.768q8.16 0 13.056-5.856 4.992-5.952 4.992-17.184 0-11.328-4.992-17.28-4.896-5.952-13.056-5.952-8.064 0-13.056 6.048-4.992 5.952-4.992 17.184 0 11.136 4.992 17.088t13.056 5.952zm43.392 11.808v-69.888h15.936l22.08 35.424q2.016 3.36 4.224 7.488t4.512 9.6q-0.384-5.184-0.672-10.368-0.192-5.184-0.192-8.544v-33.6h14.592v69.888h-15.936l-20.064-32.064q-1.92-3.168-3.552-6.048-1.632-2.976-3.36-6.336t-3.936-7.68q0.384 6.24 0.672 11.616 0.288 5.28 0.288 8.448v32.064zm70.368-57.984v-11.904h57.024v11.904h-21.312v57.984h-14.4v-57.984z" fill="#fff" style="white-space:pre" aria-label="CONT"/>
  <path transform="matrix(.26458 0 0 .26458 58.672 16.509)" d="m236.86 313.06v-0.82134q0-4.6293 0.82133-7.3173 0.82134-2.688 2.3893-4.256 1.568-1.568 3.808-2.912 2.464-1.568 4.1067-3.4347 1.7173-1.8667 1.7173-4.5547 0-2.8373-1.9413-4.48-1.9413-1.7173-4.704-1.7173-2.688 0-4.7787 1.7173t-2.24 5.0027h-10.453q0.0747-5.2267 2.464-8.6613 2.3893-3.5093 6.272-5.152 3.9573-1.7173 8.736-1.7173 5.3013 0 9.2587 1.792 4.032 1.7173 6.272 5.0027 2.3147 3.2107 2.3147 7.84t-2.1653 7.7653q-2.1653 3.0613-5.9733 5.3013-3.136 1.9413-4.6293 3.8827-1.4933 1.9413-1.4933 5.8987v0.82134zm4.928 17.397q-2.8373 0-4.704-1.7173-1.792-1.7173-1.792-4.4053 0-2.7627 1.792-4.48 1.8667-1.7173 4.704-1.7173t4.6293 1.7173q1.8667 1.7173 1.8667 4.48 0 2.688-1.8667 4.4053-1.792 1.7173-4.6293 1.7173z" fill="#ff2a2a" style="white-space:pre" aria-label="?"/>
  <path transform="matrix(.26458 0 0 .26458 -13.281 -25.163)" d="m155.19 329.78v-54.357h11.125v45.099h23.445v9.2587zm59.883 0v-54.357h21.205q6.1973 0 10.528 2.3893 4.3307 2.3147 6.5707 6.496 2.3147 4.1067 2.3147 9.4827t-2.3147 9.4827q-2.3147 4.1067-6.72 6.4213-4.4053 2.3147-10.677 2.3147h-9.7813v17.771zm11.125-26.731h7.9893q5.152 0 7.5413-2.5387 2.464-2.6133 2.464-6.72t-2.464-6.5707q-2.3893-2.5387-7.5413-2.5387h-7.9893zm37.259 26.731v-54.357h21.205q9.2587 0 14.336 4.8533t5.0773 12.843q0 5.6-2.5387 9.5573-2.464 3.9573-7.0933 5.8987l11.573 21.205h-12.32l-10.379-19.413h-8.736v19.413zm11.125-28.373h7.9893q10.005 0 10.005-8.288 0-4.1067-2.464-6.272t-7.5413-2.1653h-7.9893zm49.056-25.984v54.357h-11.125v-54.357zm9.856 54.357v-54.357h12.395l17.173 27.552q1.568 2.6133 3.2853 5.824t3.5093 7.4667q-0.29867-4.032-0.52267-8.064-0.14933-4.032-0.14933-6.6453v-26.133h11.349v54.357h-12.395l-15.605-24.939q-1.4933-2.464-2.7627-4.704-1.2693-2.3147-2.6133-4.928t-3.0613-5.9733q0.29867 4.8533 0.52267 9.0347 0.224 4.1067 0.224 6.5707v24.939zm54.731-45.099v-9.2587h44.352v9.2587h-16.576v45.099h-11.2v-45.099z" fill="#0f0" style="white-space:pre" aria-label="L PRINT"/>
  <path transform="matrix(.26458 0 0 .26458 -22.179 89.931)" d="m188.83 329.78v-54.357h21.205q6.1973 0 10.528 2.3893 4.3307 2.3147 6.5707 6.496 2.3147 4.1067 2.3147 9.4827t-2.3147 9.4827-6.72 6.4213q-4.4053 2.3147-10.677 2.3147h-9.7813v17.771zm11.125-26.731h7.9893q5.152 0 7.5413-2.5387 2.464-2.6133 2.464-6.72t-2.464-6.5707q-2.3893-2.5387-7.5413-2.5387h-7.9893zm27.925 26.731 18.517-54.357h14.635l19.04 54.357h-12.395l-4.1813-12.619h-19.264l-4.1067 12.619zm19.115-21.355h13.589l-1.6427-4.8533q-1.2693-4.1813-2.6133-9.0347-1.2693-4.8533-2.688-10.379-1.344 5.6-2.6133 10.453-1.2693 4.8533-2.464 8.96zm39.797 21.355v-54.357h21.205q6.1973 0 10.528 2.3893 4.3307 2.3147 6.5707 6.496 2.3147 4.1067 2.3147 9.4827t-2.3147 9.4827q-2.3147 4.1067-6.72 6.4213-4.4053 2.3147-10.677 2.3147h-9.7813v17.771zm11.125-26.731h7.9893q5.152 0 7.5413-2.5387 2.464-2.6133 2.464-6.72t-2.464-6.5707q-2.3893-2.5387-7.5413-2.5387h-7.9893zm37.259 26.731v-54.357h36.363v9.2587h-25.237v13.141h23.296v9.0347h-23.296v13.664h25.312v9.2587zm45.323 0v-54.357h21.205q9.2587 0 14.336 4.8533t5.0773 12.843q0 5.6-2.5387 9.5573-2.464 3.9573-7.0933 5.8987l11.573 21.205h-12.32l-10.379-19.413h-8.736v19.413zm11.125-28.373h7.9893q10.005 0 10.005-8.288 0-4.1067-2.464-6.272t-7.5413-2.1653h-7.9893z" fill="#ff2a2a" style="white-space:pre" aria-label="PAPER"/>
 </g>
</svg>
