<?xml version="1.0" encoding="UTF-8"?>
<!-- Created with Inkscape (http://www.inkscape.org/) -->
<svg width="141.55mm" height="150.81mm" version="1.1" viewBox="0 0 141.55 150.81" xmlns="http://www.w3.org/2000/svg">
 <g transform="translate(-26.458 -27.781)">
  <path d="m31.67 66.146h131.13c2.1544 0 3.8889 1.7344 3.8889 3.8889v84.826c0 2.1544-1.7344 3.8889-3.8889 3.8889h-131.13c-2.1544 0-3.8889-1.7344-3.8889-3.8889v-84.826c0-2.1544 1.7344-3.8889 3.8889-3.8889z" fill="#7f7f7f" stroke-linecap="round" stroke-width="7.1624" style="paint-order:stroke fill markers"/>
  <g transform="matrix(.26458 0 0 .26458 12.682 16.284)" fill="#fff" style="white-space:pre" aria-label="CAPS SHIFT">
   <path d="m223.52 347.82q-9.312 0-16.704-4.224-7.296-4.224-11.52-12.192-4.224-8.064-4.224-19.392 0-11.424 4.224-19.392 4.32-8.064 11.616-12.288 7.392-4.224 16.608-4.224 7.872 0 14.304 2.976 6.432 2.88 10.56 8.448 4.128 5.472 5.184 13.344h-14.496q-0.96-5.664-5.184-8.832-4.128-3.264-10.08-3.264-8.16 0-13.248 6.048-4.992 6.048-4.992 17.184 0 11.328 4.992 17.184 5.088 5.856 13.152 5.856 5.952 0 10.176-3.168t5.184-8.928h14.496q-0.768 6.528-4.608 12.192-3.744 5.664-10.176 9.216-6.432 3.456-15.264 3.456zm33.888-0.96 23.808-69.888h18.816l24.48 69.888h-15.936l-5.376-16.224h-24.768l-5.28 16.224zm24.576-27.456h17.472l-2.112-6.24q-1.632-5.376-3.36-11.616-1.632-6.24-3.456-13.344-1.728 7.2-3.36 13.44t-3.168 11.52zm51.168 27.456v-69.888h27.264q7.968 0 13.536 3.072 5.568 2.976 8.448 8.352 2.976 5.28 2.976 12.192t-2.976 12.192-8.64 8.256-13.728 2.976h-12.576v22.848zm14.304-34.368h10.272q6.624 0 9.696-3.264 3.168-3.36 3.168-8.64t-3.168-8.448q-3.072-3.264-9.696-3.264h-10.272zm73.536 35.424q-12.672 0-20.256-5.76-7.488-5.856-7.68-16.992h13.92q0.288 5.376 4.128 8.064 3.936 2.592 9.696 2.592t9.216-2.496 3.456-6.432q0-3.648-3.168-5.568t-8.832-3.264l-7.68-1.92q-8.832-2.208-13.92-6.816-4.992-4.608-4.992-12.192 0-6.336 3.36-11.04 3.456-4.8 9.312-7.392 5.952-2.592 13.536-2.592 7.776 0 13.536 2.688 5.76 2.592 9.024 7.296t3.36 10.848h-13.92q-0.288-4.224-3.552-6.528-3.168-2.304-8.544-2.304-5.472 0-8.448 2.304t-2.976 5.76q0 3.936 3.36 5.856t7.776 2.976l6.336 1.536q5.856 1.344 10.56 3.936 4.8 2.496 7.488 6.624 2.784 4.032 2.784 9.888 0 9.504-7.104 15.264-7.104 5.664-19.776 5.664z"/>
   <path d="m210.27 450.8q-12.672 0-20.256-5.76-7.488-5.856-7.68-16.992h13.92q0.288 5.376 4.128 8.064 3.936 2.592 9.696 2.592t9.216-2.496 3.456-6.432q0-3.648-3.168-5.568t-8.832-3.264l-7.68-1.92q-8.832-2.208-13.92-6.816-4.992-4.608-4.992-12.192 0-6.336 3.36-11.04 3.456-4.8 9.312-7.392 5.952-2.592 13.536-2.592 7.776 0 13.536 2.688 5.76 2.592 9.024 7.296t3.36 10.848h-13.92q-0.288-4.224-3.552-6.528-3.168-2.304-8.544-2.304-5.472 0-8.448 2.304t-2.976 5.76q0 3.936 3.36 5.856t7.776 2.976l6.336 1.536q5.856 1.344 10.56 3.936 4.8 2.496 7.488 6.624 2.784 4.032 2.784 9.888 0 9.504-7.104 15.264-7.104 5.664-19.776 5.664zm37.248-1.056v-69.888h14.304v28.224h30.432v-28.224h14.304v69.888h-14.304v-29.76h-30.432v29.76zm86.016-69.888v69.888h-14.304v-69.888zm12.672 69.888v-69.888h45.888v11.904h-31.584v19.488h28.512v11.712h-28.512v26.784zm53.568-57.984v-11.904h57.024v11.904h-21.312v57.984h-14.4v-57.984z"/>
  </g>
 </g>
</svg>
