<?xml version="1.0" encoding="UTF-8"?>
<!-- Created with Inkscape (http://www.inkscape.org/) -->
<svg width="141.55mm" height="150.82mm" version="1.1" viewBox="0 0 141.55 150.82" xmlns="http://www.w3.org/2000/svg">
 <g transform="translate(-26.458 -27.781)">
  <path d="m31.67 66.146h131.13c2.1544 0 3.8889 1.7344 3.8889 3.8889v84.826c0 2.1544-1.7344 3.8889-3.8889 3.8889h-131.13c-2.1544 0-3.8889-1.7344-3.8889-3.8889v-84.826c0-2.1544 1.7344-3.8889 3.8889-3.8889z" fill="#7f7f7f" stroke-linecap="round" stroke-width="7.1624" style="paint-order:stroke fill markers"/>
  <path transform="matrix(.26458 0 0 .26458 -.42334 6.6501)" d="m211.26 398.11h-40.96v-116.48h41.28q17.6 0 30.08 7.04 12.64 7.04 19.36 20 6.88 12.96 6.88 31.2t-6.88 31.36q-6.72 12.96-19.52 20-12.64 6.88-30.24 6.88zm-17.12-20.48h15.84q16.8 0 25.44-9.12 8.8-9.12 8.8-28.64t-8.64-28.48q-8.64-9.12-25.44-9.12h-16z" fill="#fff" style="white-space:pre" aria-label="D"/>
  <path transform="matrix(.26458 0 0 .26458 28.104 56.378)" d="m199.31 346.86h-24.576v-69.888h24.768q10.56 0 18.048 4.224 7.584 4.224 11.616 12 4.128 7.776 4.128 18.72t-4.128 18.816q-4.032 7.776-11.712 12-7.584 4.128-18.144 4.128zm-10.272-12.288h9.504q10.08 0 15.264-5.472 5.28-5.472 5.28-17.184t-5.184-17.088q-5.184-5.472-15.264-5.472h-9.6zm69.312-57.6v69.888h-14.304v-69.888zm12.672 69.888v-69.888h21.888l11.424 32.064q0.672 2.208 1.536 5.856 0.864 3.552 1.824 7.68 0.96 4.032 1.824 7.872 0.768-3.744 1.728-7.872t1.824-7.68 1.632-5.856l11.136-32.064h21.984v69.888h-14.4v-32.928q0-2.688 0.096-6.72 0.192-4.128 0.288-8.736 0.096-4.704 0.192-9.12-1.248 4.704-2.496 9.408t-2.496 8.736q-1.152 3.936-2.016 6.432l-11.52 32.928h-12.096l-11.712-32.928q-0.864-2.4-2.016-6.24-1.056-3.84-2.4-8.448t-2.592-9.312q0.096 4.224 0.192 8.832 0.192 4.512 0.288 8.544 0.096 3.936 0.096 6.624v32.928z" fill="#fff" style="white-space:pre" aria-label="DIM"/>
  <path transform="matrix(.26458 0 0 .26458 58.544 16.489)" d="m172.5 330.6q-9.856 0-15.755-4.48-5.824-4.5547-5.9733-13.216h10.827q0.224 4.1813 3.2107 6.272 3.0613 2.016 7.5413 2.016t7.168-1.9413q2.688-1.9413 2.688-5.0027 0-2.8373-2.464-4.3307-2.464-1.4933-6.8693-2.5387l-5.9733-1.4933q-6.8693-1.7173-10.827-5.3013-3.8827-3.584-3.8827-9.4827 0-4.928 2.6133-8.5867 2.688-3.7333 7.2427-5.7493 4.6293-2.016 10.528-2.016 6.048 0 10.528 2.0907 4.48 2.016 7.0187 5.6747t2.6133 8.4373h-10.827q-0.224-3.2853-2.7627-5.0773-2.464-1.792-6.6453-1.792-4.256 0-6.5707 1.792t-2.3147 4.48q0 3.0613 2.6133 4.5547 2.6133 1.4933 6.048 2.3147l4.928 1.1947q4.5547 1.0453 8.2133 3.0613 3.7333 1.9413 5.824 5.152 2.1653 3.136 2.1653 7.6907 0 7.392-5.5253 11.872-5.5253 4.4053-15.381 4.4053zm26.283-45.92v-9.2587h44.352v9.2587h-16.576v45.099h-11.2v-45.099zm51.968 45.099v-54.357h36.363v9.2587h-25.237v13.141h23.296v9.0347h-23.296v13.664h25.312v9.2587zm45.323 0v-54.357h21.205q6.1973 0 10.528 2.3893 4.3307 2.3147 6.5707 6.496 2.3147 4.1067 2.3147 9.4827t-2.3147 9.4827-6.72 6.4213q-4.4053 2.3147-10.677 2.3147h-9.7813v17.771zm11.125-26.731h7.9893q5.152 0 7.5413-2.5387 2.464-2.6133 2.464-6.72t-2.464-6.5707q-2.3893-2.5387-7.5413-2.5387h-7.9893z" fill="#ff2a2a" style="white-space:pre" aria-label="STEP"/>
  <path transform="matrix(.26458 0 0 .26458 -42.603 -25.163)" d="m285.13 329.78h-19.115v-54.357h19.264q8.2133 0 14.037 3.2853 5.8987 3.2853 9.0347 9.3333 3.2107 6.048 3.2107 14.56t-3.2107 14.635q-3.136 6.048-9.1093 9.3333-5.8987 3.2107-14.112 3.2107zm-7.9893-9.5573h7.392q7.84 0 11.872-4.256 4.1067-4.256 4.1067-13.365t-4.032-13.291q-4.032-4.256-11.872-4.256h-7.4667zm36.512 9.5573 18.517-54.357h14.635l19.04 54.357h-12.395l-4.1813-12.619h-19.264l-4.1067 12.619zm19.115-21.355h13.589l-1.6427-4.8533q-1.2693-4.1813-2.6133-9.0347-1.2693-4.8533-2.688-10.379-1.344 5.6-2.6133 10.453-1.2693 4.8533-2.464 8.96zm30.987-23.744v-9.2587h44.352v9.2587h-16.576v45.099h-11.2v-45.099zm42.187 45.099 18.517-54.357h14.635l19.04 54.357h-12.395l-4.1813-12.619h-19.264l-4.1067 12.619zm19.115-21.355h13.589l-1.6427-4.8533q-1.2693-4.1813-2.6133-9.0347-1.2693-4.8533-2.688-10.379-1.344 5.6-2.6133 10.453-1.2693 4.8533-2.464 8.96z" fill="#0f0" style="white-space:pre" aria-label="DATA"/>
  <path transform="matrix(.26458 0 0 .26458 -33.11 89.19)" d="m247.61 337.92-17.472-65.035h9.4827l17.472 65.035z" fill="#ff2a2a" style="white-space:pre" aria-label="\"/>
 </g>
</svg>
