<?xml version="1.0" encoding="UTF-8"?>
<svg width="256" height="256" enable-background="new 0 0 24.00 24.00" inkscape:version="1.4.3 (0d15f75042, 2025-12-25)" sodipodi:docname="devices.svg" version="1.1" viewBox="0 0 256 256" xmlns="http://www.w3.org/2000/svg" xmlns:inkscape="http://www.inkscape.org/namespaces/inkscape" xmlns:sodipodi="http://sodipodi.sourceforge.net/DTD/sodipodi-0.dtd">
 <sodipodi:namedview bordercolor="#666666" borderopacity="1.0" inkscape:current-layer="svg1" inkscape:cx="127.84198" inkscape:cy="113.77778" inkscape:deskcolor="#d1d1d1" inkscape:pagecheckerboard="0" inkscape:pageopacity="0.0" inkscape:showpageshadow="2" inkscape:window-height="1011" inkscape:window-maximized="1" inkscape:window-width="1920" inkscape:window-x="0" inkscape:window-y="0" inkscape:zoom="3.1640625" pagecolor="#ffffff"/>
 <path d="m256 89.6v-25.6h-25.6v-25.6c0-14.08-11.52-25.6-25.6-25.6h-179.2c-14.08 0-25.6 11.52-25.6 25.6v179.2c0 14.08 11.52 25.6 25.6 25.6h179.2c14.08 0 25.6-11.52 25.6-25.6v-25.6h25.6v-25.6h-25.6v-25.6h25.6v-25.6h-25.6v-25.6zm-51.2 128h-179.2v-179.2h179.2zm-153.6-76.8h64v51.2h-64zm76.8-76.8h51.2v38.4h-51.2zm-76.8 0h64v64h-64zm76.8 51.2h51.2v76.8h-51.2z" stroke-width="17.067"/>
</svg>
