<?xml version="1.0" encoding="UTF-8"?>
<!-- Created with Inkscape (http://www.inkscape.org/) -->
<svg width="141.55mm" height="150.81mm" version="1.1" viewBox="0 0 141.55 150.81" xmlns="http://www.w3.org/2000/svg">
 <g transform="translate(-26.458 -27.781)">
  <path d="m31.67 66.146h131.13c2.1544 0 3.8889 1.7344 3.8889 3.8889v84.826c0 2.1544-1.7344 3.8889-3.8889 3.8889h-131.13c-2.1544 0-3.8889-1.7344-3.8889-3.8889v-84.826c0-2.1544 1.7344-3.8889 3.8889-3.8889z" fill="#7f7f7f" stroke-linecap="round" stroke-width="7.1624" style="paint-order:stroke fill markers"/>
  <path transform="matrix(.26458 0 0 .26458 -.27517 6.6501)" d="m179.5 398.11v-116.48h77.92v19.84h-54.08v28.16h49.92v19.36h-49.92v29.28h54.24v19.84z" fill="#fff" style="white-space:pre" aria-label="E"/>
  <path transform="matrix(.26458 0 0 .26458 -2.5996 56.378)" d="m278.25 346.86v-69.888h27.264q11.904 0 18.432 6.24t6.528 16.512q0 7.2-3.264 12.288-3.168 5.088-9.12 7.584l14.88 27.264h-15.84l-13.344-24.96h-11.232v24.96zm14.304-36.48h10.272q12.864 0 12.864-10.656 0-5.28-3.168-8.064t-9.696-2.784h-10.272zm48.768 36.48v-69.888h46.752v11.904h-32.448v16.896h29.952v11.616h-29.952v17.568h32.544v11.904zm58.272 0v-69.888h21.888l11.424 32.064q0.672 2.208 1.536 5.856 0.864 3.552 1.824 7.68 0.96 4.032 1.824 7.872 0.768-3.744 1.728-7.872t1.824-7.68 1.632-5.856l11.136-32.064h21.984v69.888h-14.4v-32.928q0-2.688 0.096-6.72 0.192-4.128 0.288-8.736 0.096-4.704 0.192-9.12-1.248 4.704-2.496 9.408t-2.496 8.736q-1.152 3.936-2.016 6.432l-11.52 32.928h-12.096l-11.712-32.928q-0.864-2.4-2.016-6.24-1.056-3.84-2.4-8.448t-2.592-9.312q0.096 4.224 0.192 8.832 0.192 4.512 0.288 8.544 0.096 3.936 0.096 6.624v32.928z" fill="#fff" style="white-space:pre" aria-label="REM"/>
  <path transform="matrix(.26458 0 0 .26458 58.544 15.057)" d="m237.53 312.61-37.184 16.501v-10.453l25.312-10.304v-0.448l-25.312-10.304v-10.528l37.184 16.501zm13.216 8.8107v-9.184h36.363v9.184zm0-17.472v-9.184h36.363v9.184z" fill="#ff2a2a" style="white-space:pre" aria-label="&gt;="/>
  <path transform="matrix(.26458 0 0 .26458 -16.783 -25.163)" d="m168.43 284.68v-9.2587h44.352v9.2587h-16.576v45.099h-11.2v-45.099zm42.187 45.099 18.517-54.357h14.635l19.04 54.357h-12.395l-4.1813-12.619h-19.264l-4.1067 12.619zm19.115-21.355h13.589l-1.6427-4.8533q-1.2693-4.1813-2.6133-9.0347-1.2693-4.8533-2.688-10.379-1.344 5.6-2.6133 10.453-1.2693 4.8533-2.464 8.96zm39.797 21.355v-54.357h12.395l17.173 27.552q1.568 2.6133 3.2853 5.824t3.5093 7.4667q-0.29867-4.032-0.52267-8.064-0.14934-4.032-0.14934-6.6453v-26.133h11.349v54.357h-12.395l-15.605-24.939q-1.4933-2.464-2.7627-4.704-1.2693-2.3147-2.6133-4.928t-3.0613-5.9733q0.29867 4.8533 0.52267 9.0347 0.224 4.1067 0.224 6.5707v24.939z" fill="#0f0" style="white-space:pre" aria-label="TAN"/>
  <path transform="matrix(.26458 0 0 .26458 -63.684 89.931)" d="m345.7 329.78 18.517-54.357h14.635l19.04 54.357h-12.395l-4.1813-12.619h-19.264l-4.1067 12.619zm19.115-21.355h13.589l-1.6427-4.8533q-1.2693-4.1813-2.6133-9.0347-1.2693-4.8533-2.688-10.379-1.344 5.6-2.6133 10.453-1.2693 4.8533-2.464 8.96zm30.987-23.744v-9.2587h44.352v9.2587h-16.576v45.099h-11.2v-45.099zm51.968 45.099v-54.357h12.395l17.173 27.552q1.568 2.6133 3.2853 5.824t3.5093 7.4667q-0.29866-4.032-0.52266-8.064-0.14934-4.032-0.14934-6.6453v-26.133h11.349v54.357h-12.395l-15.605-24.939q-1.4933-2.464-2.7627-4.704-1.2693-2.3147-2.6133-4.928t-3.0613-5.9733q0.29867 4.8533 0.52267 9.0347 0.224 4.1067 0.224 6.5707v24.939z" fill="#ff2a2a" style="white-space:pre" aria-label="ATN"/>
 </g>
</svg>
