<?xml version="1.0" encoding="UTF-8"?>
<!-- Created with Inkscape (http://www.inkscape.org/) -->
<svg width="141.55mm" height="150.81mm" version="1.1" viewBox="0 0 141.55 150.81" xmlns="http://www.w3.org/2000/svg">
 <g transform="translate(-26.458 -27.781)">
  <path d="m31.67 66.146h131.13c2.1544 0 3.8889 1.7344 3.8889 3.8889v84.826c0 2.1544-1.7344 3.8889-3.8889 3.8889h-131.13c-2.1544 0-3.8889-1.7344-3.8889-3.8889v-84.826c0-2.1544 1.7344-3.8889 3.8889-3.8889z" fill="#7f7f7f" stroke-linecap="round" stroke-width="7.1624" style="paint-order:stroke fill markers"/>
  <path transform="matrix(.26458 0 0 .26458 6.0852 29.919)" d="m190.28 346.86v-69.888h46.752v11.904h-32.448v16.896h29.952v11.616h-29.952v17.568h32.544v11.904zm58.272 0v-69.888h15.936l22.08 35.424q2.016 3.36 4.224 7.488t4.512 9.6q-0.384-5.184-0.672-10.368-0.192-5.184-0.192-8.544v-33.6h14.592v69.888h-15.936l-20.064-32.064q-1.92-3.168-3.552-6.048-1.632-2.976-3.36-6.336t-3.936-7.68q0.384 6.24 0.672 11.616 0.288 5.28 0.288 8.448v32.064zm70.368-57.984v-11.904h57.024v11.904h-21.312v57.984h-14.4v-57.984zm66.816 57.984v-69.888h46.752v11.904h-32.448v16.896h29.952v11.616h-29.952v17.568h32.544v11.904zm58.272 0v-69.888h27.264q11.904 0 18.432 6.24t6.528 16.512q0 7.2-3.264 12.288-3.168 5.088-9.12 7.584l14.88 27.264h-15.84l-13.344-24.96h-11.232v24.96zm14.304-36.48h10.272q12.864 0 12.864-10.656 0-5.28-3.168-8.064t-9.696-2.784h-10.272z" fill="#fff" style="white-space:pre" aria-label="ENTER"/>
 </g>
</svg>
