<?xml version="1.0" encoding="UTF-8"?>
<!-- Created with Inkscape (http://www.inkscape.org/) -->
<svg width="141.55mm" height="151.18mm" version="1.1" viewBox="0 0 141.55 151.18" xmlns="http://www.w3.org/2000/svg">
 <g transform="translate(-26.458 -27.781)">
  <path d="m31.67 66.146h131.13c2.1544 0 3.8889 1.7344 3.8889 3.8889v84.826c0 2.1544-1.7344 3.8889-3.8889 3.8889h-131.13c-2.1544 0-3.8889-1.7344-3.8889-3.8889v-84.826c0-2.1544 1.7344-3.8889 3.8889-3.8889z" fill="#7f7f7f" stroke-linecap="round" stroke-width="7.1624" style="paint-order:stroke fill markers"/>
  <path transform="matrix(.26458 0 0 .26458 -.48685 6.6501)" d="m181.1 398.11v-116.48h76.48v19.84h-52.64v32.48h47.52v19.52h-47.52v44.64z" fill="#fff" style="white-space:pre" aria-label="F"/>
  <path transform="matrix(.26458 0 0 .26458 21.208 56.365)" d="m194.8 346.86v-69.888h45.888v11.904h-31.584v19.488h28.512v11.712h-28.512v26.784zm86.976 0.96q-9.216 0-16.608-4.224t-11.712-12.192q-4.224-8.064-4.224-19.392 0-11.424 4.224-19.392 4.32-8.064 11.712-12.288t16.608-4.224q9.312 0 16.608 4.224 7.392 4.224 11.712 12.288 4.32 7.968 4.32 19.392 0 11.328-4.32 19.392-4.32 7.968-11.712 12.192-7.296 4.224-16.608 4.224zm0-12.768q8.16 0 13.056-5.856 4.992-5.952 4.992-17.184 0-11.328-4.992-17.28-4.896-5.952-13.056-5.952-8.064 0-13.056 6.048-4.992 5.952-4.992 17.184 0 11.136 4.992 17.088t13.056 5.952zm43.392 11.808v-69.888h27.264q11.904 0 18.432 6.24t6.528 16.512q0 7.2-3.264 12.288-3.168 5.088-9.12 7.584l14.88 27.264h-15.84l-13.344-24.96h-11.232v24.96zm14.304-36.48h10.272q12.864 0 12.864-10.656 0-5.28-3.168-8.064t-9.696-2.784h-10.272z" fill="#fff" style="white-space:pre" aria-label="FOR"/>
  <path transform="matrix(.26458 0 0 .26458 58.672 16.499)" d="m193.85 284.68v-9.2587h44.352v9.2587h-16.576v45.099h-11.2v-45.099zm73.397 45.845q-7.168 0-12.917-3.2853-5.7493-3.2853-9.1093-9.4827-3.2853-6.272-3.2853-15.083 0-8.8853 3.2853-15.083 3.36-6.272 9.1093-9.5573t12.917-3.2853q7.2427 0 12.917 3.2853 5.7493 3.2853 9.1093 9.5573 3.36 6.1973 3.36 15.083 0 8.8107-3.36 15.083-3.36 6.1973-9.1093 9.4827-5.6747 3.2853-12.917 3.2853zm0-9.9307q6.3467 0 10.155-4.5547 3.8827-4.6293 3.8827-13.365 0-8.8107-3.8827-13.44-3.808-4.6293-10.155-4.6293-6.272 0-10.155 4.704-3.8827 4.6293-3.8827 13.365 0 8.6613 3.8827 13.291 3.8827 4.6293 10.155 4.6293z" fill="#ff2a2a" style="white-space:pre" aria-label="TO"/>
  <path transform="matrix(.26458 0 0 .26458 -29.006 -25.183)" d="m236.36 330.6q-9.856 0-15.755-4.48-5.824-4.5547-5.9733-13.216h10.827q0.224 4.1813 3.2107 6.272 3.0613 2.016 7.5413 2.016t7.168-1.9413q2.688-1.9413 2.688-5.0027 0-2.8373-2.464-4.3307-2.464-1.4933-6.8693-2.5387l-5.9733-1.4933q-6.8693-1.7173-10.827-5.3013-3.8827-3.584-3.8827-9.4827 0-4.928 2.6133-8.5867 2.688-3.7333 7.2427-5.7493 4.6293-2.016 10.528-2.016 6.048 0 10.528 2.0907 4.48 2.016 7.0187 5.6747t2.6133 8.4373h-10.827q-0.224-3.2853-2.7627-5.0773-2.464-1.792-6.6453-1.792-4.256 0-6.5707 1.792t-2.3147 4.48q0 3.0613 2.6133 4.5547t6.048 2.3147l4.928 1.1947q4.5547 1.0453 8.2133 3.0613 3.7333 1.9413 5.824 5.152 2.1653 3.136 2.1653 7.6907 0 7.392-5.5253 11.872-5.5253 4.4053-15.381 4.4053zm51.819-0.0747q-6.8693 0-12.395-3.36-5.5253-3.4347-8.736-9.632-3.2107-6.272-3.2107-14.859 0-8.736 3.2853-15.008 3.36-6.272 9.1093-9.5573 5.7493-3.36 12.917-3.36 6.1227 0 11.051 2.3147 5.0027 2.3147 8.1387 6.4213 3.2107 4.1067 3.9573 9.4827h-11.349q-1.12-3.8827-4.1067-6.1227t-7.5413-2.24q-6.272 0-10.229 4.704-3.9573 4.6293-3.9573 13.291 0 8.5867 3.8827 13.291 3.9573 4.704 10.603 4.704 5.6 0 8.8853-2.9867 3.2853-3.0613 3.584-8.288h-11.872v-8.512h22.624v28.971h-7.392l-1.344-11.947q-0.672 3.584-2.5387 6.496-1.8667 2.8373-5.152 4.5547-3.2853 1.6427-8.2133 1.6427zm33.899-0.74667v-54.357h12.395l17.173 27.552q1.568 2.6133 3.2853 5.824t3.5093 7.4667q-0.29866-4.032-0.52266-8.064-0.14934-4.032-0.14934-6.6453v-26.133h11.349v54.357h-12.395l-15.605-24.939q-1.4933-2.464-2.7627-4.704-1.2693-2.3147-2.6133-4.928t-3.0613-5.9733q0.29867 4.8533 0.52267 9.0347 0.224 4.1067 0.224 6.5707v24.939z" fill="#0f0" style="white-space:pre" aria-label="SGN"/>
  <path transform="matrix(.26458 0 0 .26458 -49.432 89.022)" d="m318.04 339.94q-4.032 0-7.3173-0.52267-3.2853-0.52266-5.7493-2.0907-2.3893-1.4933-3.7333-4.48-1.2693-2.912-1.2693-7.7653v-6.272q0-3.9573-1.6427-5.824-1.568-1.8667-5.6-1.9413h-0.89601v-9.9307h0.89601q4.032-0.14934 5.6-2.016 1.6427-1.8667 1.6427-5.7493v-6.3467q0-4.8533 1.2693-7.7653 1.344-2.9867 3.7333-4.48 2.464-1.568 5.7493-2.0907 3.2853-0.52267 7.3173-0.52267v8.288q-4.704 0-6.3467 1.8667-1.568 1.792-1.568 5.7493v7.9147q0 2.016-0.672 3.9573-0.672 1.8667-2.5387 3.36-1.792 1.4933-5.376 2.3893v0.74667q3.584 0.97067 5.376 2.464 1.8667 1.4933 2.5387 3.4347 0.672 1.8667 0.672 3.808v7.9147q0 3.9573 1.568 5.824 1.6427 1.8667 6.3467 1.8667z" fill="#ff2a2a" style="white-space:pre" aria-label="{"/>
 </g>
</svg>
