<?xml version="1.0" encoding="UTF-8"?>
<!-- Created with Inkscape (http://www.inkscape.org/) -->
<svg width="141.55mm" height="151.18mm" version="1.1" viewBox="0 0 141.55 151.18" xmlns="http://www.w3.org/2000/svg">
 <g transform="translate(-26.458 -27.781)">
  <path d="m31.67 66.146h131.13c2.1544 0 3.8889 1.7344 3.8889 3.8889v84.826c0 2.1544-1.7344 3.8889-3.8889 3.8889h-131.13c-2.1544 0-3.8889-1.7344-3.8889-3.8889v-84.826c0-2.1544 1.7344-3.8889 3.8889-3.8889z" fill="#7f7f7f" stroke-linecap="round" stroke-width="7.1624" style="paint-order:stroke fill markers"/>
  <path transform="matrix(.26458 0 0 .26458 .25402 6.6289)" d="m216.22 399.71q-14.72 0-26.56-7.2-11.84-7.36-18.72-20.64-6.88-13.44-6.88-31.84 0-18.72 7.04-32.16 7.2-13.44 19.52-20.48 12.32-7.2 27.68-7.2 13.12 0 23.68 4.96 10.72 4.96 17.44 13.76 6.88 8.8 8.48 20.32h-24.32q-2.4-8.32-8.8-13.12t-16.16-4.8q-13.44 0-21.92 10.08-8.48 9.92-8.48 28.48 0 18.4 8.32 28.48 8.48 10.08 22.72 10.08 12 0 19.04-6.4 7.04-6.56 7.68-17.76h-25.44v-18.24h48.48v62.08h-15.84l-2.88-25.6q-1.44 7.68-5.44 13.92-4 6.08-11.04 9.76-7.04 3.52-17.6 3.52z" fill="#fff" style="white-space:pre" aria-label="G"/>
  <path transform="matrix(.26458 0 0 .26458 24.911 56.365)" d="m169.62 347.82q-8.832 0-15.936-4.32-7.104-4.416-11.232-12.384-4.128-8.064-4.128-19.104 0-11.232 4.224-19.296 4.32-8.064 11.712-12.288 7.392-4.32 16.608-4.32 7.872 0 14.208 2.976 6.432 2.976 10.464 8.256 4.128 5.28 5.088 12.192h-14.592q-1.44-4.992-5.28-7.872t-9.696-2.88q-8.064 0-13.152 6.048-5.088 5.952-5.088 17.088 0 11.04 4.992 17.088 5.088 6.048 13.632 6.048 7.2 0 11.424-3.84 4.224-3.936 4.608-10.656h-15.264v-10.944h29.088v37.248h-9.504l-1.728-15.36q-0.864 4.608-3.264 8.352-2.4 3.648-6.624 5.856-4.224 2.112-10.56 2.112zm74.208 0q-9.216 0-16.608-4.224t-11.712-12.192q-4.224-8.064-4.224-19.392 0-11.424 4.224-19.392 4.32-8.064 11.712-12.288t16.608-4.224q9.312 0 16.608 4.224 7.392 4.224 11.712 12.288 4.32 7.968 4.32 19.392 0 11.328-4.32 19.392-4.32 7.968-11.712 12.192-7.296 4.224-16.608 4.224zm0-12.768q8.16 0 13.056-5.856 4.992-5.952 4.992-17.184 0-11.328-4.992-17.28-4.896-5.952-13.056-5.952-8.064 0-13.056 6.048-4.992 5.952-4.992 17.184 0 11.136 4.992 17.088t13.056 5.952zm37.536-46.176v-11.904h57.024v11.904h-21.312v57.984h-14.4v-57.984zm94.368 58.944q-9.216 0-16.608-4.224t-11.712-12.192q-4.224-8.064-4.224-19.392 0-11.424 4.224-19.392 4.32-8.064 11.712-12.288t16.608-4.224q9.312 0 16.608 4.224 7.392 4.224 11.712 12.288 4.32 7.968 4.32 19.392 0 11.328-4.32 19.392-4.32 7.968-11.712 12.192-7.296 4.224-16.608 4.224zm0-12.768q8.16 0 13.056-5.856 4.992-5.952 4.992-17.184 0-11.328-4.992-17.28-4.896-5.952-13.056-5.952-8.064 0-13.056 6.048-4.992 5.952-4.992 17.184 0 11.136 4.992 17.088t13.056 5.952z" fill="#fff" style="white-space:pre" aria-label="GOTO"/>
  <path transform="matrix(.26458 0 0 .26458 58.87 16.509)" d="m142.45 284.68v-9.2587h44.352v9.2587h-16.576v45.099h-11.2v-45.099zm51.968 45.099v-54.357h11.125v21.952h23.669v-21.952h11.125v54.357h-11.125v-23.147h-23.669v23.147zm55.776 0v-54.357h36.363v9.2587h-25.237v13.141h23.296v9.0347h-23.296v13.664h25.312v9.2587zm45.323 0v-54.357h12.395l17.173 27.552q1.568 2.6133 3.2853 5.824t3.5093 7.4667q-0.29866-4.032-0.52266-8.064-0.14934-4.032-0.14934-6.6453v-26.133h11.349v54.357h-12.395l-15.605-24.939q-1.4933-2.464-2.7627-4.704-1.2693-2.3147-2.6133-4.928t-3.0613-5.9733q0.29867 4.8533 0.52267 9.0347 0.224 4.1067 0.224 6.5707v24.939z" fill="#ff2a2a" style="white-space:pre" aria-label="THEN"/>
  <path transform="matrix(.26458 0 0 .26458 -16.753 -25.183)" d="m168.32 329.78 18.517-54.357h14.635l19.04 54.357h-12.395l-4.1813-12.619h-19.264l-4.1067 12.619zm19.115-21.355h13.589l-1.6427-4.8533q-1.2693-4.1813-2.6133-9.0347-1.2693-4.8533-2.688-10.379-1.344 5.6-2.6133 10.453-1.2693 4.8533-2.464 8.96zm39.797 21.355v-54.357h21.504q8.96 0 13.44 3.9573 4.5547 3.9573 4.5547 10.005 0 4.8533-2.8373 7.84-2.7627 2.912-6.944 3.8827v0.52266q3.0613 0.14934 5.7493 1.792 2.7627 1.568 4.4053 4.48 1.7173 2.912 1.7173 6.8693 0 4.3307-2.1653 7.7653-2.0907 3.36-6.272 5.3013-4.1067 1.9413-10.229 1.9413zm11.125-9.184h9.632q4.928 0 7.168-1.8667t2.24-5.0027q0-3.36-2.464-5.6t-6.6453-2.24h-9.9307zm0-22.325h8.8107q3.5093 0 5.8987-1.8667 2.3893-1.9413 2.3893-5.2267 0-2.912-2.0907-4.7787t-6.048-1.8667h-8.96zm58.24 32.331q-9.856 0-15.755-4.48-5.824-4.5547-5.9733-13.216h10.827q0.224 4.1813 3.2107 6.272 3.0613 2.016 7.5413 2.016t7.168-1.9413 2.688-5.0027q0-2.8373-2.464-4.3307-2.464-1.4933-6.8693-2.5387l-5.9733-1.4933q-6.8693-1.7173-10.827-5.3013-3.8827-3.584-3.8827-9.4827 0-4.928 2.6133-8.5867 2.688-3.7333 7.2427-5.7493 4.6293-2.016 10.528-2.016 6.048 0 10.528 2.0907 4.48 2.016 7.0187 5.6747t2.6133 8.4373h-10.827q-0.224-3.2853-2.7627-5.0773-2.464-1.792-6.6453-1.792-4.256 0-6.5707 1.792t-2.3147 4.48q0 3.0613 2.6133 4.5547 2.6133 1.4933 6.048 2.3147l4.928 1.1947q4.5547 1.0453 8.2133 3.0613 3.7333 1.9413 5.824 5.152 2.1653 3.136 2.1653 7.6907 0 7.392-5.5253 11.872-5.5253 4.4053-15.381 4.4053z" fill="#0f0" style="white-space:pre" aria-label="ABS"/>
  <path transform="matrix(.26458 0 0 .26458 -33.022 89.022)" d="m229.81 339.94v-8.2133q4.704 0 6.272-1.8667 1.6427-1.8667 1.6427-5.824v-7.9147q0-1.9413 0.672-3.808 0.672-1.9413 2.464-3.4347 1.8667-1.4933 5.4507-2.3893v-0.82134q-3.584-0.896-5.4507-2.3893-1.792-1.4933-2.464-3.36-0.672-1.9413-0.672-3.9573v-7.9147q0-3.8827-1.6427-5.7493-1.568-1.8667-6.272-1.8667v-8.288q4.032 0 7.3173 0.52267t5.6747 2.0907q2.464 1.4933 3.7333 4.48 1.344 2.912 1.344 7.7653v6.3467q0 4.032 1.7173 5.8987 1.792 1.8667 6.272 1.8667h0.0747v9.856q-4.5547 0.0747-6.3467 1.9413-1.7173 1.792-1.7173 5.8987v6.272q0 4.8533-1.344 7.7653-1.2693 2.9867-3.7333 4.48-2.3893 1.568-5.6747 2.0907-3.2853 0.52267-7.3173 0.52267z" fill="#ff2a2a" style="white-space:pre" aria-label="}"/>
 </g>
</svg>
