<?xml version="1.0" encoding="UTF-8"?>
<!-- Created with Inkscape (http://www.inkscape.org/) -->
<svg width="141.55mm" height="150.81mm" version="1.1" viewBox="0 0 141.55 150.81" xmlns="http://www.w3.org/2000/svg">
 <g transform="translate(-26.458 -27.781)">
  <path d="m31.67 66.146h131.13c2.1544 0 3.8889 1.7344 3.8889 3.8889v84.826c0 2.1544-1.7344 3.8889-3.8889 3.8889h-131.13c-2.1544 0-3.8889-1.7344-3.8889-3.8889v-84.826c0-2.1544 1.7344-3.8889 3.8889-3.8889z" fill="#7f7f7f" stroke-linecap="round" stroke-width="7.1624" style="paint-order:stroke fill markers"/>
  <path transform="matrix(.26458 0 0 .26458 2.6323e-6 6.6501)" d="m168.3 398.11v-116.48h23.84v47.04h50.72v-47.04h23.84v116.48h-23.84v-49.6h-50.72v49.6z" fill="#fff" style="white-space:pre" aria-label="H"/>
  <path transform="matrix(.26458 0 0 .26458 -2.6885 56.352)" d="m241.2 347.82q-8.832 0-15.936-4.32-7.104-4.416-11.232-12.384-4.128-8.064-4.128-19.104 0-11.232 4.224-19.296 4.32-8.064 11.712-12.288 7.392-4.32 16.608-4.32 7.872 0 14.208 2.976 6.432 2.976 10.464 8.256 4.128 5.28 5.088 12.192h-14.592q-1.44-4.992-5.28-7.872t-9.696-2.88q-8.064 0-13.152 6.048-5.088 5.952-5.088 17.088 0 11.04 4.992 17.088 5.088 6.048 13.632 6.048 7.2 0 11.424-3.84 4.224-3.936 4.608-10.656h-15.264v-10.944h29.088v37.248h-9.504l-1.728-15.36q-0.864 4.608-3.264 8.352-2.4 3.648-6.624 5.856-4.224 2.112-10.56 2.112zm74.208 0q-9.216 0-16.608-4.224t-11.712-12.192q-4.224-8.064-4.224-19.392 0-11.424 4.224-19.392 4.32-8.064 11.712-12.288t16.608-4.224q9.312 0 16.608 4.224 7.392 4.224 11.712 12.288 4.32 7.968 4.32 19.392 0 11.328-4.32 19.392-4.32 7.968-11.712 12.192-7.296 4.224-16.608 4.224zm0-12.768q8.16 0 13.056-5.856 4.992-5.952 4.992-17.184 0-11.328-4.992-17.28-4.896-5.952-13.056-5.952-8.064 0-13.056 6.048-4.992 5.952-4.992 17.184 0 11.136 4.992 17.088t13.056 5.952zm69.024 12.864q-12.672 0-20.256-5.76-7.488-5.856-7.68-16.992h13.92q0.288 5.376 4.128 8.064 3.936 2.592 9.696 2.592t9.216-2.496 3.456-6.432q0-3.648-3.168-5.568t-8.832-3.264l-7.68-1.92q-8.832-2.208-13.92-6.816-4.992-4.608-4.992-12.192 0-6.336 3.36-11.04 3.456-4.8 9.312-7.392 5.952-2.592 13.536-2.592 7.776 0 13.536 2.688 5.76 2.592 9.024 7.296t3.36 10.848h-13.92q-0.288-4.224-3.552-6.528-3.168-2.304-8.544-2.304-5.472 0-8.448 2.304t-2.976 5.76q0 3.936 3.36 5.856t7.776 2.976l6.336 1.536q5.856 1.344 10.56 3.936 4.8 2.496 7.488 6.624 2.784 4.032 2.784 9.888 0 9.504-7.104 15.264-7.104 5.664-19.776 5.664zm66.048-0.096q-8.736 0-15.168-3.168t-10.08-8.928q-3.552-5.76-3.552-13.344v-45.408h14.304v44.16q0 6.144 3.936 10.08t10.56 3.936 10.56-3.936 3.936-10.08v-44.16h14.4v45.408q0 7.584-3.648 13.344t-10.176 8.928q-6.432 3.168-15.072 3.168zm41.472-0.96v-69.888h27.648q11.52 0 17.28 5.088 5.856 5.088 5.856 12.864 0 6.24-3.648 10.08-3.552 3.744-8.928 4.992v0.672q3.936 0.192 7.392 2.304 3.552 2.016 5.664 5.76 2.208 3.744 2.208 8.832 0 5.568-2.784 9.984-2.688 4.32-8.064 6.816-5.28 2.496-13.152 2.496zm14.304-11.808h12.384q6.336 0 9.216-2.4t2.88-6.432q0-4.32-3.168-7.2t-8.544-2.88h-12.768zm0-28.704h11.328q4.512 0 7.584-2.4 3.072-2.496 3.072-6.72 0-3.744-2.688-6.144t-7.776-2.4h-11.52z" fill="#fff" style="white-space:pre" aria-label="GOSUB"/>
  <path transform="matrix(.26458 0 0 .26458 58.574 16.637)" d="m217.19 300.89 26.432-26.432 26.432 26.432-5.9733 5.9733-8.512-8.4373q-2.0907-2.1653-4.48-5.0773-2.3147-2.912-4.1813-5.4507 0.37334 2.0907 0.672 4.48 0.37334 2.3147 0.37334 4.256v33.152h-8.736v-33.152q0-1.9413 0.29867-4.3307 0.37333-2.3893 0.74667-4.48-1.9413 2.688-4.3307 5.6747-2.3147 2.912-4.3307 4.928l-8.4373 8.4373z" fill="#ff2a2a" style="white-space:pre" aria-label="↑"/>
  <path transform="matrix(.26458 0 0 .26458 -16.862 -25.677)" d="m190.46 330.6q-9.856 0-15.755-4.48-5.824-4.5547-5.9733-13.216h10.827q0.224 4.1813 3.2107 6.272 3.0613 2.016 7.5413 2.016t7.168-1.9413 2.688-5.0027q0-2.8373-2.464-4.3307-2.464-1.4933-6.8693-2.5387l-5.9733-1.4933q-6.8693-1.7173-10.827-5.3013-3.8827-3.584-3.8827-9.4827 0-4.928 2.6133-8.5867 2.688-3.7333 7.2427-5.7493 4.6293-2.016 10.528-2.016 6.048 0 10.528 2.0907 4.48 2.016 7.0187 5.6747t2.6133 8.4373h-10.827q-0.224-3.2853-2.7627-5.0773-2.464-1.792-6.6453-1.792-4.256 0-6.5707 1.792t-2.3147 4.48q0 3.0613 2.6133 4.5547 2.6133 1.4933 6.048 2.3147l4.928 1.1947q4.5547 1.0453 8.2133 3.0613 3.7333 1.9413 5.824 5.152 2.1653 3.136 2.1653 7.6907 0 7.392-5.5253 11.872-5.5253 4.4053-15.381 4.4053zm52.789-0.0747q-7.168 0-12.917-3.2853-5.7493-3.2853-9.1093-9.4827-3.2853-6.272-3.2853-15.083 0-8.8853 3.2853-15.083 3.36-6.272 9.1093-9.5573t12.917-3.2853q7.2427 0 12.917 3.2853 5.7493 3.2853 9.1093 9.5573 3.36 6.1973 3.36 15.083 0 7.168-2.3147 12.693-2.24 5.4507-6.1973 9.0347l7.84 9.9307h-10.379l-4.48-5.6q-4.5547 1.792-9.856 1.792zm-3.4347-19.413h9.5573l3.9573 5.0773q1.8667-2.24 2.912-5.6747t1.0453-7.84q0-8.8107-3.8827-13.44-3.808-4.6293-10.155-4.6293-6.272 0-10.155 4.704-3.8827 4.6293-3.8827 13.365 0 8.6613 3.8827 13.291 3.8827 4.6293 10.155 4.6293 1.8667 0 3.5093-0.37333zm37.632 18.667v-54.357h21.205q9.2587 0 14.336 4.8533t5.0773 12.843q0 5.6-2.5387 9.5573-2.464 3.9573-7.0933 5.8987l11.573 21.205h-12.32l-10.379-19.413h-8.736v19.413zm11.125-28.373h7.9893q10.005 0 10.005-8.288 0-4.1067-2.464-6.272t-7.5413-2.1653h-7.9893z" fill="#0f0" style="white-space:pre" aria-label="SQR"/>
  <path transform="matrix(.26458 0 0 .26458 -49.272 89.921)" d="m316.46 330.53q-7.2427 0-12.992-3.2853-5.6747-3.2853-8.96-9.4827-3.2853-6.272-3.2853-15.083 0-8.8853 3.2853-15.083 3.36-6.272 9.0347-9.5573 5.7493-3.2853 12.917-3.2853 6.1227 0 11.125 2.3147 5.0027 2.24 8.2133 6.5707 3.2107 4.256 4.032 10.379h-11.275q-0.74666-4.4053-4.032-6.8693-3.2107-2.5387-7.84-2.5387-6.3467 0-10.304 4.704-3.8827 4.704-3.8827 13.365 0 8.8107 3.8827 13.365 3.9573 4.5547 10.229 4.5547 4.6293 0 7.9147-2.464 3.2853-2.464 4.032-6.944h11.275q-0.59733 5.0773-3.584 9.4827-2.912 4.4053-7.9147 7.168-5.0027 2.688-11.872 2.688zm42.635-55.104v54.357h-11.125v-54.357zm9.856 54.357v-54.357h21.205q9.2587 0 14.336 4.8533t5.0773 12.843q0 5.6-2.5387 9.5573-2.464 3.9573-7.0933 5.8987l11.573 21.205h-12.32l-10.379-19.413h-8.736v19.413zm11.125-28.373h7.9893q10.005 0 10.005-8.288 0-4.1067-2.464-6.272t-7.5413-2.1653h-7.9893zm61.675 29.12q-7.2427 0-12.992-3.2853-5.6747-3.2853-8.96-9.4827-3.2853-6.272-3.2853-15.083 0-8.8853 3.2853-15.083 3.36-6.272 9.0347-9.5573 5.7493-3.2853 12.917-3.2853 6.1227 0 11.125 2.3147 5.0027 2.24 8.2133 6.5707 3.2107 4.256 4.032 10.379h-11.275q-0.74667-4.4053-4.032-6.8693-3.2107-2.5387-7.84-2.5387-6.3467 0-10.304 4.704-3.8827 4.704-3.8827 13.365 0 8.8107 3.8827 13.365 3.9573 4.5547 10.229 4.5547 4.6293 0 7.9147-2.464 3.2853-2.464 4.032-6.944h11.275q-0.59733 5.0773-3.584 9.4827-2.912 4.4053-7.9147 7.168-5.0027 2.688-11.872 2.688zm31.509-0.74667v-54.357h11.125v45.099h23.445v9.2587zm42.187 0v-54.357h36.363v9.2587h-25.237v13.141h23.296v9.0347h-23.296v13.664h25.312v9.2587z" fill="#ff2a2a" style="white-space:pre" aria-label="CIRCLE"/>
 </g>
</svg>
