<?xml version="1.0" encoding="UTF-8"?>
<!-- Created with Inkscape (http://www.inkscape.org/) -->
<svg width="141.55mm" height="151.34mm" version="1.1" viewBox="0 0 141.55 151.34" xmlns="http://www.w3.org/2000/svg">
 <g transform="translate(-26.458 -27.781)">
  <path d="m31.67 66.146h131.13c2.1544 0 3.8889 1.7344 3.8889 3.8889v84.826c0 2.1544-1.7344 3.8889-3.8889 3.8889h-131.13c-2.1544 0-3.8889-1.7344-3.8889-3.8889v-84.826c0-2.1544 1.7344-3.8889 3.8889-3.8889z" fill="#7f7f7f" stroke-linecap="round" stroke-width="7.1624" style="paint-order:stroke fill markers"/>
  <path transform="matrix(.26458 0 0 .26458 .67733 6.4384)" d="m215.1 399.71q-18.08 0-28.64-9.44-10.4-9.6-10.4-27.2v-6.72h23.84v7.2q0 8.32 4 12.64 4.16 4.32 11.2 4.32 6.88 0 10.88-4.32 4.16-4.32 4.16-12.8v-81.76h23.68v81.44q0 17.6-10.4 27.2-10.24 9.44-28.32 9.44z" fill="#fff" style="white-space:pre" aria-label="J"/>
  <path transform="matrix(.26458 0 0 .26458 27.85 56.365)" d="m136.34 346.86v-69.888h14.304v57.984h30.144v11.904zm82.176 0.96q-9.216 0-16.608-4.224t-11.712-12.192q-4.224-8.064-4.224-19.392 0-11.424 4.224-19.392 4.32-8.064 11.712-12.288t16.608-4.224q9.312 0 16.608 4.224 7.392 4.224 11.712 12.288 4.32 7.968 4.32 19.392 0 11.328-4.32 19.392-4.32 7.968-11.712 12.192-7.296 4.224-16.608 4.224zm0-12.768q8.16 0 13.056-5.856 4.992-5.952 4.992-17.184 0-11.328-4.992-17.28-4.896-5.952-13.056-5.952-8.064 0-13.056 6.048-4.992 5.952-4.992 17.184 0 11.136 4.992 17.088t13.056 5.952zm35.328 11.808 23.808-69.888h18.816l24.48 69.888h-15.936l-5.376-16.224h-24.768l-5.28 16.224zm24.576-27.456h17.472l-2.112-6.24q-1.632-5.376-3.36-11.616-1.632-6.24-3.456-13.344-1.728 7.2-3.36 13.44t-3.168 11.52zm75.744 27.456h-24.576v-69.888h24.768q10.56 0 18.048 4.224 7.584 4.224 11.616 12 4.128 7.776 4.128 18.72t-4.128 18.816q-4.032 7.776-11.712 12-7.584 4.128-18.144 4.128zm-10.272-12.288h9.504q10.08 0 15.264-5.472 5.28-5.472 5.28-17.184t-5.184-17.088q-5.184-5.472-15.264-5.472h-9.6z" fill="#fff" style="white-space:pre" aria-label="LOAD"/>
  <path transform="matrix(.26458 0 0 .26458 58.593 15.235)" d="m255.9 303.05v8.736h-24.715v-8.736z" fill="#ff2a2a" style="white-space:pre" aria-label="-"/>
  <path transform="matrix(.26458 0 0 .26458 -17.583 -25.163)" d="m190.49 329.78-19.04-54.357h12.32l8.736 26.283q1.2693 4.032 2.5387 8.8107 1.344 4.7787 2.7627 10.304 1.4187-5.5253 2.6133-10.229 1.2693-4.7787 2.5387-8.8853l8.3627-26.283h12.32l-18.592 54.357zm30.837 0 18.517-54.357h14.635l19.04 54.357h-12.395l-4.1813-12.619h-19.264l-4.1067 12.619zm19.115-21.355h13.589l-1.6427-4.8533q-1.2693-4.1813-2.6133-9.0347-1.2693-4.8533-2.688-10.379-1.344 5.6-2.6133 10.453-1.2693 4.8533-2.464 8.96zm39.797 21.355v-54.357h11.125v45.099h23.445v9.2587z" fill="#0f0" style="white-space:pre" aria-label="VAL"/>
  <path transform="matrix(.26458 0 0 .26458 -11.113 89.931)" d="m166.04 329.78-19.04-54.357h12.32l8.736 26.283q1.2693 4.032 2.5387 8.8107 1.344 4.7787 2.7627 10.304 1.4187-5.5253 2.6133-10.229 1.2693-4.7787 2.5387-8.8853l8.3627-26.283h12.32l-18.592 54.357zm30.837 0 18.517-54.357h14.635l19.04 54.357h-12.395l-4.1813-12.619h-19.264l-4.1067 12.619zm19.115-21.355h13.589l-1.6427-4.8533q-1.2693-4.1813-2.6133-9.0347-1.2693-4.8533-2.688-10.379-1.344 5.6-2.6133 10.453-1.2693 4.8533-2.464 8.96zm39.797 21.355v-54.357h11.125v45.099h23.445v9.2587zm59.883 7.3173v-6.5707q-8.8107-0.52267-14.112-4.928-5.2267-4.48-5.376-12.693h10.827q0.224 3.6587 2.5387 5.6747 2.3893 2.016 6.1227 2.464v-14.336l-3.36-0.82134q-6.8693-1.7173-10.827-5.3013-3.8827-3.584-3.8827-9.4827 0-4.6293 2.3147-8.064 2.3147-3.5093 6.3467-5.6 4.1067-2.1653 9.408-2.6133v-6.72h4.3307v6.72q5.5253 0.29866 9.4827 2.464 4.032 2.1653 6.272 5.6747 2.3147 3.4347 2.3893 7.9893h-10.827q-0.224-2.8373-2.1653-4.5547-1.8667-1.7173-5.152-2.1653v13.589l2.6133 0.59733q4.5547 1.0453 8.2133 3.0613 3.7333 1.9413 5.824 5.152 2.1653 3.136 2.1653 7.6907 0 7.0187-4.928 11.349t-13.888 4.8533v6.5707zm4.3307-16.053q3.5093-0.52266 5.5253-2.3147 2.0907-1.792 2.0907-4.48 0-2.5387-2.016-3.9573-1.9413-1.4187-5.6-2.464zm-4.3307-24.341v-12.469q-3.2107 0.448-4.928 2.1653-1.7173 1.6427-1.7173 3.9573 0 2.6133 1.9413 4.032t4.704 2.3147z" fill="#ff2a2a" style="white-space:pre" aria-label="VAL$"/>
 </g>
</svg>
