<?xml version="1.0" encoding="UTF-8"?>
<!-- Created with Inkscape (http://www.inkscape.org/) -->
<svg width="141.55mm" height="151.34mm" version="1.1" viewBox="0 0 141.55 151.34" xmlns="http://www.w3.org/2000/svg">
 <g transform="translate(-26.458 -27.781)">
  <path d="m31.67 66.146h131.13c2.1544 0 3.8889 1.7344 3.8889 3.8889v84.826c0 2.1544-1.7344 3.8889-3.8889 3.8889h-131.13c-2.1544 0-3.8889-1.7344-3.8889-3.8889v-84.826c0-2.1544 1.7344-3.8889 3.8889-3.8889z" fill="#7f7f7f" stroke-linecap="round" stroke-width="7.1624" style="paint-order:stroke fill markers"/>
  <path transform="matrix(.26458 0 0 .26458 -.86784 6.6501)" d="m170.54 398.11v-116.48h23.84v31.84l-0.48 26.56q3.84-6.08 8.16-12t10.08-12.96l28.48-33.44h29.28l-43.52 50.4 44.64 66.08h-28.16l-32.96-50.24-15.52 16.96v33.28z" fill="#fff" style="white-space:pre" aria-label="K"/>
  <path transform="matrix(.26458 0 0 .26458 -2.9806 56.352)" d="m279.93 346.86v-69.888h14.304v57.984h30.144v11.904zm68.544-69.888v69.888h-14.304v-69.888zm38.304 70.944q-12.672 0-20.256-5.76-7.488-5.856-7.68-16.992h13.92q0.288 5.376 4.128 8.064 3.936 2.592 9.696 2.592t9.216-2.496 3.456-6.432q0-3.648-3.168-5.568t-8.832-3.264l-7.68-1.92q-8.832-2.208-13.92-6.816-4.992-4.608-4.992-12.192 0-6.336 3.36-11.04 3.456-4.8 9.312-7.392 5.952-2.592 13.536-2.592 7.776 0 13.536 2.688 5.76 2.592 9.024 7.296t3.36 10.848h-13.92q-0.288-4.224-3.552-6.528-3.168-2.304-8.544-2.304-5.472 0-8.448 2.304t-2.976 5.76q0 3.936 3.36 5.856t7.776 2.976l6.336 1.536q5.856 1.344 10.56 3.936 4.8 2.496 7.488 6.624 2.784 4.032 2.784 9.888 0 9.504-7.104 15.264-7.104 5.664-19.776 5.664zm33.792-59.04v-11.904h57.024v11.904h-21.312v57.984h-14.4v-57.984z" fill="#fff" style="white-space:pre" aria-label="LIST"/>
  <path transform="matrix(.26458 0 0 .26458 58.584 15.057)" d="m238.92 326.8v-14.336h-14.037v-8.736h14.037v-14.336h9.2587v14.336h14.112v8.736h-14.112v14.336z" fill="#ff2a2a" style="white-space:pre" aria-label="+"/>
  <path transform="matrix(.26458 0 0 .26458 -18.867 -25.163)" d="m176.31 329.78v-54.357h11.125v45.099h23.445v9.2587zm42.187 0v-54.357h36.363v9.2587h-25.237v13.141h23.296v9.0347h-23.296v13.664h25.312v9.2587zm45.323 0v-54.357h12.395l17.173 27.552q1.568 2.6133 3.2853 5.824t3.5093 7.4667q-0.29867-4.032-0.52267-8.064-0.14933-4.032-0.14933-6.6453v-26.133h11.349v54.357h-12.395l-15.605-24.939q-1.4933-2.464-2.7627-4.704-1.2693-2.3147-2.6133-4.928t-3.0613-5.9733q0.29867 4.8533 0.52267 9.0347 0.224 4.1067 0.224 6.5707v24.939z" fill="#0f0" style="white-space:pre" aria-label="LEN"/>
  <path transform="matrix(.26458 0 0 .26458 -38.397 89.931)" d="m271.85 330.6q-9.856 0-15.755-4.48-5.824-4.5547-5.9733-13.216h10.827q0.224 4.1813 3.2107 6.272 3.0613 2.016 7.5413 2.016t7.168-1.9413 2.688-5.0027q0-2.8373-2.464-4.3307-2.464-1.4933-6.8693-2.5387l-5.9733-1.4933q-6.8693-1.7173-10.827-5.3013-3.8827-3.584-3.8827-9.4827 0-4.928 2.6133-8.5867 2.688-3.7333 7.2427-5.7493 4.6293-2.016 10.528-2.016 6.048 0 10.528 2.0907 4.48 2.016 7.0187 5.6747t2.6133 8.4373h-10.827q-0.224-3.2853-2.7627-5.0773-2.464-1.792-6.6453-1.792-4.256 0-6.5707 1.792t-2.3147 4.48q0 3.0613 2.6133 4.5547 2.6133 1.4933 6.048 2.3147l4.928 1.1947q4.5547 1.0453 8.2133 3.0613 3.7333 1.9413 5.824 5.152 2.1653 3.136 2.1653 7.6907 0 7.392-5.5253 11.872-5.5253 4.4053-15.381 4.4053zm52.715-0.0747q-7.2427 0-12.992-3.2853-5.6747-3.2853-8.96-9.4827-3.2853-6.272-3.2853-15.083 0-8.8853 3.2853-15.083 3.36-6.272 9.0347-9.5573 5.7493-3.2853 12.917-3.2853 6.1227 0 11.125 2.3147 5.0027 2.24 8.2133 6.5707 3.2107 4.256 4.032 10.379h-11.275q-0.74667-4.4053-4.032-6.8693-3.2107-2.5387-7.84-2.5387-6.3467 0-10.304 4.704-3.8827 4.704-3.8827 13.365 0 8.8107 3.8827 13.365 3.9573 4.5547 10.229 4.5547 4.6293 0 7.9147-2.464 3.2853-2.464 4.032-6.944h11.275q-0.59734 5.0773-3.584 9.4827-2.912 4.4053-7.9147 7.168-5.0027 2.688-11.872 2.688zm31.509-0.74667v-54.357h21.205q9.2587 0 14.336 4.8533t5.0773 12.843q0 5.6-2.5387 9.5573-2.464 3.9573-7.0933 5.8987l11.573 21.205h-12.32l-10.379-19.413h-8.736v19.413zm11.125-28.373h7.9893q10.005 0 10.005-8.288 0-4.1067-2.464-6.272t-7.5413-2.1653h-7.9893zm37.931 28.373v-54.357h36.363v9.2587h-25.237v13.141h23.296v9.0347h-23.296v13.664h25.312v9.2587zm45.323 0v-54.357h36.363v9.2587h-25.237v13.141h23.296v9.0347h-23.296v13.664h25.312v9.2587zm45.323 0v-54.357h12.395l17.173 27.552q1.568 2.6133 3.2853 5.824t3.5093 7.4667q-0.29866-4.032-0.52266-8.064-0.14934-4.032-0.14934-6.6453v-26.133h11.349v54.357h-12.395l-15.605-24.939q-1.4933-2.464-2.7627-4.704-1.2693-2.3147-2.6133-4.928t-3.0613-5.9733q0.29867 4.8533 0.52267 9.0347 0.224 4.1067 0.224 6.5707v24.939zm74.592 7.3173v-6.5707q-8.8107-0.52267-14.112-4.928-5.2267-4.48-5.376-12.693h10.827q0.224 3.6587 2.5387 5.6747 2.3893 2.016 6.1227 2.464v-14.336l-3.36-0.82134q-6.8693-1.7173-10.827-5.3013-3.8827-3.584-3.8827-9.4827 0-4.6293 2.3147-8.064 2.3147-3.5093 6.3467-5.6 4.1067-2.1653 9.408-2.6133v-6.72h4.3307v6.72q5.5253 0.29866 9.4827 2.464 4.032 2.1653 6.272 5.6747 2.3147 3.4347 2.3893 7.9893h-10.827q-0.224-2.8373-2.1653-4.5547-1.8667-1.7173-5.152-2.1653v13.589l2.6133 0.59733q4.5547 1.0453 8.2133 3.0613 3.7333 1.9413 5.824 5.152 2.1653 3.136 2.1653 7.6907 0 7.0187-4.928 11.349t-13.888 4.8533v6.5707zm4.3307-16.053q3.5093-0.52266 5.5253-2.3147 2.0907-1.792 2.0907-4.48 0-2.5387-2.016-3.9573-1.9413-1.4187-5.6-2.464zm-4.3307-24.341v-12.469q-3.2107 0.448-4.928 2.1653-1.7173 1.6427-1.7173 3.9573 0 2.6133 1.9413 4.032t4.704 2.3147z" fill="#ff2a2a" style="white-space:pre" aria-label="SCREEN$"/>
 </g>
</svg>
