<?xml version="1.0" encoding="UTF-8"?>
<!-- Created with Inkscape (http://www.inkscape.org/) -->
<svg width="141.55mm" height="150.81mm" version="1.1" viewBox="0 0 141.55 150.81" xmlns="http://www.w3.org/2000/svg">
 <g transform="translate(-26.458 -27.781)">
  <path d="m31.67 66.146h131.13c2.1544 0 3.8889 1.7344 3.8889 3.8889v84.826c0 2.1544-1.7344 3.8889-3.8889 3.8889h-131.13c-2.1544 0-3.8889-1.7344-3.8889-3.8889v-84.826c0-2.1544 1.7344-3.8889 3.8889-3.8889z" fill="#7f7f7f" stroke-linecap="round" stroke-width="7.1624" style="paint-order:stroke fill markers"/>
  <path transform="matrix(.26458 0 0 .26458 -.63497 6.6501)" d="m182.86 398.11v-116.48h23.84v96.64h50.24v19.84z" fill="#fff" style="white-space:pre" aria-label="L"/>
  <path transform="matrix(.26458 0 0 .26458 21.398 56.378)" d="m203.25 346.86v-69.888h14.304v57.984h30.144v11.904zm54.24 0v-69.888h46.752v11.904h-32.448v16.896h29.952v11.616h-29.952v17.568h32.544v11.904zm55.488-57.984v-11.904h57.024v11.904h-21.312v57.984h-14.4v-57.984z" fill="#fff" style="white-space:pre" aria-label="LET"/>
  <path transform="matrix(.26458 0 0 .26458 58.584 15.057)" d="m225.4 321.42v-9.184h36.363v9.184zm0-17.472v-9.184h36.363v9.184z" fill="#ff2a2a" style="white-space:pre" aria-label="="/>
  <path transform="matrix(.26458 0 0 .26458 -30.794 -25.183)" d="m243.79 330.53q-6.7947 0-11.797-2.464-5.0027-2.464-7.84-6.944-2.7627-4.48-2.7627-10.379v-35.317h11.125v34.347q0 4.7787 3.0613 7.84t8.2133 3.0613 8.2133-3.0613q3.0613-3.0613 3.0613-7.84v-34.347h11.2v35.317q0 5.8987-2.8373 10.379-2.8373 4.48-7.9147 6.944-5.0027 2.464-11.723 2.464zm52.192 0.0747q-9.856 0-15.755-4.48-5.824-4.5547-5.9733-13.216h10.827q0.224 4.1813 3.2107 6.272 3.0613 2.016 7.5413 2.016t7.168-1.9413 2.688-5.0027q0-2.8373-2.464-4.3307-2.464-1.4933-6.8693-2.5387l-5.9733-1.4933q-6.8693-1.7173-10.827-5.3013-3.8827-3.584-3.8827-9.4827 0-4.928 2.6133-8.5867 2.688-3.7333 7.2427-5.7493 4.6293-2.016 10.528-2.016 6.048 0 10.528 2.0907 4.48 2.016 7.0187 5.6747t2.6133 8.4373h-10.827q-0.224-3.2853-2.7627-5.0773-2.464-1.792-6.6453-1.792-4.256 0-6.5707 1.792t-2.3147 4.48q0 3.0613 2.6133 4.5547 2.6133 1.4933 6.048 2.3147l4.928 1.1947q4.5547 1.0453 8.2133 3.0613 3.7333 1.9413 5.824 5.152 2.1653 3.136 2.1653 7.6907 0 7.392-5.5253 11.872-5.5253 4.4053-15.381 4.4053zm28.971-0.82133v-54.357h21.205q9.2587 0 14.336 4.8533t5.0773 12.843q0 5.6-2.5387 9.5573-2.464 3.9573-7.0933 5.8987l11.573 21.205h-12.32l-10.379-19.413h-8.736v19.413zm11.125-28.373h7.9893q10.005 0 10.005-8.288 0-4.1067-2.464-6.272t-7.5413-2.1653h-7.9893z" fill="#0f0" style="white-space:pre" aria-label="USR"/>
  <path transform="matrix(.26458 0 0 .26458 -27.029 89.931)" d="m207.16 329.78 18.517-54.357h14.635l19.04 54.357h-12.395l-4.1813-12.619h-19.264l-4.1067 12.619zm19.115-21.355h13.589l-1.6427-4.8533q-1.2693-4.1813-2.6133-9.0347-1.2693-4.8533-2.688-10.379-1.344 5.6-2.6133 10.453-1.2693 4.8533-2.464 8.96zm30.987-23.744v-9.2587h44.352v9.2587h-16.576v45.099h-11.2v-45.099zm49.803 0v-9.2587h44.352v9.2587h-16.576v45.099h-11.2v-45.099zm51.968 45.099v-54.357h21.205q9.2587 0 14.336 4.8533t5.0773 12.843q0 5.6-2.5387 9.5573-2.464 3.9573-7.0933 5.8987l11.573 21.205h-12.32l-10.379-19.413h-8.736v19.413zm11.125-28.373h7.9893q10.005 0 10.005-8.288 0-4.1067-2.464-6.272t-7.5413-2.1653h-7.9893z" fill="#ff2a2a" style="white-space:pre" aria-label="ATTR"/>
 </g>
</svg>
