<?xml version="1.0" encoding="UTF-8"?>
<!-- Created with Inkscape (http://www.inkscape.org/) -->
<svg width="141.55mm" height="150.81mm" version="1.1" viewBox="0 0 141.55 150.81" xmlns="http://www.w3.org/2000/svg">
 <g transform="translate(-26.458 -27.781)">
  <path d="m31.67 66.146h131.13c2.1544 0 3.8889 1.7344 3.8889 3.8889v84.826c0 2.1544-1.7344 3.8889-3.8889 3.8889h-131.13c-2.1544 0-3.8889-1.7344-3.8889-3.8889v-84.826c0-2.1544 1.7344-3.8889 3.8889-3.8889z" fill="#7f7f7f" stroke-linecap="round" stroke-width="7.1624" style="paint-order:stroke fill markers"/>
  <path transform="matrix(.26458 0 0 .26458 2.6323e-6 6.6501)" d="m153.5 398.11v-116.48h36.48l19.04 53.44q1.12 3.68 2.56 9.76 1.44 5.92 3.04 12.8 1.6 6.72 3.04 13.12 1.28-6.24 2.88-13.12t3.04-12.8 2.72-9.76l18.56-53.44h36.64v116.48h-24v-54.88q0-4.48 0.16-11.2 0.32-6.88 0.48-14.56 0.16-7.84 0.32-15.2-2.08 7.84-4.16 15.68t-4.16 14.56q-1.92 6.56-3.36 10.72l-19.2 54.88h-20.16l-19.52-54.88q-1.44-4-3.36-10.4-1.76-6.4-4-14.08t-4.32-15.52q0.16 7.04 0.32 14.72 0.32 7.52 0.48 14.24 0.16 6.56 0.16 11.04v54.88z" fill="#fff" style="white-space:pre" aria-label="M"/>
  <path transform="matrix(.26458 0 0 .26458 21.892 56.352)" d="m132.74 346.86v-69.888h27.264q7.968 0 13.536 3.072 5.568 2.976 8.448 8.352 2.976 5.28 2.976 12.192t-2.976 12.192-8.64 8.256-13.728 2.976h-12.576v22.848zm14.304-34.368h10.272q6.624 0 9.696-3.264 3.168-3.36 3.168-8.64t-3.168-8.448q-3.072-3.264-9.696-3.264h-10.272zm35.904 34.368 23.808-69.888h18.816l24.48 69.888h-15.936l-5.376-16.224h-24.768l-5.28 16.224zm24.576-27.456h17.472l-2.112-6.24q-1.632-5.376-3.36-11.616-1.632-6.24-3.456-13.344-1.728 7.2-3.36 13.44t-3.168 11.52zm78.048 28.416q-8.736 0-15.168-3.168t-10.08-8.928q-3.552-5.76-3.552-13.344v-45.408h14.304v44.16q0 6.144 3.936 10.08t10.56 3.936 10.56-3.936 3.936-10.08v-44.16h14.4v45.408q0 7.584-3.648 13.344t-10.176 8.928q-6.432 3.168-15.072 3.168zm67.104 0.096q-12.672 0-20.256-5.76-7.488-5.856-7.68-16.992h13.92q0.288 5.376 4.128 8.064 3.936 2.592 9.696 2.592t9.216-2.496 3.456-6.432q0-3.648-3.168-5.568t-8.832-3.264l-7.68-1.92q-8.832-2.208-13.92-6.816-4.992-4.608-4.992-12.192 0-6.336 3.36-11.04 3.456-4.8 9.312-7.392 5.952-2.592 13.536-2.592 7.776 0 13.536 2.688 5.76 2.592 9.024 7.296t3.36 10.848h-13.92q-0.288-4.224-3.552-6.528-3.168-2.304-8.544-2.304-5.472 0-8.448 2.304t-2.976 5.76q0 3.936 3.36 5.856t7.776 2.976l6.336 1.536q5.856 1.344 10.56 3.936 4.8 2.496 7.488 6.624 2.784 4.032 2.784 9.888 0 9.504-7.104 15.264-7.104 5.664-19.776 5.664zm37.248-1.056v-69.888h46.752v11.904h-32.448v16.896h29.952v11.616h-29.952v17.568h32.544v11.904z" fill="#fff" style="white-space:pre" aria-label="PAUSE"/>
  <path transform="matrix(.26458 0 0 .26458 58.584 10.8)" d="m243.58 330.45q-2.688 0-4.48-1.792t-1.792-4.48q0-2.6133 1.792-4.4053 1.792-1.8667 4.48-1.8667t4.48 1.8667q1.792 1.792 1.792 4.4053 0 2.688-1.792 4.48t-4.48 1.792z" fill="#ff2a2a" style="white-space:pre" aria-label="."/>
  <path transform="matrix(.26458 0 0 .26458 -28.794 -25.163)" d="m213.83 329.78v-54.357h21.205q6.1973 0 10.528 2.3893 4.3307 2.3147 6.5707 6.496 2.3147 4.1067 2.3147 9.4827t-2.3147 9.4827q-2.3147 4.1067-6.72 6.4213-4.4053 2.3147-10.677 2.3147h-9.7813v17.771zm11.125-26.731h7.9893q5.152 0 7.5413-2.5387 2.464-2.6133 2.464-6.72t-2.464-6.5707q-2.3893-2.5387-7.5413-2.5387h-7.9893zm48.384-27.627v54.357h-11.125v-54.357z" fill="#0f0" style="white-space:pre" aria-label="PI"/>
  <path transform="matrix(.26458 0 0 .26458 -20.028 89.911)" d="m191.82 275.43v54.357h-11.125v-54.357zm9.856 54.357v-54.357h12.395l17.173 27.552q1.568 2.6133 3.2853 5.824t3.5093 7.4667q-0.29867-4.032-0.52267-8.064-0.14933-4.032-0.14933-6.6453v-26.133h11.349v54.357h-12.395l-15.605-24.939q-1.4933-2.464-2.7627-4.704-1.2693-2.3147-2.6133-4.928t-3.0613-5.9733q0.29866 4.8533 0.52266 9.0347 0.224 4.1067 0.224 6.5707v24.939zm72.8 0-19.04-54.357h12.32l8.736 26.283q1.2693 4.032 2.5387 8.8107 1.344 4.7787 2.7627 10.304 1.4187-5.5253 2.6133-10.229 1.2693-4.7787 2.5387-8.8853l8.3627-26.283h12.32l-18.592 54.357zm39.872 0v-54.357h36.363v9.2587h-25.237v13.141h23.296v9.0347h-23.296v13.664h25.312v9.2587zm45.323 0v-54.357h21.205q9.2587 0 14.336 4.8533t5.0773 12.843q0 5.6-2.5387 9.5573-2.464 3.9573-7.0933 5.8987l11.573 21.205h-12.32l-10.379-19.413h-8.736v19.413zm11.125-28.373h7.9893q10.005 0 10.005-8.288 0-4.1067-2.464-6.272t-7.5413-2.1653h-7.9893zm57.867 29.195q-9.856 0-15.755-4.48-5.824-4.5547-5.9733-13.216h10.827q0.224 4.1813 3.2107 6.272 3.0613 2.016 7.5413 2.016t7.168-1.9413 2.688-5.0027q0-2.8373-2.464-4.3307-2.464-1.4933-6.8693-2.5387l-5.9733-1.4933q-6.8693-1.7173-10.827-5.3013-3.8827-3.584-3.8827-9.4827 0-4.928 2.6133-8.5867 2.688-3.7333 7.2427-5.7493 4.6293-2.016 10.528-2.016 6.048 0 10.528 2.0907 4.48 2.016 7.0187 5.6747t2.6133 8.4373h-10.827q-0.224-3.2853-2.7627-5.0773-2.464-1.792-6.6453-1.792-4.256 0-6.5707 1.792t-2.3147 4.48q0 3.0613 2.6133 4.5547 2.6133 1.4933 6.048 2.3147l4.928 1.1947q4.5547 1.0453 8.2133 3.0613 3.7333 1.9413 5.824 5.152 2.1653 3.136 2.1653 7.6907 0 7.392-5.5253 11.872-5.5253 4.4053-15.381 4.4053zm28.971-0.82133v-54.357h36.363v9.2587h-25.237v13.141h23.296v9.0347h-23.296v13.664h25.312v9.2587z" fill="#ff2a2a" style="white-space:pre" aria-label="INVERSE"/>
 </g>
</svg>
