<?xml version="1.0" encoding="UTF-8"?>
<!-- Created with Inkscape (http://www.inkscape.org/) -->
<svg width="256" height="256" inkscape:version="1.4.3 (0d15f75042, 2025-12-25)" sodipodi:docname="mouse.svg" version="1.1" viewBox="0 0 67.733 67.733" xmlns="http://www.w3.org/2000/svg" xmlns:inkscape="http://www.inkscape.org/namespaces/inkscape" xmlns:sodipodi="http://sodipodi.sourceforge.net/DTD/sodipodi-0.dtd">
 <sodipodi:namedview bordercolor="#666666" borderopacity="1.0" inkscape:current-layer="svg2" inkscape:cx="900.13515" inkscape:cy="218.44284" inkscape:deskcolor="#d1d1d1" inkscape:pagecheckerboard="0" inkscape:pageopacity="0.0" inkscape:showpageshadow="2" inkscape:window-height="1011" inkscape:window-maximized="1" inkscape:window-width="1920" inkscape:window-x="0" inkscape:window-y="0" inkscape:zoom="0.13275784" pagecolor="#ffffff" showguides="true">
  <sodipodi:guide inkscape:locked="false" orientation="1,0" position="11.372893,59.531258"/>
  <sodipodi:guide inkscape:locked="false" orientation="1,0" position="57.847268,56.429656"/>
 </sodipodi:namedview>
 <g transform="matrix(1 0 0 .98488 -.67549 9.884)">
  <path d="m11.934 12.677c-0.83726 0.49194-0.46562 1.5189-0.54437 2.2893 0.03917 9.9156-0.01401 19.832 0.11231 29.747 0.04329 1.8368 0.58545 3.6352 1.2411 5.3531 1.4692 3.7086 4.5116 7.0284 8.5875 8.2259 1.8708 0.60224 3.8718 0.33907 5.8078 0.42252 6.2997 0.01359 12.601 0.0658 18.9-0.05893 3.5283-0.32168 6.5553-2.5085 8.5613-5.1771 1.7623-2.3617 2.7618-5.1935 3.1157-8.0515 0.15013-5.0823 0.07348-10.169 0.10972-15.253-0.0032-5.574 0.04572-11.154 9e-3 -16.724-0.04885-0.74289-0.9157-0.98004-1.579-0.87934h-43.859c-0.15383 0.03532-0.30766 0.07063-0.46149 0.10595z" vector-effect="non-scaling-stroke" style="-inkscape-stroke:hairline;paint-order:stroke fill markers"/>
  <path d="m42.721-9.9837c1.8663 0.063448 3.7524-0.095183 5.6041 0.21955 3.3868 0.8589 6.0895 3.7614 7.5968 7.1458 1.173 2.5752 1.7528 5.4523 1.768 8.3323-0.03928 0.82347 0.18898 1.7106-0.08388 2.4878-0.45463 0.77853-1.3883 0.40645-2.0831 0.49288-5.8774-0.0129-11.76 0.02577-17.634-0.01932-0.68749-0.04868-0.90617-0.89137-0.81316-1.5362 0.01166-5.4166-0.02325-10.839 0.01743-16.252 0.04422-0.76465 0.80803-1.0063 1.3909-0.89811 1.4124 0.0092 2.8247 0.018373 4.2371 0.027559z" vector-effect="non-scaling-stroke" style="-inkscape-stroke:hairline;paint-order:stroke fill markers"/>
  <path d="m26.258-9.9837c-1.8663 0.063448-3.7524-0.095183-5.6041 0.21955-3.3868 0.8589-6.0895 3.7614-7.5968 7.1458-1.173 2.5752-1.7528 5.4523-1.768 8.3323 0.03928 0.82347-0.18898 1.7106 0.08388 2.4878 0.45463 0.77853 1.3883 0.40645 2.0831 0.49288 5.8774-0.0129 11.76 0.02577 17.634-0.01932 0.68749-0.04868 0.90617-0.89137 0.81316-1.5362-0.01166-5.4166 0.02325-10.839-0.01743-16.252-0.04422-0.76465-0.80803-1.0063-1.3909-0.89811-1.4124 0.0092-2.8247 0.018373-4.2371 0.027559z" vector-effect="non-scaling-stroke" style="-inkscape-stroke:hairline;paint-order:stroke fill markers"/>
 </g>
</svg>
