<?xml version="1.0" encoding="UTF-8"?>
<!-- Created with Inkscape (http://www.inkscape.org/) -->
<svg width="141.55mm" height="150.81mm" version="1.1" viewBox="0 0 141.55 150.81" xmlns="http://www.w3.org/2000/svg">
 <g transform="translate(-26.458 -27.781)">
  <path d="m31.67 66.146h131.13c2.1544 0 3.8889 1.7344 3.8889 3.8889v84.826c0 2.1544-1.7344 3.8889-3.8889 3.8889h-131.13c-2.1544 0-3.8889-1.7344-3.8889-3.8889v-84.826c0-2.1544 1.7344-3.8889 3.8889-3.8889z" fill="#7f7f7f" stroke-linecap="round" stroke-width="7.1624" style="paint-order:stroke fill markers"/>
  <path transform="matrix(.26458 0 0 .26458 2.6323e-6 6.6501)" d="m167.1 398.11v-116.48h26.56l36.8 59.04q3.36 5.6 7.04 12.48t7.52 16q-0.64-8.64-1.12-17.28-0.32-8.64-0.32-14.24v-56h24.32v116.48h-26.56l-33.44-53.44q-3.2-5.28-5.92-10.08-2.72-4.96-5.6-10.56t-6.56-12.8q0.64 10.4 1.12 19.36 0.48 8.8 0.48 14.08v53.44z" fill="#fff" style="white-space:pre" aria-label="N"/>
  <path transform="matrix(.26458 0 0 .26458 -2.9806 56.378)" d="m252.43 346.86v-69.888h15.936l22.08 35.424q2.016 3.36 4.224 7.488t4.512 9.6q-0.384-5.184-0.672-10.368-0.192-5.184-0.192-8.544v-33.6h14.592v69.888h-15.936l-20.064-32.064q-1.92-3.168-3.552-6.048-1.632-2.976-3.36-6.336t-3.936-7.68q0.384 6.24 0.672 11.616 0.288 5.28 0.288 8.448v32.064zm73.152 0v-69.888h46.752v11.904h-32.448v16.896h29.952v11.616h-29.952v17.568h32.544v11.904zm54.336 0 25.056-35.712-22.848-34.176h16.608l7.68 11.808q2.4 3.744 3.84 6.72 1.44 2.88 2.88 5.664 1.344-2.784 2.88-5.664 1.536-2.976 3.936-6.72l7.776-11.808h16.224l-22.656 33.792 24.672 36.096h-16.896l-9.696-14.592q-2.496-3.744-3.84-6.048-1.248-2.4-2.592-4.992-1.344 2.592-2.688 4.992-1.248 2.304-3.744 6.048l-10.08 14.592zm68.16-57.984v-11.904h57.024v11.904h-21.312v57.984h-14.4v-57.984z" fill="#fff" style="white-space:pre" aria-label="NEXT"/>
  <path transform="matrix(.26458 0 0 .26458 58.801 9.2685)" d="m238.43 341.8-1.568-4.3307q3.7333-1.4187 5.4507-3.36 1.792-1.8667 2.24-4.6293-1.0453 0.896-2.6133 0.896-2.5387 0-4.256-1.7173t-1.7173-4.3307q0-2.7627 1.8667-4.48t4.704-1.7173q2.9867 0 5.0027 2.016 2.016 1.9413 2.016 5.824 0 5.7493-2.688 9.7067-2.688 3.9573-8.4373 6.1227z" fill="#ff2a2a" style="white-space:pre" aria-label=","/>
  <path transform="matrix(.26458 0 0 .26458 -20.942 -25.163)" d="m195.27 275.43v54.357h-11.125v-54.357zm9.856 54.357v-54.357h12.395l17.173 27.552q1.568 2.6133 3.2853 5.824t3.5093 7.4667q-0.29867-4.032-0.52267-8.064-0.14933-4.032-0.14933-6.6453v-26.133h11.349v54.357h-12.395l-15.605-24.939q-1.4933-2.464-2.7627-4.704-1.2693-2.3147-2.6133-4.928t-3.0613-5.9733q0.29866 4.8533 0.52266 9.0347 0.224 4.1067 0.224 6.5707v24.939zm74.592 0v-54.357h11.125v14.859l-0.224 12.395q1.792-2.8373 3.808-5.6t4.704-6.048l13.291-15.605h13.664l-20.309 23.52 20.832 30.837h-13.141l-15.381-23.445-7.2427 7.9147v15.531zm53.685 0v-54.357h36.363v9.2587h-25.237v13.141h23.296v9.0347h-23.296v13.664h25.312v9.2587zm62.272 0v-20.384l-20.085-33.973h12.992l9.184 16.949q1.0453 1.8667 1.8667 3.6587 0.896 1.792 1.7173 3.9573 0.74667-2.1653 1.568-3.9573 0.82134-1.8667 1.792-3.6587l8.8853-16.949h12.992l-19.787 33.973v20.384zm55.328 7.3173v-6.5707q-8.8107-0.52267-14.112-4.928-5.2267-4.48-5.376-12.693h10.827q0.224 3.6587 2.5387 5.6747 2.3893 2.016 6.1227 2.464v-14.336l-3.36-0.82134q-6.8693-1.7173-10.827-5.3013-3.8827-3.584-3.8827-9.4827 0-4.6293 2.3147-8.064 2.3147-3.5093 6.3467-5.6 4.1067-2.1653 9.408-2.6133v-6.72h4.3307v6.72q5.5253 0.29866 9.4827 2.464 4.032 2.1653 6.272 5.6747 2.3147 3.4347 2.3893 7.9893h-10.827q-0.224-2.8373-2.1653-4.5547-1.8667-1.7173-5.152-2.1653v13.589l2.6133 0.59733q4.5547 1.0453 8.2133 3.0613 3.7333 1.9413 5.824 5.152 2.1653 3.136 2.1653 7.6907 0 7.0187-4.928 11.349-4.928 4.3307-13.888 4.8533v6.5707zm4.3307-16.053q3.5093-0.52266 5.5253-2.3147 2.0907-1.792 2.0907-4.48 0-2.5387-2.016-3.9573-1.9413-1.4187-5.6-2.464zm-4.3307-24.341v-12.469q-3.2107 0.448-4.928 2.1653-1.7173 1.6427-1.7173 3.9573 0 2.6133 1.9413 4.032t4.704 2.3147z" fill="#0f0" style="white-space:pre" aria-label="IN KEY$"/>
  <path transform="matrix(.26458 0 0 .26458 -57.649 89.921)" d="m348.2 330.53q-7.168 0-12.917-3.2853-5.7493-3.2853-9.1093-9.4827-3.2853-6.272-3.2853-15.083 0-8.8853 3.2853-15.083 3.36-6.272 9.1093-9.5573t12.917-3.2853q7.2427 0 12.917 3.2853 5.7493 3.2853 9.1093 9.5573 3.36 6.1973 3.36 15.083 0 8.8107-3.36 15.083-3.36 6.1973-9.1093 9.4827-5.6747 3.2853-12.917 3.2853zm0-9.9307q6.3467 0 10.155-4.5547 3.8827-4.6293 3.8827-13.365 0-8.8107-3.8827-13.44-3.808-4.6293-10.155-4.6293-6.272 0-10.155 4.704-3.8827 4.6293-3.8827 13.365 0 8.6613 3.8827 13.291 3.8827 4.6293 10.155 4.6293zm46.667 9.184-19.04-54.357h12.32l8.736 26.283q1.2693 4.032 2.5387 8.8107 1.344 4.7787 2.7627 10.304 1.4187-5.5253 2.6133-10.229 1.2693-4.7787 2.5387-8.8853l8.3627-26.283h12.32l-18.592 54.357zm39.872 0v-54.357h36.363v9.2587h-25.237v13.141h23.296v9.0347h-23.296v13.664h25.312v9.2587zm45.323 0v-54.357h21.205q9.2587 0 14.336 4.8533t5.0773 12.843q0 5.6-2.5387 9.5573-2.464 3.9573-7.0933 5.8987l11.573 21.205h-12.32l-10.379-19.413h-8.736v19.413zm11.125-28.373h7.9893q10.005 0 10.005-8.288 0-4.1067-2.464-6.272t-7.5413-2.1653h-7.9893z" fill="#ff2a2a" style="white-space:pre" aria-label="OVER"/>
 </g>
</svg>
