<?xml version="1.0" encoding="UTF-8"?>
<!-- Created with Inkscape (http://www.inkscape.org/) -->
<svg id="svg1" width="141.55mm" height="150.81mm" version="1.1" viewBox="0 0 141.55 150.81" xml:space="preserve" xmlns="http://www.w3.org/2000/svg"><g id="layer1" transform="translate(-26.458 -27.781)"><path id="rect1" d="m31.67 66.146h131.13c2.1544 0 3.8889 1.7344 3.8889 3.8889v84.826c0 2.1544-1.7344 3.8889-3.8889 3.8889h-131.13c-2.1544 0-3.8889-1.7344-3.8889-3.8889v-84.826c0-2.1544 1.7344-3.8889 3.8889-3.8889z" fill="#7f7f7f" stroke-linecap="round" stroke-width="7.1624" style="paint-order:stroke fill markers"/><path id="text8" transform="matrix(.26458 0 0 .26458 2.6323e-6 6.6289)" d="m217.42 399.71q-15.36 0-27.68-7.04t-19.52-20.32q-7.04-13.44-7.04-32.32 0-19.04 7.04-32.32 7.2-13.44 19.52-20.48t27.68-7.04q15.52 0 27.68 7.04 12.32 7.04 19.52 20.48 7.2 13.28 7.2 32.32 0 18.88-7.2 32.32-7.2 13.28-19.52 20.32-12.16 7.04-27.68 7.04zm0-21.28q13.6 0 21.76-9.76 8.32-9.92 8.32-28.64 0-18.88-8.32-28.8-8.16-9.92-21.76-9.92-13.44 0-21.76 10.08-8.32 9.92-8.32 28.64 0 18.56 8.32 28.48t21.76 9.92z" fill="#fff" style="white-space:pre" aria-label="O"/><path id="text10" transform="matrix(.26458 0 0 .26458 21.614 56.365)" d="m159.76 346.86v-69.888h27.264q7.968 0 13.536 3.072 5.568 2.976 8.448 8.352 2.976 5.28 2.976 12.192t-2.976 12.192-8.64 8.256-13.728 2.976h-12.576v22.848zm14.304-34.368h10.272q6.624 0 9.696-3.264 3.168-3.36 3.168-8.64t-3.168-8.448q-3.072-3.264-9.696-3.264h-10.272zm78.528 35.328q-9.216 0-16.608-4.224t-11.712-12.192q-4.224-8.064-4.224-19.392 0-11.424 4.224-19.392 4.32-8.064 11.712-12.288t16.608-4.224q9.312 0 16.608 4.224 7.392 4.224 11.712 12.288 4.32 7.968 4.32 19.392 0 11.328-4.32 19.392-4.32 7.968-11.712 12.192-7.296 4.224-16.608 4.224zm0-12.768q8.16 0 13.056-5.856 4.992-5.952 4.992-17.184 0-11.328-4.992-17.28-4.896-5.952-13.056-5.952-8.064 0-13.056 6.048-4.992 5.952-4.992 17.184 0 11.136 4.992 17.088t13.056 5.952zm43.392 11.808v-69.888h14.304v19.104l-0.288 15.936q2.304-3.648 4.896-7.2t6.048-7.776l17.088-20.064h17.568l-26.112 30.24 26.784 39.648h-16.896l-19.776-30.144-9.312 10.176v19.968zm69.024 0v-69.888h46.752v11.904h-32.448v16.896h29.952v11.616h-29.952v17.568h32.544v11.904z" fill="#fff" style="white-space:pre" aria-label="POKE"/><path id="text11" transform="matrix(.26458 0 0 .26458 58.672 12.874)" d="m238.43 341.8-1.568-4.3307q3.7333-1.4187 5.4507-3.36 1.792-1.8667 2.24-4.6293-1.0453 0.896-2.6133 0.896-2.5387 0-4.256-1.7173-1.7173-1.7173-1.7173-4.3307 0-2.7627 1.8667-4.48 1.8667-1.7173 4.704-1.7173 2.9867 0 5.0027 2.016 2.016 1.9413 2.016 5.824 0 5.7493-2.688 9.7067-2.688 3.9573-8.4373 6.1227zm5.824-38.379q-2.688 0-4.48-1.792t-1.792-4.48q0-2.6133 1.792-4.4053 1.792-1.8667 4.48-1.8667 2.688 0 4.48 1.8667 1.792 1.792 1.792 4.4053 0 2.688-1.792 4.48t-4.48 1.792z" fill="#ff2a2a" style="white-space:pre" aria-label=";"/><path id="text9" transform="matrix(.26458 0 0 .26458 -25.489 -25.163)" d="m201.34 329.78v-54.357h21.205q6.1973 0 10.528 2.3893 4.3307 2.3147 6.5707 6.496 2.3147 4.1067 2.3147 9.4827t-2.3147 9.4827-6.72 6.4213q-4.4053 2.3147-10.677 2.3147h-9.7813v17.771zm11.125-26.731h7.9893q5.152 0 7.5413-2.5387 2.464-2.6133 2.464-6.72t-2.464-6.5707q-2.3893-2.5387-7.5413-2.5387h-7.9893zm37.259 26.731v-54.357h36.363v9.2587h-25.237v13.141h23.296v9.0347h-23.296v13.664h25.312v9.2587zm45.323 0v-54.357h36.363v9.2587h-25.237v13.141h23.296v9.0347h-23.296v13.664h25.312v9.2587zm45.323 0v-54.357h11.125v14.859l-0.224 12.395q1.792-2.8373 3.808-5.6 2.016-2.7627 4.704-6.048l13.291-15.605h13.664l-20.309 23.52 20.832 30.837h-13.141l-15.381-23.445-7.2427 7.9147v15.531z" fill="#0f0" style="white-space:pre" aria-label="PEEK"/><path id="text14" transform="matrix(.26458 0 0 .26458 -32.195 89.921)" d="m251.99 330.53q-7.168 0-12.917-3.2853-5.7493-3.2853-9.1093-9.4827-3.2853-6.272-3.2853-15.083 0-8.8853 3.2853-15.083 3.36-6.272 9.1093-9.5573 5.7493-3.2853 12.917-3.2853 7.2427 0 12.917 3.2853 5.7493 3.2853 9.1093 9.5573 3.36 6.1973 3.36 15.083 0 8.8107-3.36 15.083-3.36 6.1973-9.1093 9.4827-5.6747 3.2853-12.917 3.2853zm0-9.9307q6.3467 0 10.155-4.5547 3.8827-4.6293 3.8827-13.365 0-8.8107-3.8827-13.44-3.808-4.6293-10.155-4.6293-6.272 0-10.155 4.704-3.8827 4.6293-3.8827 13.365 0 8.6613 3.8827 13.291 3.8827 4.6293 10.155 4.6293zm56.149 9.9307q-6.7947 0-11.797-2.464-5.0027-2.464-7.84-6.944-2.7627-4.48-2.7627-10.379v-35.317h11.125v34.347q0 4.7787 3.0613 7.84 3.0613 3.0613 8.2133 3.0613 5.152 0 8.2133-3.0613 3.0613-3.0613 3.0613-7.84v-34.347h11.2v35.317q0 5.8987-2.8373 10.379-2.8373 4.48-7.9147 6.944-5.0027 2.464-11.723 2.464zm30.091-45.845v-9.2587h44.352v9.2587h-16.576v45.099h-11.2v-45.099z" fill="#ff2a2a" style="white-space:pre" aria-label="OUT"/></g></svg>
