<?xml version="1.0" encoding="UTF-8"?>
<!-- Created with Inkscape (http://www.inkscape.org/) -->
<svg id="svg1" width="141.55mm" height="150.81mm" version="1.1" viewBox="0 0 141.55 150.81" xmlns="http://www.w3.org/2000/svg">
 <g id="layer1" transform="translate(-26.458 -27.781)">
  <path id="rect1" d="m31.67 66.146h131.13c2.1544 0 3.8889 1.7344 3.8889 3.8889v84.826c0 2.1544-1.7344 3.8889-3.8889 3.8889h-131.13c-2.1544 0-3.8889-1.7344-3.8889-3.8889v-84.826c0-2.1544 1.7344-3.8889 3.8889-3.8889z" fill="#7f7f7f" stroke-linecap="round" stroke-width="7.1624" style="paint-order:stroke fill markers"/>
  <path id="text8" transform="matrix(.26458 0 0 .26458 -.59266 6.6501)" d="m176.22 398.11v-116.48h45.44q13.28 0 22.56 5.12 9.28 4.96 14.08 13.92 4.96 8.8 4.96 20.32t-4.96 20.32-14.4 13.76-22.88 4.96h-20.96v38.08zm23.84-57.28h17.12q11.04 0 16.16-5.44 5.28-5.6 5.28-14.4t-5.28-14.08q-5.12-5.44-16.16-5.44h-17.12z" fill="#fff" style="white-space:pre" aria-label="P"/>
  <path id="text10" transform="matrix(.26458 0 0 .26458 24.85 56.378)" d="m133.75 346.86v-69.888h27.264q7.968 0 13.536 3.072 5.568 2.976 8.448 8.352 2.976 5.28 2.976 12.192t-2.976 12.192-8.64 8.256-13.728 2.976h-12.576v22.848zm14.304-34.368h10.272q6.624 0 9.696-3.264 3.168-3.36 3.168-8.64t-3.168-8.448q-3.072-3.264-9.696-3.264h-10.272zm47.904 34.368v-69.888h27.264q11.904 0 18.432 6.24t6.528 16.512q0 7.2-3.264 12.288-3.168 5.088-9.12 7.584l14.88 27.264h-15.84l-13.344-24.96h-11.232v24.96zm14.304-36.48h10.272q12.864 0 12.864-10.656 0-5.28-3.168-8.064t-9.696-2.784h-10.272zm63.072-33.408v69.888h-14.304v-69.888zm12.672 69.888v-69.888h15.936l22.08 35.424q2.016 3.36 4.224 7.488t4.512 9.6q-0.384-5.184-0.672-10.368-0.192-5.184-0.192-8.544v-33.6h14.592v69.888h-15.936l-20.064-32.064q-1.92-3.168-3.552-6.048-1.632-2.976-3.36-6.336t-3.936-7.68q0.384 6.24 0.672 11.616 0.288 5.28 0.288 8.448v32.064zm70.368-57.984v-11.904h57.024v11.904h-21.312v57.984h-14.4v-57.984z" fill="#fff" style="white-space:pre" aria-label="PRINT"/>
  <path id="text11" transform="matrix(.26458 0 0 .26458 58.584 20.707)" d="m231.49 298.05-1.12-22.624h10.528l-1.12 22.624zm15.904 0-1.12-22.624h10.528l-1.12 22.624z" fill="#ff2a2a" style="white-space:pre" aria-label='"'/>
  <path id="text9" transform="matrix(.26458 0 0 .26458 -17.77 -25.163)" d="m172.16 284.68v-9.2587h44.352v9.2587h-16.576v45.099h-11.2v-45.099zm42.187 45.099 18.517-54.357h14.635l19.04 54.357h-12.395l-4.1813-12.619h-19.264l-4.1067 12.619zm19.115-21.355h13.589l-1.6427-4.8533q-1.2693-4.1813-2.6133-9.0347-1.2693-4.8533-2.688-10.379-1.344 5.6-2.6133 10.453-1.2693 4.8533-2.464 8.96zm39.797 21.355v-54.357h21.504q8.96 0 13.44 3.9573 4.5547 3.9573 4.5547 10.005 0 4.8533-2.8373 7.84-2.7627 2.912-6.944 3.8827v0.52266q3.0613 0.14934 5.7493 1.792 2.7627 1.568 4.4053 4.48 1.7173 2.912 1.7173 6.8693 0 4.3307-2.1653 7.7653-2.0907 3.36-6.272 5.3013-4.1067 1.9413-10.229 1.9413zm11.125-9.184h9.632q4.928 0 7.168-1.8667 2.24-1.8667 2.24-5.0027 0-3.36-2.464-5.6-2.464-2.24-6.6453-2.24h-9.9307zm0-22.325h8.8107q3.5093 0 5.8987-1.8667 2.3893-1.9413 2.3893-5.2267 0-2.912-2.0907-4.7787-2.0907-1.8667-6.048-1.8667h-8.96z" fill="#0f0" style="white-space:pre" aria-label="TAB"/>
  <path id="text14" transform="matrix(.26458 0 0 .26458 -29.258 89.931)" d="m243.58 330.6q-5.824 0-10.901-2.1653-5.0027-2.1653-8.8853-5.9733-3.8827-3.8827-6.048-8.96-2.1653-5.0773-2.1653-10.901 0-5.7493 2.1653-10.827 2.1653-5.0773 6.048-8.96t8.8853-6.048q5.0773-2.1653 10.901-2.1653 5.824 0 10.827 2.1653 5.0773 2.1653 8.96 6.048 3.8827 3.8827 6.048 8.96 2.1653 5.0773 2.1653 10.827 0 5.824-2.1653 10.901-2.1653 5.0773-6.048 8.96-3.8827 3.808-8.96 5.9733-5.0027 2.1653-10.827 2.1653zm0-8.5867q5.376 0 9.7067-2.6133 4.4053-2.6133 7.0187-7.0187 2.6133-4.4053 2.6133-9.7813t-2.6133-9.7067q-2.6133-4.4053-7.0187-7.0187-4.3307-2.6133-9.7067-2.6133t-9.7813 2.6133q-4.3307 2.6133-6.944 7.0187-2.6133 4.3307-2.6133 9.7067t2.6133 9.7813q2.6133 4.4053 6.944 7.0187 4.4053 2.6133 9.7813 2.6133zm-14.784-19.339q0-4.1813 2.016-7.5413 2.016-3.4347 5.4507-5.4507 3.4347-2.0907 7.5413-2.0907 3.6587 0 6.72 1.6427 3.0613 1.568 5.0773 4.3307 2.016 2.688 2.464 6.1227h-7.7653q-0.37333-2.0907-2.24-3.36-1.8667-1.344-4.256-1.344-3.136 0-5.376 2.24-2.24 2.24-2.24 5.376t2.24 5.376q2.24 2.24 5.376 2.24 2.3893 0 4.1067-1.2693 1.7173-1.344 2.1653-3.36h7.6907q-0.37333 3.4347-2.3147 6.1973-1.9413 2.688-5.0027 4.256-2.9867 1.568-6.6453 1.568-4.1067 0-7.5413-2.016-3.4347-2.016-5.4507-5.376-2.016-3.4347-2.016-7.5413z" fill="#ff2a2a" style="white-space:pre" aria-label="©"/>
 </g>
</svg>
