<?xml version="1.0" encoding="UTF-8"?>
<!-- Created with Inkscape (http://www.inkscape.org/) -->
<svg width="141.55mm" height="150.81mm" version="1.1" viewBox="0 0 141.55 150.81" xmlns="http://www.w3.org/2000/svg">
 <g transform="translate(-26.458 -27.781)">
  <path d="m31.67 66.146h131.13c2.1544 0 3.8889 1.7344 3.8889 3.8889v84.826c0 2.1544-1.7344 3.8889-3.8889 3.8889h-131.13c-2.1544 0-3.8889-1.7344-3.8889-3.8889v-84.826c0-2.1544 1.7344-3.8889 3.8889-3.8889z" fill="#7f7f7f" stroke-linecap="round" stroke-width="7.1624" style="paint-order:stroke fill markers"/>
  <path transform="matrix(.26458 0 0 .26458 .12701 5.5494)" d="m216.94 399.71q-15.36 0-27.68-7.04t-19.52-20.32q-7.04-13.44-7.04-32.32 0-19.04 7.04-32.32 7.2-13.44 19.52-20.48t27.68-7.04q15.52 0 27.68 7.04 12.32 7.04 19.52 20.48 7.2 13.28 7.2 32.32 0 15.36-4.96 27.2-4.8 11.68-13.28 19.36l16.8 21.28h-22.24l-9.6-12q-9.76 3.84-21.12 3.84zm-7.36-41.6h20.48l8.48 10.88q4-4.8 6.24-12.16t2.24-16.8q0-18.88-8.32-28.8-8.16-9.92-21.76-9.92-13.44 0-21.76 10.08-8.32 9.92-8.32 28.64 0 18.56 8.32 28.48t21.76 9.92q4 0 7.52-0.8z" fill="#fff" style="white-space:pre" aria-label="Q"/>
  <path transform="matrix(.26458 0 0 .26458 -2.9806 56.365)" d="m259.29 346.86v-69.888h27.264q7.968 0 13.536 3.072 5.568 2.976 8.448 8.352 2.976 5.28 2.976 12.192t-2.976 12.192-8.64 8.256-13.728 2.976h-12.576v22.848zm14.304-34.368h10.272q6.624 0 9.696-3.264 3.168-3.36 3.168-8.64t-3.168-8.448q-3.072-3.264-9.696-3.264h-10.272zm47.904 34.368v-69.888h14.304v57.984h30.144v11.904zm82.176 0.96q-9.216 0-16.608-4.224t-11.712-12.192q-4.224-8.064-4.224-19.392 0-11.424 4.224-19.392 4.32-8.064 11.712-12.288t16.608-4.224q9.312 0 16.608 4.224 7.392 4.224 11.712 12.288 4.32 7.968 4.32 19.392 0 11.328-4.32 19.392-4.32 7.968-11.712 12.192-7.296 4.224-16.608 4.224zm0-12.768q8.16 0 13.056-5.856 4.992-5.952 4.992-17.184 0-11.328-4.992-17.28-4.896-5.952-13.056-5.952-8.064 0-13.056 6.048-4.992 5.952-4.992 17.184 0 11.136 4.992 17.088t13.056 5.952zm37.536-46.176v-11.904h57.024v11.904h-21.312v57.984h-14.4v-57.984z" fill="#fff" style="white-space:pre" aria-label="PLOT"/>
  <path transform="matrix(.26458 0 0 .26458 58.732 15.057)" d="m198.93 312.61v-9.0347l37.184-16.501v10.528l-25.312 10.304v0.448l25.312 10.304v10.453zm51.819 8.8107v-9.184h36.363v9.184zm0-17.472v-9.184h36.363v9.184z" fill="#ff2a2a" style="white-space:pre" aria-label="&lt;="/>
  <path transform="matrix(.26458 0 0 .26458 -20.724 -25.183)" d="m205.05 330.6q-9.856 0-15.755-4.48-5.824-4.5547-5.9733-13.216h10.827q0.224 4.1813 3.2107 6.272 3.0613 2.016 7.5413 2.016t7.168-1.9413q2.688-1.9413 2.688-5.0027 0-2.8373-2.464-4.3307-2.464-1.4933-6.8693-2.5387l-5.9733-1.4933q-6.8693-1.7173-10.827-5.3013-3.8827-3.584-3.8827-9.4827 0-4.928 2.6133-8.5867 2.688-3.7333 7.2427-5.7493 4.6293-2.016 10.528-2.016 6.048 0 10.528 2.0907 4.48 2.016 7.0187 5.6747t2.6133 8.4373h-10.827q-0.224-3.2853-2.7627-5.0773-2.464-1.792-6.6453-1.792-4.256 0-6.5707 1.792t-2.3147 4.48q0 3.0613 2.6133 4.5547 2.6133 1.4933 6.048 2.3147l4.928 1.1947q4.5547 1.0453 8.2133 3.0613 3.7333 1.9413 5.824 5.152 2.1653 3.136 2.1653 7.6907 0 7.392-5.5253 11.872-5.5253 4.4053-15.381 4.4053zm40.096-55.179v54.357h-11.125v-54.357zm9.856 54.357v-54.357h12.395l17.173 27.552q1.568 2.6133 3.2853 5.824t3.5093 7.4667q-0.29867-4.032-0.52267-8.064-0.14933-4.032-0.14933-6.6453v-26.133h11.349v54.357h-12.395l-15.605-24.939q-1.4933-2.464-2.7627-4.704-1.2693-2.3147-2.6133-4.928t-3.0613-5.9733q0.29867 4.8533 0.52267 9.0347 0.224 4.1067 0.224 6.5707v24.939z" fill="#0f0" style="white-space:pre" aria-label="SIN"/>
  <path transform="matrix(.26458 0 0 .26458 -63.072 89.911)" d="m343.38 329.78 18.517-54.357h14.635l19.04 54.357h-12.395l-4.1813-12.619h-19.264l-4.1067 12.619zm19.115-21.355h13.589l-1.6427-4.8533q-1.2693-4.1813-2.6133-9.0347-1.2693-4.8533-2.688-10.379-1.344 5.6-2.6133 10.453-1.2693 4.8533-2.464 8.96zm58.613 22.176q-9.856 0-15.755-4.48-5.824-4.5547-5.9733-13.216h10.827q0.224 4.1813 3.2107 6.272 3.0613 2.016 7.5413 2.016t7.168-1.9413q2.688-1.9413 2.688-5.0027 0-2.8373-2.464-4.3307-2.464-1.4933-6.8693-2.5387l-5.9733-1.4933q-6.8693-1.7173-10.827-5.3013-3.8827-3.584-3.8827-9.4827 0-4.928 2.6133-8.5867 2.688-3.7333 7.2427-5.7493 4.6293-2.016 10.528-2.016 6.048 0 10.528 2.0907 4.48 2.016 7.0187 5.6747t2.6133 8.4373h-10.827q-0.224-3.2853-2.7627-5.0773-2.464-1.792-6.6453-1.792-4.256 0-6.5707 1.792t-2.3147 4.48q0 3.0613 2.6133 4.5547 2.6133 1.4933 6.048 2.3147l4.928 1.1947q4.5547 1.0453 8.2133 3.0613 3.7333 1.9413 5.824 5.152 2.1653 3.136 2.1653 7.6907 0 7.392-5.5253 11.872-5.5253 4.4053-15.381 4.4053zm28.971-0.82133v-54.357h12.395l17.173 27.552q1.568 2.6133 3.2853 5.824t3.5093 7.4667q-0.29867-4.032-0.52267-8.064-0.14933-4.032-0.14933-6.6453v-26.133h11.349v54.357h-12.395l-15.605-24.939q-1.4933-2.464-2.7627-4.704-1.2693-2.3147-2.6133-4.928t-3.0613-5.9733q0.29866 4.8533 0.52266 9.0347 0.224 4.1067 0.224 6.5707v24.939z" fill="#ff2a2a" style="white-space:pre" aria-label="ASN"/>
 </g>
</svg>
