<?xml version="1.0" encoding="UTF-8"?>
<svg width="256" height="256" enable-background="new 0 0 24.00 24.00" inkscape:version="1.4.3 (0d15f75042, 2025-12-25)" sodipodi:docname="quick.svg" version="1.1" viewBox="0 0 256 256" xmlns="http://www.w3.org/2000/svg" xmlns:inkscape="http://www.inkscape.org/namespaces/inkscape" xmlns:sodipodi="http://sodipodi.sourceforge.net/DTD/sodipodi-0.dtd">
 <sodipodi:namedview bordercolor="#666666" borderopacity="1.0" inkscape:current-layer="svg2" inkscape:cx="117.0963" inkscape:cy="183.94074" inkscape:deskcolor="#d1d1d1" inkscape:pagecheckerboard="0" inkscape:pageopacity="0.0" inkscape:showpageshadow="2" inkscape:window-height="1011" inkscape:window-maximized="1" inkscape:window-width="1920" inkscape:window-x="0" inkscape:window-y="0" inkscape:zoom="3.1640625" pagecolor="#ffffff" showgrid="false" showguides="true"/>
 <path d="m0 149.34 42.667-42.667 38.272-7.6542c48.528-66.01 141.5-99.014 175.06-99.014 0 33.564-33.004 126.54-99.014 175.06l-7.6542 38.272-42.667 42.667-10.667-53.334c-21.333 0-21.333 0-32.001-10.668-10.667-10.667-10.667-10.667-10.667-32.001zm42.667 42.667 21.333 21.334-40.189 40.189h-21.334v-21.333zm-21.334-21.333 18.667 2.667-36.876 36.877v-21.334zm61.334 45.334 2.6668 18.668-18.209 18.209h-21.333zm71.086-136.38c-12.497 0-22.628 10.131-22.628 22.628 0 12.497 10.131 22.628 22.628 22.628s22.628-10.131 22.628-22.628c0-12.497-10.131-22.628-22.628-22.628z" stroke-linejoin="round" stroke-width="15.085"/>
</svg>
