<?xml version="1.0" encoding="UTF-8"?>
<!-- Created with Inkscape (http://www.inkscape.org/) -->
<svg width="141.55mm" height="150.81mm" version="1.1" viewBox="0 0 141.55 150.81" xmlns="http://www.w3.org/2000/svg">
 <g transform="translate(-26.458 -27.781)">
  <path d="m31.67 66.146h131.13c2.1544 0 3.8889 1.7344 3.8889 3.8889v84.826c0 2.1544-1.7344 3.8889-3.8889 3.8889h-131.13c-2.1544 0-3.8889-1.7344-3.8889-3.8889v-84.826c0-2.1544 1.7344-3.8889 3.8889-3.8889z" fill="#7f7f7f" stroke-linecap="round" stroke-width="7.1624" style="paint-order:stroke fill markers"/>
  <path transform="matrix(.26458 0 0 .26458 -.9525 6.6501)" d="m175.5 398.11v-116.48h45.44q19.84 0 30.72 10.4t10.88 27.52q0 12-5.44 20.48-5.28 8.48-15.2 12.64l24.8 45.44h-26.4l-22.24-41.6h-18.72v41.6zm23.84-60.8h17.12q21.44 0 21.44-17.76 0-8.8-5.28-13.44t-16.16-4.64h-17.12z" fill="#fff" style="white-space:pre" aria-label="R"/>
  <path transform="matrix(.26458 0 0 .26458 21.779 56.251)" d="m188.27 346.86v-69.888h27.264q11.904 0 18.432 6.24t6.528 16.512q0 7.2-3.264 12.288-3.168 5.088-9.12 7.584l14.88 27.264h-15.84l-13.344-24.96h-11.232v24.96zm14.304-36.48h10.272q12.864 0 12.864-10.656 0-5.28-3.168-8.064t-9.696-2.784h-10.272zm77.568 37.44q-8.736 0-15.168-3.168t-10.08-8.928q-3.552-5.76-3.552-13.344v-45.408h14.304v44.16q0 6.144 3.936 10.08t10.56 3.936 10.56-3.936 3.936-10.08v-44.16h14.4v45.408q0 7.584-3.648 13.344t-10.176 8.928q-6.432 3.168-15.072 3.168zm41.472-0.96v-69.888h15.936l22.08 35.424q2.016 3.36 4.224 7.488t4.512 9.6q-0.384-5.184-0.672-10.368-0.192-5.184-0.192-8.544v-33.6h14.592v69.888h-15.936l-20.064-32.064q-1.92-3.168-3.552-6.048-1.632-2.976-3.36-6.336t-3.936-7.68q0.384 6.24 0.672 11.616 0.288 5.28 0.288 8.448v32.064z" fill="#fff" style="white-space:pre" aria-label="RUN"/>
  <path transform="matrix(.26458 0 0 .26458 58.771 15.057)" d="m224.28 312.61v-9.0347l37.184-16.501v10.528l-25.312 10.304v0.448l25.312 10.304v10.453z" fill="#ff2a2a" style="white-space:pre" aria-label="&lt;"/>
  <path transform="matrix(.26458 0 0 .26458 -34.093 -25.163)" d="m244.98 275.43v54.357h-11.125v-54.357zm9.856 54.357v-54.357h12.395l17.173 27.552q1.568 2.6133 3.2853 5.824t3.5093 7.4667q-0.29866-4.032-0.52266-8.064-0.14934-4.032-0.14934-6.6453v-26.133h11.349v54.357h-12.395l-15.605-24.939q-1.4933-2.464-2.7627-4.704-1.2693-2.3147-2.6133-4.928t-3.0613-5.9733q0.29867 4.8533 0.52267 9.0347 0.224 4.1067 0.224 6.5707v24.939zm54.731-45.099v-9.2587h44.352v9.2587h-16.576v45.099h-11.2v-45.099z" fill="#0f0" style="white-space:pre" aria-label="INT"/>
  <path transform="matrix(.26458 0 0 .26458 -17.536 89.931)" d="m190.32 329.78-19.04-54.357h12.32l8.736 26.283q1.2693 4.032 2.5387 8.8107 1.344 4.7787 2.7627 10.304 1.4187-5.5253 2.6133-10.229 1.2693-4.7787 2.5387-8.8853l8.3627-26.283h12.32l-18.592 54.357zm39.872 0v-54.357h36.363v9.2587h-25.237v13.141h23.296v9.0347h-23.296v13.664h25.312v9.2587zm45.323 0v-54.357h21.205q9.2587 0 14.336 4.8533t5.0773 12.843q0 5.6-2.5387 9.5573-2.464 3.9573-7.0933 5.8987l11.573 21.205h-12.32l-10.379-19.413h-8.736v19.413zm11.125-28.373h7.9893q10.005 0 10.005-8.288 0-4.1067-2.464-6.272t-7.5413-2.1653h-7.9893zm49.056-25.984v54.357h-11.125v-54.357zm9.856 54.357v-54.357h35.691v9.2587h-24.565v15.157h22.176v9.1093h-22.176v20.832zm60.779 0v-20.384l-20.085-33.973h12.992l9.184 16.949q1.0453 1.8667 1.8667 3.6587 0.896 1.792 1.7173 3.9573 0.74667-2.1653 1.568-3.9573 0.82134-1.8667 1.792-3.6587l8.8853-16.949h12.992l-19.787 33.973v20.384z" fill="#ff2a2a" style="white-space:pre" aria-label="VERIFY"/>
 </g>
</svg>
