<?xml version="1.0" encoding="UTF-8"?>
<svg width="256" height="256" enable-background="new 0 0 24.00 24.00" inkscape:version="1.4.3 (0d15f75042, 2025-12-25)" sodipodi:docname="restart.svg" version="1.1" viewBox="0 0 256 256" xmlns="http://www.w3.org/2000/svg" xmlns:inkscape="http://www.inkscape.org/namespaces/inkscape" xmlns:sodipodi="http://sodipodi.sourceforge.net/DTD/sodipodi-0.dtd">
 <sodipodi:namedview bordercolor="#666666" borderopacity="1.0" inkscape:current-layer="svg1" inkscape:cx="127.84198" inkscape:cy="128" inkscape:deskcolor="#d1d1d1" inkscape:pagecheckerboard="0" inkscape:pageopacity="0.0" inkscape:showpageshadow="2" inkscape:window-height="1011" inkscape:window-maximized="1" inkscape:window-width="1920" inkscape:window-x="0" inkscape:window-y="0" inkscape:zoom="3.1640625" pagecolor="#ffffff"/>
 <path d="m127.96 44.057c27.184 0 54.275 10.218 74.991 30.934 41.432 41.432 41.337 108.46-0.0941 149.89-24.362 24.362-57.572 34.431-89.224 30.171l6.9388-25.896c22.751 2.1052 46.239-5.5373 63.631-22.93 31.028-31.027 31.028-81.458 0-112.49-15.561-15.561-35.902-22.966-56.243-22.872v60.368l-65.617-65.617 65.617-65.617zm-74.991 180.91c-34.964-34.964-40.212-88.019-16.217-128.7l19.498 19.498c-14.155 29.527-8.9989 65.992 15.467 90.457 6.9208 6.9213 14.807 12.298 23.228 16.132l-6.9381 25.893c-12.744-5.1701-24.689-12.928-35.038-23.277z" stroke-linejoin="round" stroke-width="2.6513"/>
</svg>
