<?xml version="1.0" encoding="UTF-8"?>
<!-- Created with Inkscape (http://www.inkscape.org/) -->
<svg width="141.55mm" height="150.81mm" version="1.1" viewBox="0 0 141.55 150.81" xmlns="http://www.w3.org/2000/svg">
 <g transform="translate(-26.458 -27.781)">
  <path d="m31.67 66.146h131.13c2.1544 0 3.8889 1.7344 3.8889 3.8889v84.826c0 2.1544-1.7344 3.8889-3.8889 3.8889h-131.13c-2.1544 0-3.8889-1.7344-3.8889-3.8889v-84.826c0-2.1544 1.7344-3.8889 3.8889-3.8889z" fill="#7f7f7f" stroke-linecap="round" stroke-width="7.1624" style="paint-order:stroke fill markers"/>
  <path transform="matrix(.26458 0 0 .26458 2.6323e-6 6.6077)" d="m218.38 399.87q-21.12 0-33.76-9.6-12.48-9.76-12.8-28.32h23.2q0.48 8.96 6.88 13.44 6.56 4.32 16.16 4.32t15.36-4.16 5.76-10.72q0-6.08-5.28-9.28t-14.72-5.44l-12.8-3.2q-14.72-3.68-23.2-11.36-8.32-7.68-8.32-20.32 0-10.56 5.6-18.4 5.76-8 15.52-12.32 9.92-4.32 22.56-4.32 12.96 0 22.56 4.48 9.6 4.32 15.04 12.16t5.6 18.08h-23.2q-0.48-7.04-5.92-10.88-5.28-3.84-14.24-3.84-9.12 0-14.08 3.84t-4.96 9.6q0 6.56 5.6 9.76t12.96 4.96l10.56 2.56q9.76 2.24 17.6 6.56 8 4.16 12.48 11.04 4.64 6.72 4.64 16.48 0 15.84-11.84 25.44-11.84 9.44-32.96 9.44z" fill="#fff" style="white-space:pre" aria-label="S"/>
  <path transform="matrix(.26458 0 0 .26458 28.244 56.352)" d="m165.47 347.92q-12.672 0-20.256-5.76-7.488-5.856-7.68-16.992h13.92q0.288 5.376 4.128 8.064 3.936 2.592 9.696 2.592t9.216-2.496 3.456-6.432q0-3.648-3.168-5.568t-8.832-3.264l-7.68-1.92q-8.832-2.208-13.92-6.816-4.992-4.608-4.992-12.192 0-6.336 3.36-11.04 3.456-4.8 9.312-7.392 5.952-2.592 13.536-2.592 7.776 0 13.536 2.688 5.76 2.592 9.024 7.296t3.36 10.848h-13.92q-0.288-4.224-3.552-6.528-3.168-2.304-8.544-2.304-5.472 0-8.448 2.304t-2.976 5.76q0 3.936 3.36 5.856t7.776 2.976l6.336 1.536q5.856 1.344 10.56 3.936 4.8 2.496 7.488 6.624 2.784 4.032 2.784 9.888 0 9.504-7.104 15.264-7.104 5.664-19.776 5.664zm31.776-1.056 23.808-69.888h18.816l24.48 69.888h-15.936l-5.376-16.224h-24.768l-5.28 16.224zm24.576-27.456h17.472l-2.112-6.24q-1.632-5.376-3.36-11.616-1.632-6.24-3.456-13.344-1.728 7.2-3.36 13.44t-3.168 11.52zm64.032 27.456-24.48-69.888h15.84l11.232 33.792q1.632 5.184 3.264 11.328 1.728 6.144 3.552 13.248 1.824-7.104 3.36-13.152 1.632-6.144 3.264-11.424l10.752-33.792h15.84l-23.904 69.888zm51.264 0v-69.888h46.752v11.904h-32.448v16.896h29.952v11.616h-29.952v17.568h32.544v11.904z" fill="#fff" style="white-space:pre" aria-label="SAVE"/>
  <path transform="matrix(.26458 0 0 .26458 58.287 16.499)" d="m167.57 329.78v-54.357h12.395l17.173 27.552q1.568 2.6133 3.2853 5.824t3.5093 7.4667q-0.29867-4.032-0.52267-8.064-0.14933-4.032-0.14933-6.6453v-26.133h11.349v54.357h-12.395l-15.605-24.939q-1.4933-2.464-2.7627-4.704-1.2693-2.3147-2.6133-4.928t-3.0613-5.9733q0.29866 4.8533 0.52266 9.0347 0.224 4.1067 0.224 6.5707v24.939zm80.715 0.74667q-7.168 0-12.917-3.2853-5.7493-3.2853-9.1093-9.4827-3.2853-6.272-3.2853-15.083 0-8.8853 3.2853-15.083 3.36-6.272 9.1093-9.5573t12.917-3.2853q7.2427 0 12.917 3.2853 5.7493 3.2853 9.1093 9.5573 3.36 6.1973 3.36 15.083 0 8.8107-3.36 15.083-3.36 6.1973-9.1093 9.4827-5.6747 3.2853-12.917 3.2853zm0-9.9307q6.3467 0 10.155-4.5547 3.8827-4.6293 3.8827-13.365 0-8.8107-3.8827-13.44-3.808-4.6293-10.155-4.6293-6.272 0-10.155 4.704-3.8827 4.6293-3.8827 13.365 0 8.6613 3.8827 13.291 3.8827 4.6293 10.155 4.6293zm29.195-35.915v-9.2587h44.352v9.2587h-16.576v45.099h-11.2v-45.099z" fill="#ff2a2a" style="white-space:pre" aria-label="NOT"/>
  <path transform="matrix(.26458 0 0 .26458 -24.359 -25.183)" d="m197.06 329.78v-54.357h21.205q9.2587 0 14.336 4.8533t5.0773 12.843q0 5.6-2.5387 9.5573-2.464 3.9573-7.0933 5.8987l11.573 21.205h-12.32l-10.379-19.413h-8.736v19.413zm11.125-28.373h7.9893q10.005 0 10.005-8.288 0-4.1067-2.464-6.272t-7.5413-2.1653h-7.9893zm37.931 28.373v-54.357h36.363v9.2587h-25.237v13.141h23.296v9.0347h-23.296v13.664h25.312v9.2587zm65.259 0.82133q-9.856 0-15.755-4.48-5.824-4.5547-5.9733-13.216h10.827q0.224 4.1813 3.2107 6.272 3.0613 2.016 7.5413 2.016t7.168-1.9413q2.688-1.9413 2.688-5.0027 0-2.8373-2.464-4.3307-2.464-1.4933-6.8693-2.5387l-5.9733-1.4933q-6.8693-1.7173-10.827-5.3013-3.8827-3.584-3.8827-9.4827 0-4.928 2.6133-8.5867 2.688-3.7333 7.2427-5.7493 4.6293-2.016 10.528-2.016 6.048 0 10.528 2.0907 4.48 2.016 7.0187 5.6747t2.6133 8.4373h-10.827q-0.224-3.2853-2.7627-5.0773-2.464-1.792-6.6453-1.792-4.256 0-6.5707 1.792t-2.3147 4.48q0 3.0613 2.6133 4.5547t6.048 2.3147l4.928 1.1947q4.5547 1.0453 8.2133 3.0613 3.7333 1.9413 5.824 5.152 2.1653 3.136 2.1653 7.6907 0 7.392-5.5253 11.872-5.5253 4.4053-15.381 4.4053zm26.283-45.92v-9.2587h44.352v9.2587h-16.576v45.099h-11.2v-45.099zm73.397 45.845q-7.168 0-12.917-3.2853-5.7493-3.2853-9.1093-9.4827-3.2853-6.272-3.2853-15.083 0-8.8853 3.2853-15.083 3.36-6.272 9.1093-9.5573t12.917-3.2853q7.2427 0 12.917 3.2853 5.7493 3.2853 9.1093 9.5573 3.36 6.1973 3.36 15.083 0 8.8107-3.36 15.083-3.36 6.1973-9.1093 9.4827-5.6747 3.2853-12.917 3.2853zm0-9.9307q6.3467 0 10.155-4.5547 3.8827-4.6293 3.8827-13.365 0-8.8107-3.8827-13.44-3.808-4.6293-10.155-4.6293-6.272 0-10.155 4.704-3.8827 4.6293-3.8827 13.365 0 8.6613 3.8827 13.291 3.8827 4.6293 10.155 4.6293zm33.749 9.184v-54.357h21.205q9.2587 0 14.336 4.8533t5.0773 12.843q0 5.6-2.5387 9.5573-2.464 3.9573-7.0933 5.8987l11.573 21.205h-12.32l-10.379-19.413h-8.736v19.413zm11.125-28.373h7.9893q10.005 0 10.005-8.288 0-4.1067-2.464-6.272t-7.5413-2.1653h-7.9893zm37.931 28.373v-54.357h36.363v9.2587h-25.237v13.141h23.296v9.0347h-23.296v13.664h25.312v9.2587z" fill="#0f0" style="white-space:pre" aria-label="RESTORE"/>
  <path transform="matrix(.26458 0 0 .17763 -35.284 115.85)" d="m248.73 257.95v89.301h-10.379v-89.301z" fill="#ff2a2a" style="white-space:pre" aria-label="|"/>
 </g>
</svg>
