<?xml version="1.0" encoding="UTF-8"?>
<svg width="256" height="256" enable-background="new 0 0 24.00 24.00" inkscape:version="1.4.3 (0d15f75042, 2025-12-25)" sodipodi:docname="scrshot.svg" version="1.1" viewBox="0 0 256 256" xmlns="http://www.w3.org/2000/svg" xmlns:inkscape="http://www.inkscape.org/namespaces/inkscape" xmlns:sodipodi="http://sodipodi.sourceforge.net/DTD/sodipodi-0.dtd">
 <sodipodi:namedview bordercolor="#666666" borderopacity="1.0" inkscape:current-layer="svg1" inkscape:cx="127.84198" inkscape:cy="128" inkscape:deskcolor="#d1d1d1" inkscape:pagecheckerboard="0" inkscape:pageopacity="0.0" inkscape:showpageshadow="2" inkscape:window-height="1011" inkscape:window-maximized="1" inkscape:window-width="1920" inkscape:window-x="0" inkscape:window-y="0" inkscape:zoom="3.1640625" pagecolor="#ffffff"/>
 <path d="m227.54 0h-199.22c-15.717 0-28.318 12.736-28.318 28.444v199.11c0 15.708 12.601 28.444 28.318 28.444h199.22c15.717 0 28.46-12.736 28.46-28.444v-199.11c0-15.708-12.743-28.444-28.46-28.444zm0 177.78c0 3.9268-3.1858 7.1111-7.1154 7.1111h-184.99c-3.9292 0-7.1151-3.1844-7.1151-7.1111v-99.556c0-3.927 3.1859-7.1111 7.1151-7.1111h184.99c3.9296 0 7.1154 3.1841 7.1154 7.1111z" stroke-width="18.963"/>
</svg>
