<?xml version="1.0" encoding="UTF-8"?>
<!-- Created with Inkscape (http://www.inkscape.org/) -->
<svg width="141.55mm" height="150.81mm" version="1.1" viewBox="0 0 141.55 150.81" xmlns="http://www.w3.org/2000/svg">
 <g transform="translate(-26.458 -27.781)">
  <path d="m31.67 66.146h131.13c2.1544 0 3.8889 1.7344 3.8889 3.8889v84.826c0 2.1544-1.7344 3.8889-3.8889 3.8889h-131.13c-2.1544 0-3.8889-1.7344-3.8889-3.8889v-84.826c0-2.1544 1.7344-3.8889 3.8889-3.8889z" fill="#7f7f7f" stroke-linecap="round" stroke-width="7.1624" style="paint-order:stroke fill markers"/>
  <g transform="matrix(.26458 0 0 .26458 5.0141 16.284)" fill="#ff2a2a" style="white-space:pre" aria-label="SYMBOL SHIFT">
   <path d="m171.33 347.92q-12.672 0-20.256-5.76-7.488-5.856-7.68-16.992h13.92q0.288 5.376 4.128 8.064 3.936 2.592 9.696 2.592t9.216-2.496 3.456-6.432q0-3.648-3.168-5.568t-8.832-3.264l-7.68-1.92q-8.832-2.208-13.92-6.816-4.992-4.608-4.992-12.192 0-6.336 3.36-11.04 3.456-4.8 9.312-7.392 5.952-2.592 13.536-2.592 7.776 0 13.536 2.688 5.76 2.592 9.024 7.296t3.36 10.848h-13.92q-0.288-4.224-3.552-6.528-3.168-2.304-8.544-2.304-5.472 0-8.448 2.304t-2.976 5.76q0 3.936 3.36 5.856t7.776 2.976l6.336 1.536q5.856 1.344 10.56 3.936 4.8 2.496 7.488 6.624 2.784 4.032 2.784 9.888 0 9.504-7.104 15.264-7.104 5.664-19.776 5.664zm59.04-1.056v-26.208l-25.824-43.68h16.704l11.808 21.792q1.344 2.4 2.4 4.704 1.152 2.304 2.208 5.088 0.96-2.784 2.016-5.088 1.056-2.4 2.304-4.704l11.424-21.792h16.704l-25.44 43.68v26.208zm48.384 0v-69.888h21.888l11.424 32.064q0.672 2.208 1.536 5.856 0.864 3.552 1.824 7.68 0.96 4.032 1.824 7.872 0.768-3.744 1.728-7.872t1.824-7.68 1.632-5.856l11.136-32.064h21.984v69.888h-14.4v-32.928q0-2.688 0.096-6.72 0.192-4.128 0.288-8.736 0.096-4.704 0.192-9.12-1.248 4.704-2.496 9.408t-2.496 8.736q-1.152 3.936-2.016 6.432l-11.52 32.928h-12.096l-11.712-32.928q-0.864-2.4-2.016-6.24-1.056-3.84-2.4-8.448t-2.592-9.312q0.096 4.224 0.192 8.832 0.192 4.512 0.288 8.544 0.096 3.936 0.096 6.624v32.928zm89.472 0v-69.888h27.648q11.52 0 17.28 5.088 5.856 5.088 5.856 12.864 0 6.24-3.648 10.08-3.552 3.744-8.928 4.992v0.672q3.936 0.192 7.392 2.304 3.552 2.016 5.664 5.76 2.208 3.744 2.208 8.832 0 5.568-2.784 9.984-2.688 4.32-8.064 6.816-5.28 2.496-13.152 2.496zm14.304-11.808h12.384q6.336 0 9.216-2.4t2.88-6.432q0-4.32-3.168-7.2t-8.544-2.88h-12.768zm0-28.704h11.328q4.512 0 7.584-2.4 3.072-2.496 3.072-6.72 0-3.744-2.688-6.144t-7.776-2.4h-11.52zm79.872 41.472q-9.216 0-16.608-4.224t-11.712-12.192q-4.224-8.064-4.224-19.392 0-11.424 4.224-19.392 4.32-8.064 11.712-12.288t16.608-4.224q9.312 0 16.608 4.224 7.392 4.224 11.712 12.288 4.32 7.968 4.32 19.392 0 11.328-4.32 19.392-4.32 7.968-11.712 12.192-7.296 4.224-16.608 4.224zm0-12.768q8.16 0 13.056-5.856 4.992-5.952 4.992-17.184 0-11.328-4.992-17.28-4.896-5.952-13.056-5.952-8.064 0-13.056 6.048-4.992 5.952-4.992 17.184 0 11.136 4.992 17.088t13.056 5.952zm43.392 11.808v-69.888h14.304v57.984h30.144v11.904z"/>
   <path d="m237.53 450.8q-12.672 0-20.256-5.76-7.488-5.856-7.68-16.992h13.92q0.288 5.376 4.128 8.064 3.936 2.592 9.696 2.592t9.216-2.496 3.456-6.432q0-3.648-3.168-5.568t-8.832-3.264l-7.68-1.92q-8.832-2.208-13.92-6.816-4.992-4.608-4.992-12.192 0-6.336 3.36-11.04 3.456-4.8 9.312-7.392 5.952-2.592 13.536-2.592 7.776 0 13.536 2.688 5.76 2.592 9.024 7.296t3.36 10.848h-13.92q-0.288-4.224-3.552-6.528-3.168-2.304-8.544-2.304-5.472 0-8.448 2.304t-2.976 5.76q0 3.936 3.36 5.856t7.776 2.976l6.336 1.536q5.856 1.344 10.56 3.936 4.8 2.496 7.488 6.624 2.784 4.032 2.784 9.888 0 9.504-7.104 15.264-7.104 5.664-19.776 5.664zm37.248-1.056v-69.888h14.304v28.224h30.432v-28.224h14.304v69.888h-14.304v-29.76h-30.432v29.76zm86.016-69.888v69.888h-14.304v-69.888zm12.672 69.888v-69.888h45.888v11.904h-31.584v19.488h28.512v11.712h-28.512v26.784zm53.568-57.984v-11.904h57.024v11.904h-21.312v57.984h-14.4v-57.984z"/>
  </g>
 </g>
</svg>
