<?xml version="1.0" encoding="UTF-8"?>
<!-- Created with Inkscape (http://www.inkscape.org/) -->
<svg width="141.55mm" height="150.81mm" version="1.1" viewBox="0 0 141.55 150.81" xmlns="http://www.w3.org/2000/svg">
 <g transform="translate(-26.458 -27.781)">
  <path d="m31.67 66.146h131.13c2.1544 0 3.8889 1.7344 3.8889 3.8889v84.826c0 2.1544-1.7344 3.8889-3.8889 3.8889h-131.13c-2.1544 0-3.8889-1.7344-3.8889-3.8889v-84.826c0-2.1544 1.7344-3.8889 3.8889-3.8889z" fill="#7f7f7f" stroke-linecap="round" stroke-width="7.1624" style="paint-order:stroke fill markers"/>
  <path transform="matrix(.26458 0 0 .26458 -.021193 6.6501)" d="m170.06 301.47v-19.84h95.04v19.84h-35.52v96.64h-24v-96.64z" fill="#fff" style="white-space:pre" aria-label="T"/>
  <path transform="matrix(.26458 0 0 .26458 -2.8536 56.378)" d="m245.04 346.86v-69.888h27.264q11.904 0 18.432 6.24t6.528 16.512q0 7.2-3.264 12.288-3.168 5.088-9.12 7.584l14.88 27.264h-15.84l-13.344-24.96h-11.232v24.96zm14.304-36.48h10.272q12.864 0 12.864-10.656 0-5.28-3.168-8.064t-9.696-2.784h-10.272zm44.736 36.48 23.808-69.888h18.816l24.48 69.888h-15.936l-5.376-16.224h-24.768l-5.28 16.224zm24.576-27.456h17.472l-2.112-6.24q-1.632-5.376-3.36-11.616-1.632-6.24-3.456-13.344-1.728 7.2-3.36 13.44t-3.168 11.52zm51.168 27.456v-69.888h15.936l22.08 35.424q2.016 3.36 4.224 7.488t4.512 9.6q-0.384-5.184-0.672-10.368-0.192-5.184-0.192-8.544v-33.6h14.592v69.888h-15.936l-20.064-32.064q-1.92-3.168-3.552-6.048-1.632-2.976-3.36-6.336t-3.936-7.68q0.384 6.24 0.672 11.616 0.288 5.28 0.288 8.448v32.064zm97.728 0h-24.576v-69.888h24.768q10.56 0 18.048 4.224 7.584 4.224 11.616 12 4.128 7.776 4.128 18.72t-4.128 18.816q-4.032 7.776-11.712 12-7.584 4.128-18.144 4.128zm-10.272-12.288h9.504q10.08 0 15.264-5.472 5.28-5.472 5.28-17.184t-5.184-17.088q-5.184-5.472-15.264-5.472h-9.6z" fill="#fff" style="white-space:pre" aria-label="RAND"/>
  <path transform="matrix(.26458 0 0 .26458 58.396 15.057)" d="m262.88 312.61-37.184 16.501v-10.453l25.312-10.304v-0.448l-25.312-10.304v-10.528l37.184 16.501z" fill="#ff2a2a" style="white-space:pre" aria-label="&gt;"/>
  <path transform="matrix(.26458 0 0 .26458 -16.822 -25.163)" d="m168.58 329.78v-54.357h21.205q9.2587 0 14.336 4.8533t5.0773 12.843q0 5.6-2.5387 9.5573-2.464 3.9573-7.0933 5.8987l11.573 21.205h-12.32l-10.379-19.413h-8.736v19.413zm11.125-28.373h7.9893q10.005 0 10.005-8.288 0-4.1067-2.464-6.272t-7.5413-2.1653h-7.9893zm37.931 28.373v-54.357h12.395l17.173 27.552q1.568 2.6133 3.2853 5.824t3.5093 7.4667q-0.29867-4.032-0.52267-8.064-0.14933-4.032-0.14933-6.6453v-26.133h11.349v54.357h-12.395l-15.605-24.939q-1.4933-2.464-2.7627-4.704-1.2693-2.3147-2.6133-4.928t-3.0613-5.9733q0.29866 4.8533 0.52266 9.0347 0.224 4.1067 0.224 6.5707v24.939zm76.011 0h-19.115v-54.357h19.264q8.2133 0 14.037 3.2853 5.8987 3.2853 9.0347 9.3333 3.2107 6.048 3.2107 14.56t-3.2107 14.635q-3.136 6.048-9.1093 9.3333-5.8987 3.2107-14.112 3.2107zm-7.9893-9.5573h7.392q7.84 0 11.872-4.256 4.1067-4.256 4.1067-13.365t-4.032-13.291q-4.032-4.256-11.872-4.256h-7.4667z" fill="#0f0" style="white-space:pre" aria-label="RND"/>
  <path transform="matrix(.26458 0 0 .26458 -49.934 89.921)" d="m293.73 329.78v-54.357h17.024l8.8853 24.939q0.52266 1.7173 1.1947 4.5547 0.67201 2.7627 1.4187 5.9733 0.74667 3.136 1.4187 6.1227 0.59733-2.912 1.344-6.1227t1.4187-5.9733 1.2693-4.5547l8.6613-24.939h17.099v54.357h-11.2v-25.611q0-2.0907 0.0747-5.2267 0.14933-3.2107 0.224-6.7947 0.0747-3.6587 0.14933-7.0933-0.97067 3.6587-1.9413 7.3173-0.97066 3.6587-1.9413 6.7947-0.896 3.0613-1.568 5.0027l-8.96 25.611h-9.408l-9.1093-25.611q-0.672-1.8667-1.568-4.8533-0.82133-2.9867-1.8667-6.5707-1.0453-3.584-2.016-7.2427 0.0747 3.2853 0.14934 6.8693 0.14933 3.5093 0.224 6.6453 0.0747 3.0613 0.0747 5.152v25.611zm69.589 0v-54.357h36.363v9.2587h-25.237v13.141h23.296v9.0347h-23.296v13.664h25.312v9.2587zm45.323 0v-54.357h21.205q9.2587 0 14.336 4.8533t5.0773 12.843q0 5.6-2.5387 9.5573-2.464 3.9573-7.0933 5.8987l11.573 21.205h-12.32l-10.379-19.413h-8.736v19.413zm11.125-28.373h7.9893q10.005 0 10.005-8.288 0-4.1067-2.464-6.272t-7.5413-2.1653h-7.9893zm60.779 29.12q-6.8693 0-12.395-3.36-5.5253-3.4347-8.736-9.632-3.2107-6.272-3.2107-14.859 0-8.736 3.2853-15.008 3.36-6.272 9.1093-9.5573 5.7493-3.36 12.917-3.36 6.1227 0 11.051 2.3147 5.0027 2.3147 8.1387 6.4213 3.2107 4.1067 3.9573 9.4827h-11.349q-1.12-3.8827-4.1067-6.1227t-7.5413-2.24q-6.272 0-10.229 4.704-3.9573 4.6293-3.9573 13.291 0 8.5867 3.8827 13.291 3.9573 4.704 10.603 4.704 5.6 0 8.8853-2.9867 3.2853-3.0613 3.584-8.288h-11.872v-8.512h22.624v28.971h-7.392l-1.344-11.947q-0.672 3.584-2.5387 6.496-1.8667 2.8373-5.152 4.5547-3.2853 1.6427-8.2133 1.6427zm33.899-0.74667v-54.357h36.363v9.2587h-25.237v13.141h23.296v9.0347h-23.296v13.664h25.312v9.2587z" fill="#ff2a2a" style="white-space:pre" aria-label="MERGE"/>
 </g>
</svg>
