<?xml version="1.0" encoding="UTF-8"?>
<!-- Created with Inkscape (http://www.inkscape.org/) -->
<svg width="141.55mm" height="151.18mm" version="1.1" viewBox="0 0 141.55 151.18" xmlns="http://www.w3.org/2000/svg">
 <g transform="translate(-26.458 -27.781)">
  <path d="m31.67 66.146h131.13c2.1544 0 3.8889 1.7344 3.8889 3.8889v84.826c0 2.1544-1.7344 3.8889-3.8889 3.8889h-131.13c-2.1544 0-3.8889-1.7344-3.8889-3.8889v-84.826c0-2.1544 1.7344-3.8889 3.8889-3.8889z" fill="#7f7f7f" stroke-linecap="round" stroke-width="7.1624" style="paint-order:stroke fill markers"/>
  <path transform="matrix(.26458 0 0 .26458 -.021152 6.4384)" d="m217.5 399.71q-14.56 0-25.28-5.28t-16.8-14.88q-5.92-9.6-5.92-22.24v-75.68h23.84v73.6q0 10.24 6.56 16.8t17.6 6.56 17.6-6.56 6.56-16.8v-73.6h24v75.68q0 12.64-6.08 22.24t-16.96 14.88q-10.72 5.28-25.12 5.28z" fill="#fff" style="white-space:pre" aria-label="U"/>
  <path transform="matrix(.26458 0 0 .26458 21.487 56.378)" d="m264.16 276.98v69.888h-14.304v-69.888zm12.672 69.888v-69.888h45.888v11.904h-31.584v19.488h28.512v11.712h-28.512v26.784z" fill="#fff" style="white-space:pre" aria-label="IF"/>
  <path transform="matrix(.26458 0 0 .26458 58.337 16.499)" d="m219.02 330.53q-7.168 0-12.917-3.2853-5.7493-3.2853-9.1093-9.4827-3.2853-6.272-3.2853-15.083 0-8.8853 3.2853-15.083 3.36-6.272 9.1093-9.5573t12.917-3.2853q7.2427 0 12.917 3.2853 5.7493 3.2853 9.1093 9.5573 3.36 6.1973 3.36 15.083 0 8.8107-3.36 15.083-3.36 6.1973-9.1093 9.4827-5.6747 3.2853-12.917 3.2853zm0-9.9307q6.3467 0 10.155-4.5547 3.8827-4.6293 3.8827-13.365 0-8.8107-3.8827-13.44-3.808-4.6293-10.155-4.6293-6.272 0-10.155 4.704-3.8827 4.6293-3.8827 13.365 0 8.6613 3.8827 13.291 3.8827 4.6293 10.155 4.6293zm33.749 9.184v-54.357h21.205q9.2587 0 14.336 4.8533t5.0773 12.843q0 5.6-2.5387 9.5573-2.464 3.9573-7.0933 5.8987l11.573 21.205h-12.32l-10.379-19.413h-8.736v19.413zm11.125-28.373h7.9893q10.005 0 10.005-8.288 0-4.1067-2.464-6.272t-7.5413-2.1653h-7.9893z" fill="#ff2a2a" style="white-space:pre" aria-label="OR"/>
  <path transform="matrix(.26458 0 0 .26458 -22.941 -25.163)" d="m216.94 330.53q-7.2427 0-12.992-3.2853-5.6747-3.2853-8.96-9.4827-3.2853-6.272-3.2853-15.083 0-8.8853 3.2853-15.083 3.36-6.272 9.0347-9.5573 5.7493-3.2853 12.917-3.2853 6.1227 0 11.125 2.3147 5.0027 2.24 8.2133 6.5707 3.2107 4.256 4.032 10.379h-11.275q-0.74667-4.4053-4.032-6.8693-3.2107-2.5387-7.84-2.5387-6.3467 0-10.304 4.704-3.8827 4.704-3.8827 13.365 0 8.8107 3.8827 13.365 3.9573 4.5547 10.229 4.5547 4.6293 0 7.9147-2.464 3.2853-2.464 4.032-6.944h11.275q-0.59734 5.0773-3.584 9.4827-2.912 4.4053-7.9147 7.168-5.0027 2.688-11.872 2.688zm31.509-0.74667v-54.357h11.125v21.952h23.669v-21.952h11.125v54.357h-11.125v-23.147h-23.669v23.147zm55.776 0v-54.357h21.205q9.2587 0 14.336 4.8533t5.0773 12.843q0 5.6-2.5387 9.5573-2.464 3.9573-7.0933 5.8987l11.573 21.205h-12.32l-10.379-19.413h-8.736v19.413zm11.125-28.373h7.9893q10.005 0 10.005-8.288 0-4.1067-2.464-6.272t-7.5413-2.1653h-7.9893zm55.627 35.691v-6.5707q-8.8107-0.52267-14.112-4.928-5.2267-4.48-5.376-12.693h10.827q0.224 3.6587 2.5387 5.6747 2.3893 2.016 6.1227 2.464v-14.336l-3.36-0.82134q-6.8693-1.7173-10.827-5.3013-3.8827-3.584-3.8827-9.4827 0-4.6293 2.3147-8.064 2.3147-3.5093 6.3467-5.6 4.1067-2.1653 9.408-2.6133v-6.72h4.3307v6.72q5.5253 0.29866 9.4827 2.464 4.032 2.1653 6.272 5.6747 2.3147 3.4347 2.3893 7.9893h-10.827q-0.22401-2.8373-2.1653-4.5547-1.8667-1.7173-5.152-2.1653v13.589l2.6133 0.59733q4.5547 1.0453 8.2133 3.0613 3.7333 1.9413 5.824 5.152 2.1653 3.136 2.1653 7.6907 0 7.0187-4.928 11.349-4.928 4.3307-13.888 4.8533v6.5707zm4.3307-16.053q3.5093-0.52266 5.5253-2.3147 2.0907-1.792 2.0907-4.48 0-2.5387-2.016-3.9573-1.9413-1.4187-5.6-2.464zm-4.3307-24.341v-12.469q-3.2107 0.448-4.928 2.1653-1.7173 1.6427-1.7173 3.9573 0 2.6133 1.9413 4.032t4.704 2.3147z" fill="#0f0" style="white-space:pre" aria-label="CHR$"/>
  <path transform="matrix(.26458 0 0 .26458 -49.985 89.022)" d="m293.92 339.94v-8.288h7.2427v-51.221h-7.2427v-8.288h17.845v67.797z" fill="#ff2a2a" style="white-space:pre" aria-label="]"/>
 </g>
</svg>
