<?xml version="1.0" encoding="UTF-8"?>
<!-- Created with Inkscape (http://www.inkscape.org/) -->
<svg width="141.55mm" height="150.81mm" version="1.1" viewBox="0 0 141.55 150.81" xmlns="http://www.w3.org/2000/svg">
 <g transform="translate(-26.458 -27.781)">
  <path d="m31.67 66.146h131.13c2.1544 0 3.8889 1.7344 3.8889 3.8889v84.826c0 2.1544-1.7344 3.8889-3.8889 3.8889h-131.13c-2.1544 0-3.8889-1.7344-3.8889-3.8889v-84.826c0-2.1544 1.7344-3.8889 3.8889-3.8889z" fill="#7f7f7f" stroke-linecap="round" stroke-width="7.1624" style="paint-order:stroke fill markers"/>
  <path transform="matrix(.26458 0 0 .26458 2.6323e-6 6.6501)" d="m202.38 398.11-40.8-116.48h26.4l18.72 56.32q2.72 8.64 5.44 18.88 2.88 10.24 5.92 22.08 3.04-11.84 5.6-21.92 2.72-10.24 5.44-19.04l17.92-56.32h26.4l-39.84 116.48z" fill="#fff" style="white-space:pre" aria-label="V"/>
  <path transform="matrix(.26458 0 0 .26458 28.053 56.352)" d="m204.06 347.82q-9.312 0-16.704-4.224-7.296-4.224-11.52-12.192-4.224-8.064-4.224-19.392 0-11.424 4.224-19.392 4.32-8.064 11.616-12.288 7.392-4.224 16.608-4.224 7.872 0 14.304 2.976 6.432 2.88 10.56 8.448 4.128 5.472 5.184 13.344h-14.496q-0.96-5.664-5.184-8.832-4.128-3.264-10.08-3.264-8.16 0-13.248 6.048-4.992 6.048-4.992 17.184 0 11.328 4.992 17.184 5.088 5.856 13.152 5.856 5.952 0 10.176-3.168t5.184-8.928h14.496q-0.768 6.528-4.608 12.192-3.744 5.664-10.176 9.216-6.432 3.456-15.264 3.456zm40.512-0.96v-69.888h14.304v57.984h30.144v11.904zm79.872 1.056q-12.672 0-20.256-5.76-7.488-5.856-7.68-16.992h13.92q0.288 5.376 4.128 8.064 3.936 2.592 9.696 2.592t9.216-2.496 3.456-6.432q0-3.648-3.168-5.568t-8.832-3.264l-7.68-1.92q-8.832-2.208-13.92-6.816-4.992-4.608-4.992-12.192 0-6.336 3.36-11.04 3.456-4.8 9.312-7.392 5.952-2.592 13.536-2.592 7.776 0 13.536 2.688 5.76 2.592 9.024 7.296t3.36 10.848h-13.92q-0.288-4.224-3.552-6.528-3.168-2.304-8.544-2.304-5.472 0-8.448 2.304t-2.976 5.76q0 3.936 3.36 5.856t7.776 2.976l6.336 1.536q5.856 1.344 10.56 3.936 4.8 2.496 7.488 6.624 2.784 4.032 2.784 9.888 0 9.504-7.104 15.264-7.104 5.664-19.776 5.664z" fill="#fff" style="white-space:pre" aria-label="CLS"/>
  <path transform="matrix(.26458 0 0 .26458 58.574 15.768)" d="m257.1 272.89-17.472 65.035h-9.4827l17.472-65.035z" fill="#ff2a2a" style="white-space:pre" aria-label="/"/>
  <path transform="matrix(.26458 0 0 .26458 -8.7025 -25.183)" d="m137.89 329.78v-54.357h11.125v45.099h23.445v9.2587zm59.883 0v-54.357h11.125v45.099h23.445v9.2587zm53.312-54.357v54.357h-11.125v-54.357zm29.792 55.179q-9.856 0-15.755-4.48-5.824-4.5547-5.9733-13.216h10.827q0.224 4.1813 3.2107 6.272 3.0613 2.016 7.5413 2.016t7.168-1.9413 2.688-5.0027q0-2.8373-2.464-4.3307-2.464-1.4933-6.8693-2.5387l-5.9733-1.4933q-6.8693-1.7173-10.827-5.3013-3.8827-3.584-3.8827-9.4827 0-4.928 2.6133-8.5867 2.688-3.7333 7.2427-5.7493 4.6293-2.016 10.528-2.016 6.048 0 10.528 2.0907 4.48 2.016 7.0187 5.6747t2.6133 8.4373h-10.827q-0.224-3.2853-2.7627-5.0773-2.464-1.792-6.6453-1.792-4.256 0-6.5707 1.792t-2.3147 4.48q0 3.0613 2.6133 4.5547 2.6133 1.4933 6.048 2.3147l4.928 1.1947q4.5547 1.0453 8.2133 3.0613 3.7333 1.9413 5.824 5.152 2.1653 3.136 2.1653 7.6907 0 7.392-5.5253 11.872-5.5253 4.4053-15.381 4.4053zm26.283-45.92v-9.2587h44.352v9.2587h-16.576v45.099h-11.2v-45.099z" fill="#0f0" style="white-space:pre" aria-label="L LIST"/>
  <path transform="matrix(.26458 0 0 .26458 -27.23 89.911)" d="m207.92 329.78v-54.357h35.691v9.2587h-24.565v15.157h22.176v9.1093h-22.176v20.832zm43.829 0v-54.357h11.125v45.099h23.445v9.2587zm39.051 0 18.517-54.357h14.635l19.04 54.357h-12.395l-4.1813-12.619h-19.264l-4.1067 12.619zm19.115-21.355h13.589l-1.6427-4.8533q-1.2693-4.1813-2.6133-9.0347-1.2693-4.8533-2.688-10.379-1.344 5.6-2.6133 10.453-1.2693 4.8533-2.464 8.96zm58.613 22.176q-9.856 0-15.755-4.48-5.824-4.5547-5.9733-13.216h10.827q0.224 4.1813 3.2107 6.272 3.0613 2.016 7.5413 2.016t7.168-1.9413 2.688-5.0027q0-2.8373-2.464-4.3307-2.464-1.4933-6.8693-2.5387l-5.9733-1.4933q-6.8693-1.7173-10.827-5.3013-3.8827-3.584-3.8827-9.4827 0-4.928 2.6133-8.5867 2.688-3.7333 7.2427-5.7493 4.6293-2.016 10.528-2.016 6.048 0 10.528 2.0907 4.48 2.016 7.0187 5.6747t2.6133 8.4373h-10.827q-0.224-3.2853-2.7627-5.0773-2.464-1.792-6.6453-1.792-4.256 0-6.5707 1.792t-2.3147 4.48q0 3.0613 2.6133 4.5547 2.6133 1.4933 6.048 2.3147l4.928 1.1947q4.5547 1.0453 8.2133 3.0613 3.7333 1.9413 5.824 5.152 2.1653 3.136 2.1653 7.6907 0 7.392-5.5253 11.872-5.5253 4.4053-15.381 4.4053zm28.971-0.82133v-54.357h11.125v21.952h23.669v-21.952h11.125v54.357h-11.125v-23.147h-23.669v23.147z" fill="#ff2a2a" style="white-space:pre" aria-label="FLASH"/>
 </g>
</svg>
