<?xml version="1.0" encoding="UTF-8"?>
<!-- Created with Inkscape (http://www.inkscape.org/) -->
<svg width="141.55mm" height="150.81mm" version="1.1" viewBox="0 0 141.55 150.81" xmlns="http://www.w3.org/2000/svg">
 <g transform="translate(-26.458 -27.781)">
  <path d="m31.67 66.146h131.13c2.1544 0 3.8889 1.7344 3.8889 3.8889v84.826c0 2.1544-1.7344 3.8889-3.8889 3.8889h-131.13c-2.1544 0-3.8889-1.7344-3.8889-3.8889v-84.826c0-2.1544 1.7344-3.8889 3.8889-3.8889z" fill="#7f7f7f" stroke-linecap="round" stroke-width="7.1624" style="paint-order:stroke fill markers"/>
  <path transform="matrix(.26458 0 0 .26458 2.6323e-6 6.6501)" d="m169.5 398.11-31.2-116.48h26.08l13.44 57.28q1.76 8.16 3.2 17.28 1.6 9.12 3.04 18.08 1.6-8.96 3.2-18.08t3.68-17.28l14.08-57.28h24.8l14.24 57.28q1.92 8 3.52 17.12 1.6 8.96 3.2 17.92 1.44-8.96 2.88-17.92 1.6-9.12 3.36-17.12l13.6-57.28h26.08l-31.36 116.48h-27.2l-15.52-59.52q-1.44-6.4-2.72-13.28-1.28-7.04-2.56-14.56-1.12 7.36-2.24 14.4-1.12 6.88-2.88 13.44l-15.36 59.52z" fill="#fff" style="white-space:pre" aria-label="W"/>
  <path transform="matrix(.26458 0 0 .26458 -3.133 56.378)" d="m259.82 346.86h-24.576v-69.888h24.768q10.56 0 18.048 4.224 7.584 4.224 11.616 12 4.128 7.776 4.128 18.72t-4.128 18.816q-4.032 7.776-11.712 12-7.584 4.128-18.144 4.128zm-10.272-12.288h9.504q10.08 0 15.264-5.472 5.28-5.472 5.28-17.184t-5.184-17.088q-5.184-5.472-15.264-5.472h-9.6zm55.008 12.288v-69.888h27.264q11.904 0 18.432 6.24t6.528 16.512q0 7.2-3.264 12.288-3.168 5.088-9.12 7.584l14.88 27.264h-15.84l-13.344-24.96h-11.232v24.96zm14.304-36.48h10.272q12.864 0 12.864-10.656 0-5.28-3.168-8.064t-9.696-2.784h-10.272zm44.736 36.48 23.808-69.888h18.816l24.48 69.888h-15.936l-5.376-16.224h-24.768l-5.28 16.224zm24.576-27.456h17.472l-2.112-6.24q-1.632-5.376-3.36-11.616-1.632-6.24-3.456-13.344-1.728 7.2-3.36 13.44t-3.168 11.52zm58.944 27.456-18.72-69.888h15.648l8.064 34.368q1.056 4.896 1.92 10.368 0.96 5.472 1.824 10.848 0.96-5.376 1.92-10.848t2.208-10.368l8.448-34.368h14.88l8.544 34.368q1.152 4.8 2.112 10.272 0.96 5.376 1.92 10.752 0.864-5.376 1.728-10.752 0.96-5.472 2.016-10.272l8.16-34.368h15.648l-18.816 69.888h-16.32l-9.312-35.712q-0.864-3.84-1.632-7.968-0.768-4.224-1.536-8.736-0.672 4.416-1.344 8.64-0.672 4.128-1.728 8.064l-9.216 35.712z" fill="#fff" style="white-space:pre" aria-label="DRAW"/>
  <path transform="matrix(.26458 0 0 .26458 58.584 15.057)" d="m198.93 312.61v-9.0347l37.184-16.501v10.528l-25.312 10.304v0.448l25.312 10.304v10.453zm89.301 0-37.184 16.501v-10.453l25.312-10.304v-0.448l-25.312-10.304v-10.528l37.184 16.501z" fill="#ff2a2a" style="white-space:pre" aria-label="&lt;&gt;"/>
  <path transform="matrix(.26458 0 0 .26458 -16.18 -25.183)" d="m191.39 330.53q-7.2427 0-12.992-3.2853-5.6747-3.2853-8.96-9.4827-3.2853-6.272-3.2853-15.083 0-8.8853 3.2853-15.083 3.36-6.272 9.0347-9.5573 5.7493-3.2853 12.917-3.2853 6.1227 0 11.125 2.3147 5.0027 2.24 8.2133 6.5707 3.2107 4.256 4.032 10.379h-11.275q-0.74667-4.4053-4.032-6.8693-3.2107-2.5387-7.84-2.5387-6.3467 0-10.304 4.704-3.8827 4.704-3.8827 13.365 0 8.8107 3.8827 13.365 3.9573 4.5547 10.229 4.5547 4.6293 0 7.9147-2.464 3.2853-2.464 4.032-6.944h11.275q-0.59733 5.0773-3.584 9.4827-2.912 4.4053-7.9147 7.168-5.0027 2.688-11.872 2.688zm55.328 0q-7.168 0-12.917-3.2853-5.7493-3.2853-9.1093-9.4827-3.2853-6.272-3.2853-15.083 0-8.8853 3.2853-15.083 3.36-6.272 9.1093-9.5573t12.917-3.2853q7.2427 0 12.917 3.2853 5.7493 3.2853 9.1093 9.5573 3.36 6.1973 3.36 15.083 0 8.8107-3.36 15.083-3.36 6.1973-9.1093 9.4827-5.6747 3.2853-12.917 3.2853zm0-9.9307q6.3467 0 10.155-4.5547 3.8827-4.6293 3.8827-13.365 0-8.8107-3.8827-13.44-3.808-4.6293-10.155-4.6293-6.272 0-10.155 4.704-3.8827 4.6293-3.8827 13.365 0 8.6613 3.8827 13.291 3.8827 4.6293 10.155 4.6293zm53.685 10.005q-9.856 0-15.755-4.48-5.824-4.5547-5.9733-13.216h10.827q0.224 4.1813 3.2107 6.272 3.0613 2.016 7.5413 2.016t7.168-1.9413q2.688-1.9413 2.688-5.0027 0-2.8373-2.464-4.3307-2.464-1.4933-6.8693-2.5387l-5.9733-1.4933q-6.8693-1.7173-10.827-5.3013-3.8827-3.584-3.8827-9.4827 0-4.928 2.6133-8.5867 2.688-3.7333 7.2427-5.7493 4.6293-2.016 10.528-2.016 6.048 0 10.528 2.0907 4.48 2.016 7.0187 5.6747t2.6133 8.4373h-10.827q-0.224-3.2853-2.7627-5.0773-2.464-1.792-6.6453-1.792-4.256 0-6.5707 1.792t-2.3147 4.48q0 3.0613 2.6133 4.5547 2.6133 1.4933 6.048 2.3147l4.928 1.1947q4.5547 1.0453 8.2133 3.0613 3.7333 1.9413 5.824 5.152 2.1653 3.136 2.1653 7.6907 0 7.392-5.5253 11.872-5.5253 4.4053-15.381 4.4053z" fill="#0f0" style="white-space:pre" aria-label="COS"/>
  <path transform="matrix(.26458 0 0 .26458 -63.556 89.911)" d="m345.21 329.78 18.517-54.357h14.635l19.04 54.357h-12.395l-4.1813-12.619h-19.264l-4.1067 12.619zm19.115-21.355h13.589l-1.6427-4.8533q-1.2693-4.1813-2.6133-9.0347-1.2693-4.8533-2.688-10.379-1.344 5.6-2.6133 10.453-1.2693 4.8533-2.464 8.96zm60.405 22.101q-7.2427 0-12.992-3.2853-5.6747-3.2853-8.96-9.4827-3.2853-6.272-3.2853-15.083 0-8.8853 3.2853-15.083 3.36-6.272 9.0347-9.5573 5.7493-3.2853 12.917-3.2853 6.1227 0 11.125 2.3147 5.0027 2.24 8.2133 6.5707 3.2107 4.256 4.032 10.379h-11.275q-0.74667-4.4053-4.032-6.8693-3.2107-2.5387-7.84-2.5387-6.3467 0-10.304 4.704-3.8827 4.704-3.8827 13.365 0 8.8107 3.8827 13.365 3.9573 4.5547 10.229 4.5547 4.6293 0 7.9147-2.464 3.2853-2.464 4.032-6.944h11.275q-0.59734 5.0773-3.584 9.4827-2.912 4.4053-7.9147 7.168-5.0027 2.688-11.872 2.688zm51.445 0.0747q-9.856 0-15.755-4.48-5.824-4.5547-5.9733-13.216h10.827q0.224 4.1813 3.2107 6.272 3.0613 2.016 7.5413 2.016t7.168-1.9413q2.688-1.9413 2.688-5.0027 0-2.8373-2.464-4.3307-2.464-1.4933-6.8693-2.5387l-5.9733-1.4933q-6.8693-1.7173-10.827-5.3013-3.8827-3.584-3.8827-9.4827 0-4.928 2.6133-8.5867 2.688-3.7333 7.2427-5.7493 4.6293-2.016 10.528-2.016 6.048 0 10.528 2.0907 4.48 2.016 7.0187 5.6747t2.6133 8.4373h-10.827q-0.224-3.2853-2.7627-5.0773-2.464-1.792-6.6453-1.792-4.256 0-6.5707 1.792t-2.3147 4.48q0 3.0613 2.6133 4.5547 2.6133 1.4933 6.048 2.3147l4.928 1.1947q4.5547 1.0453 8.2133 3.0613 3.7333 1.9413 5.824 5.152 2.1653 3.136 2.1653 7.6907 0 7.392-5.5253 11.872-5.5253 4.4053-15.381 4.4053z" fill="#ff2a2a" style="white-space:pre" aria-label="ACS"/>
 </g>
</svg>
