<?xml version="1.0" encoding="UTF-8"?>
<!-- Created with Inkscape (http://www.inkscape.org/) -->
<svg width="141.55mm" height="150.81mm" version="1.1" viewBox="0 0 141.55 150.81" xmlns="http://www.w3.org/2000/svg">
 <g transform="translate(-26.458 -27.781)">
  <path d="m31.67 66.146h131.13c2.1544 0 3.8889 1.7344 3.8889 3.8889v84.826c0 2.1544-1.7344 3.8889-3.8889 3.8889h-131.13c-2.1544 0-3.8889-1.7344-3.8889-3.8889v-84.826c0-2.1544 1.7344-3.8889 3.8889-3.8889z" fill="#7f7f7f" stroke-linecap="round" stroke-width="7.1624" style="paint-order:stroke fill markers"/>
  <path transform="matrix(.26458 0 0 .26458 4.3005e-5 6.6501)" d="m162.46 398.11 41.76-59.52-38.08-56.96h27.68l12.8 19.68q4 6.24 6.4 11.2 2.4 4.8 4.8 9.44 2.24-4.64 4.8-9.44 2.56-4.96 6.56-11.2l12.96-19.68h27.04l-37.76 56.32 41.12 60.16h-28.16l-16.16-24.32q-4.16-6.24-6.4-10.08-2.08-4-4.32-8.32-2.24 4.32-4.48 8.32-2.08 3.84-6.24 10.08l-16.8 24.32z" fill="#fff" style="white-space:pre" aria-label="X"/>
  <path transform="matrix(.26458 0 0 .26458 21.462 56.365)" d="m162.88 347.82q-9.312 0-16.704-4.224-7.296-4.224-11.52-12.192-4.224-8.064-4.224-19.392 0-11.424 4.224-19.392 4.32-8.064 11.616-12.288 7.392-4.224 16.608-4.224 7.872 0 14.304 2.976 6.432 2.88 10.56 8.448 4.128 5.472 5.184 13.344h-14.496q-0.96-5.664-5.184-8.832-4.128-3.264-10.08-3.264-8.16 0-13.248 6.048-4.992 6.048-4.992 17.184 0 11.328 4.992 17.184 5.088 5.856 13.152 5.856 5.952 0 10.176-3.168t5.184-8.928h14.496q-0.768 6.528-4.608 12.192-3.744 5.664-10.176 9.216-6.432 3.456-15.264 3.456zm40.512-0.96v-69.888h14.304v57.984h30.144v11.904zm54.24 0v-69.888h46.752v11.904h-32.448v16.896h29.952v11.616h-29.952v17.568h32.544v11.904zm54.24 0 23.808-69.888h18.816l24.48 69.888h-15.936l-5.376-16.224h-24.768l-5.28 16.224zm24.576-27.456h17.472l-2.112-6.24q-1.632-5.376-3.36-11.616-1.632-6.24-3.456-13.344-1.728 7.2-3.36 13.44t-3.168 11.52zm51.168 27.456v-69.888h27.264q11.904 0 18.432 6.24t6.528 16.512q0 7.2-3.264 12.288-3.168 5.088-9.12 7.584l14.88 27.264h-15.84l-13.344-24.96h-11.232v24.96zm14.304-36.48h10.272q12.864 0 12.864-10.656 0-5.28-3.168-8.064t-9.696-2.784h-10.272z" fill="#fff" style="white-space:pre" aria-label="CLEAR"/>
  <path transform="matrix(.26458 0 0 .26458 58.554 16.608)" d="m223.16 329.78v-9.2587q2.9867 0 4.6293-1.4187 1.6427-1.4933 1.4933-4.256l-0.448-8.6613h-5.6747v-7.0933h5.376l-0.29866-5.8987q-0.37334-5.7493 1.8667-9.856 2.3147-4.1813 6.496-6.4213t9.5573-2.24q6.944 0 11.797 3.9573 4.8533 3.8827 5.8987 10.603l-10.229 1.6427q-1.12-6.944-7.2427-6.944-4.032 0-5.9733 2.3147-1.8667 2.3147-1.7173 6.3467l0.224 6.496h14.336v7.0933h-14.037l0.224 7.0187q0.0747 2.912-1.4187 4.6293-1.4187 1.7173-3.584 2.688h17.621q2.016 0 2.016-2.016v-2.016h10.155v2.016q0 5.5253-2.9867 8.4373-2.9867 2.8373-8.8107 2.8373z" fill="#ff2a2a" style="white-space:pre" aria-label="£"/>
  <path transform="matrix(.26458 0 0 .26458 -31.298 -25.163)" d="m223.29 329.78v-54.357h36.363v9.2587h-25.237v13.141h23.296v9.0347h-23.296v13.664h25.312v9.2587zm42.261 0 19.488-27.776-17.771-26.581h12.917l5.9733 9.184q1.8667 2.912 2.9867 5.2267 1.12 2.24 2.24 4.4053 1.0453-2.1653 2.24-4.4053 1.1947-2.3147 3.0613-5.2267l6.048-9.184h12.619l-17.621 26.283 19.189 28.075h-13.141l-7.5413-11.349q-1.9413-2.912-2.9867-4.704-0.97067-1.8667-2.016-3.8827-1.0453 2.016-2.0907 3.8827-0.97067 1.792-2.912 4.704l-7.84 11.349zm58.165 0v-54.357h21.205q6.1973 0 10.528 2.3893 4.3307 2.3147 6.5707 6.496 2.3147 4.1067 2.3147 9.4827t-2.3147 9.4827-6.72 6.4213q-4.4053 2.3147-10.677 2.3147h-9.7813v17.771zm11.125-26.731h7.9893q5.152 0 7.5413-2.5387 2.464-2.6133 2.464-6.72t-2.464-6.5707q-2.3893-2.5387-7.5413-2.5387h-7.9893z" fill="#0f0" style="white-space:pre" aria-label="EXP"/>
  <path transform="matrix(.26458 0 0 .26458 -36.62 89.931)" d="m254.53 275.43v54.357h-11.125v-54.357zm9.856 54.357v-54.357h12.395l17.173 27.552q1.568 2.6133 3.2853 5.824t3.5093 7.4667q-0.29866-4.032-0.52266-8.064-0.14934-4.032-0.14934-6.6453v-26.133h11.349v54.357h-12.395l-15.605-24.939q-1.4933-2.464-2.7627-4.704-1.2693-2.3147-2.6133-4.928t-3.0613-5.9733q0.29867 4.8533 0.52267 9.0347 0.224 4.1067 0.224 6.5707v24.939zm56.896 0v-54.357h11.125v14.859l-0.224 12.395q1.792-2.8373 3.808-5.6t4.704-6.048l13.291-15.605h13.664l-20.309 23.52 20.832 30.837h-13.141l-15.381-23.445-7.2427 7.9147v15.531z" fill="#ff2a2a" style="white-space:pre" aria-label="INK"/>
 </g>
</svg>
