<?xml version="1.0" encoding="UTF-8"?>
<!-- Created with Inkscape (http://www.inkscape.org/) -->
<svg width="141.55mm" height="151.18mm" version="1.1" viewBox="0 0 141.55 151.18" xmlns="http://www.w3.org/2000/svg">
 <g transform="translate(-26.458 -27.781)">
  <path d="m31.67 66.146h131.13c2.1544 0 3.8889 1.7344 3.8889 3.8889v84.826c0 2.1544-1.7344 3.8889-3.8889 3.8889h-131.13c-2.1544 0-3.8889-1.7344-3.8889-3.8889v-84.826c0-2.1544 1.7344-3.8889 3.8889-3.8889z" fill="#7f7f7f" stroke-linecap="round" stroke-width="7.1624" style="paint-order:stroke fill markers"/>
  <path transform="matrix(.26458 0 0 .26458 2.6323e-6 6.6501)" d="m205.9 398.11v-43.68l-43.04-72.8h27.84l19.68 36.32q2.24 4 4 7.84 1.92 3.84 3.68 8.48 1.6-4.64 3.36-8.48 1.76-4 3.84-7.84l19.04-36.32h27.84l-42.4 72.8v43.68z" fill="#fff" style="white-space:pre" aria-label="Y"/>
  <path transform="matrix(.26458 0 0 .26458 -2.5996 56.251)" d="m187.73 346.86v-69.888h27.264q11.904 0 18.432 6.24t6.528 16.512q0 7.2-3.264 12.288-3.168 5.088-9.12 7.584l14.88 27.264h-15.84l-13.344-24.96h-11.232v24.96zm14.304-36.48h10.272q12.864 0 12.864-10.656 0-5.28-3.168-8.064t-9.696-2.784h-10.272zm48.768 36.48v-69.888h46.752v11.904h-32.448v16.896h29.952v11.616h-29.952v17.568h32.544v11.904zm55.488-57.984v-11.904h57.024v11.904h-21.312v57.984h-14.4v-57.984zm95.616 58.944q-8.736 0-15.168-3.168t-10.08-8.928q-3.552-5.76-3.552-13.344v-45.408h14.304v44.16q0 6.144 3.936 10.08t10.56 3.936 10.56-3.936 3.936-10.08v-44.16h14.4v45.408q0 7.584-3.648 13.344t-10.176 8.928q-6.432 3.168-15.072 3.168zm41.472-0.96v-69.888h27.264q11.904 0 18.432 6.24t6.528 16.512q0 7.2-3.264 12.288-3.168 5.088-9.12 7.584l14.88 27.264h-15.84l-13.344-24.96h-11.232v24.96zm14.304-36.48h10.272q12.864 0 12.864-10.656 0-5.28-3.168-8.064t-9.696-2.784h-10.272zm48.768 36.48v-69.888h15.936l22.08 35.424q2.016 3.36 4.224 7.488t4.512 9.6q-0.384-5.184-0.672-10.368-0.192-5.184-0.192-8.544v-33.6h14.592v69.888h-15.936l-20.064-32.064q-1.92-3.168-3.552-6.048-1.632-2.976-3.36-6.336t-3.936-7.68q0.384 6.24 0.672 11.616 0.288 5.28 0.288 8.448v32.064z" fill="#fff" style="white-space:pre" aria-label="RETURN"/>
  <path transform="matrix(.26458 0 0 .26458 58.801 16.509)" d="m162.08 329.78 18.517-54.357h14.635l19.04 54.357h-12.395l-4.1813-12.619h-19.264l-4.1067 12.619zm19.115-21.355h13.589l-1.6427-4.8533q-1.2693-4.1813-2.6133-9.0347-1.2693-4.8533-2.688-10.379-1.344 5.6-2.6133 10.453-1.2693 4.8533-2.464 8.96zm39.797 21.355v-54.357h12.395l17.173 27.552q1.568 2.6133 3.2853 5.824t3.5093 7.4667q-0.29867-4.032-0.52267-8.064-0.14933-4.032-0.14933-6.6453v-26.133h11.349v54.357h-12.395l-15.605-24.939q-1.4933-2.464-2.7627-4.704-1.2693-2.3147-2.6133-4.928t-3.0613-5.9733q0.29866 4.8533 0.52266 9.0347 0.224 4.1067 0.224 6.5707v24.939zm76.011 0h-19.115v-54.357h19.264q8.2133 0 14.037 3.2853 5.8987 3.2853 9.0347 9.3333 3.2107 6.048 3.2107 14.56t-3.2107 14.635q-3.136 6.048-9.1093 9.3333-5.8987 3.2107-14.112 3.2107zm-7.9893-9.5573h7.392q7.84 0 11.872-4.256 4.1067-4.256 4.1067-13.365t-4.032-13.291q-4.032-4.256-11.872-4.256h-7.4667z" fill="#ff2a2a" style="white-space:pre" aria-label="AND"/>
  <path transform="matrix(.26458 0 0 .26458 -11.547 -25.163)" d="m170.37 330.6q-9.856 0-15.755-4.48-5.824-4.5547-5.9733-13.216h10.827q0.224 4.1813 3.2107 6.272 3.0613 2.016 7.5413 2.016t7.168-1.9413 2.688-5.0027q0-2.8373-2.464-4.3307-2.464-1.4933-6.8693-2.5387l-5.9733-1.4933q-6.8693-1.7173-10.827-5.3013-3.8827-3.584-3.8827-9.4827 0-4.928 2.6133-8.5867 2.688-3.7333 7.2427-5.7493 4.6293-2.016 10.528-2.016 6.048 0 10.528 2.0907 4.48 2.016 7.0187 5.6747t2.6133 8.4373h-10.827q-0.224-3.2853-2.7627-5.0773-2.464-1.792-6.6453-1.792-4.256 0-6.5707 1.792t-2.3147 4.48q0 3.0613 2.6133 4.5547 2.6133 1.4933 6.048 2.3147l4.928 1.1947q4.5547 1.0453 8.2133 3.0613 3.7333 1.9413 5.824 5.152 2.1653 3.136 2.1653 7.6907 0 7.392-5.5253 11.872-5.5253 4.4053-15.381 4.4053zm26.283-45.92v-9.2587h44.352v9.2587h-16.576v45.099h-11.2v-45.099zm51.968 45.099v-54.357h21.205q9.2587 0 14.336 4.8533t5.0773 12.843q0 5.6-2.5387 9.5573-2.464 3.9573-7.0933 5.8987l11.573 21.205h-12.32l-10.379-19.413h-8.736v19.413zm11.125-28.373h7.9893q10.005 0 10.005-8.288 0-4.1067-2.464-6.272t-7.5413-2.1653h-7.9893zm55.627 35.691v-6.5707q-8.8107-0.52267-14.112-4.928-5.2267-4.48-5.376-12.693h10.827q0.224 3.6587 2.5387 5.6747 2.3893 2.016 6.1227 2.464v-14.336l-3.36-0.82134q-6.8693-1.7173-10.827-5.3013-3.8827-3.584-3.8827-9.4827 0-4.6293 2.3147-8.064 2.3147-3.5093 6.3467-5.6 4.1067-2.1653 9.408-2.6133v-6.72h4.3307v6.72q5.5253 0.29866 9.4827 2.464 4.032 2.1653 6.272 5.6747 2.3147 3.4347 2.3893 7.9893h-10.827q-0.224-2.8373-2.1653-4.5547-1.8667-1.7173-5.152-2.1653v13.589l2.6133 0.59733q4.5547 1.0453 8.2133 3.0613 3.7333 1.9413 5.824 5.152 2.1653 3.136 2.1653 7.6907 0 7.0187-4.928 11.349t-13.888 4.8533v6.5707zm4.3307-16.053q3.5093-0.52266 5.5253-2.3147 2.0907-1.792 2.0907-4.48 0-2.5387-2.016-3.9573-1.9413-1.4187-5.6-2.464zm-4.3307-24.341v-12.469q-3.2107 0.448-4.928 2.1653-1.7173 1.6427-1.7173 3.9573 0 2.6133 1.9413 4.032t4.704 2.3147z" fill="#0f0" style="white-space:pre" aria-label="STR$"/>
  <path transform="matrix(.26458 0 0 .26458 -81.859 89.022)" d="m414.39 339.94v-67.797h17.771v8.288h-7.2427v51.221h7.2427v8.288z" fill="#ff2a2a" style="white-space:pre" aria-label="["/>
 </g>
</svg>
