<?xml version="1.0" encoding="UTF-8"?>
<!-- Created with Inkscape (http://www.inkscape.org/) -->
<svg width="141.55mm" height="150.81mm" version="1.1" viewBox="0 0 141.55 150.81" xmlns="http://www.w3.org/2000/svg">
 <g transform="translate(-26.458 -27.781)">
  <path d="m31.67 66.146h131.13c2.1544 0 3.8889 1.7344 3.8889 3.8889v84.826c0 2.1544-1.7344 3.8889-3.8889 3.8889h-131.13c-2.1544 0-3.8889-1.7344-3.8889-3.8889v-84.826c0-2.1544 1.7344-3.8889 3.8889-3.8889z" fill="#7f7f7f" stroke-linecap="round" stroke-width="7.1624" style="paint-order:stroke fill markers"/>
  <path transform="matrix(.26458 0 0 .26458 2.6323e-6 6.6501)" d="m173.34 398.11v-14.24l47.2-66.72q2.88-4 6.08-8 3.36-4 6.88-8-5.6 0.32-11.2 0.32t-11.2 0h-37.92v-19.84h88.48v14.4l-46.4 65.44q-3.04 4.32-6.56 8.64t-7.2 8.64q6.08-0.32 11.84-0.32 5.92-0.16 11.84-0.16h36.64v19.84z" fill="#fff" style="white-space:pre" aria-label="Z"/>
  <path transform="matrix(.26458 0 0 .26458 21.5 56.365)" d="m183.33 347.82q-9.312 0-16.704-4.224-7.296-4.224-11.52-12.192-4.224-8.064-4.224-19.392 0-11.424 4.224-19.392 4.32-8.064 11.616-12.288 7.392-4.224 16.608-4.224 7.872 0 14.304 2.976 6.432 2.88 10.56 8.448 4.128 5.472 5.184 13.344h-14.496q-0.96-5.664-5.184-8.832-4.128-3.264-10.08-3.264-8.16 0-13.248 6.048-4.992 6.048-4.992 17.184 0 11.328 4.992 17.184 5.088 5.856 13.152 5.856 5.952 0 10.176-3.168t5.184-8.928h14.496q-0.768 6.528-4.608 12.192-3.744 5.664-10.176 9.216-6.432 3.456-15.264 3.456zm71.136 0q-9.216 0-16.608-4.224t-11.712-12.192q-4.224-8.064-4.224-19.392 0-11.424 4.224-19.392 4.32-8.064 11.712-12.288t16.608-4.224q9.312 0 16.608 4.224 7.392 4.224 11.712 12.288 4.32 7.968 4.32 19.392 0 11.328-4.32 19.392-4.32 7.968-11.712 12.192-7.296 4.224-16.608 4.224zm0-12.768q8.16 0 13.056-5.856 4.992-5.952 4.992-17.184 0-11.328-4.992-17.28-4.896-5.952-13.056-5.952-8.064 0-13.056 6.048-4.992 5.952-4.992 17.184 0 11.136 4.992 17.088t13.056 5.952zm43.392 11.808v-69.888h27.264q7.968 0 13.536 3.072 5.568 2.976 8.448 8.352 2.976 5.28 2.976 12.192t-2.976 12.192-8.64 8.256-13.728 2.976h-12.576v22.848zm14.304-34.368h10.272q6.624 0 9.696-3.264 3.168-3.36 3.168-8.64t-3.168-8.448q-3.072-3.264-9.696-3.264h-10.272zm69.696 34.368v-26.208l-25.824-43.68h16.704l11.808 21.792q1.344 2.4 2.4 4.704 1.152 2.304 2.208 5.088 0.96-2.784 2.016-5.088 1.056-2.4 2.304-4.704l11.424-21.792h16.704l-25.44 43.68v26.208z" fill="#fff" style="white-space:pre" aria-label="COPY"/>
  <path transform="matrix(.26458 0 0 .26458 58.584 14.375)" d="m243.58 330.45q-2.688 0-4.48-1.792t-1.792-4.48q0-2.6133 1.792-4.4053 1.792-1.8667 4.48-1.8667t4.48 1.8667q1.792 1.792 1.792 4.4053 0 2.688-1.792 4.48t-4.48 1.792zm0-27.029q-2.688 0-4.48-1.792t-1.792-4.48q0-2.6133 1.792-4.4053 1.792-1.8667 4.48-1.8667t4.48 1.8667q1.792 1.792 1.792 4.4053 0 2.688-1.792 4.48t-4.48 1.792z" fill="#ff2a2a" style="white-space:pre" aria-label=":"/>
  <path transform="matrix(.26458 0 0 .26458 -37.876 -25.163)" d="m248.15 329.78v-54.357h11.125v45.099h23.445v9.2587zm42.187 0v-54.357h12.395l17.173 27.552q1.568 2.6133 3.2853 5.824t3.5093 7.4667q-0.29867-4.032-0.52267-8.064-0.14933-4.032-0.14933-6.6453v-26.133h11.349v54.357h-12.395l-15.605-24.939q-1.4933-2.464-2.7627-4.704-1.2693-2.3147-2.6133-4.928t-3.0613-5.9733q0.29867 4.8533 0.52267 9.0347 0.224 4.1067 0.224 6.5707v24.939z" fill="#0f0" style="white-space:pre" aria-label="LN"/>
  <path transform="matrix(.26458 0 0 .26458 -29.093 89.931)" d="m214.96 329.78v-54.357h21.504q8.96 0 13.44 3.9573 4.5547 3.9573 4.5547 10.005 0 4.8533-2.8373 7.84-2.7627 2.912-6.944 3.8827v0.52266q3.0613 0.14934 5.7493 1.792 2.7627 1.568 4.4053 4.48 1.7173 2.912 1.7173 6.8693 0 4.3307-2.1653 7.7653-2.0907 3.36-6.272 5.3013-4.1067 1.9413-10.229 1.9413zm11.125-9.184h9.632q4.928 0 7.168-1.8667t2.24-5.0027q0-3.36-2.464-5.6t-6.6453-2.24h-9.9307zm0-22.325h8.8107q3.5093 0 5.8987-1.8667 2.3893-1.9413 2.3893-5.2267 0-2.912-2.0907-4.7787t-6.048-1.8667h-8.96zm38.304 31.509v-54.357h36.363v9.2587h-25.237v13.141h23.296v9.0347h-23.296v13.664h25.312v9.2587zm45.323 0v-54.357h36.363v9.2587h-25.237v13.141h23.296v9.0347h-23.296v13.664h25.312v9.2587zm45.323 0v-54.357h21.205q6.1973 0 10.528 2.3893 4.3307 2.3147 6.5707 6.496 2.3147 4.1067 2.3147 9.4827t-2.3147 9.4827-6.72 6.4213q-4.4053 2.3147-10.677 2.3147h-9.7813v17.771zm11.125-26.731h7.9893q5.152 0 7.5413-2.5387 2.464-2.6133 2.464-6.72t-2.464-6.5707q-2.3893-2.5387-7.5413-2.5387h-7.9893z" fill="#ff2a2a" style="white-space:pre" aria-label="BEEP"/>
 </g>
</svg>
